<ttFont>
    <TTGlyph name=".notdef" xMin="55" yMin="240" xMax="179" yMax="370">
      <contour>
        <pt x="179" y="240" on="1"/>
        <pt x="55" y="240" on="1"/>
        <pt x="55" y="370" on="1"/>
        <pt x="179" y="370" on="1"/>
      </contour>
    </TTGlyph>
    <TTGlyph name="A" xMin="3" yMin="0" xMax="622" yMax="700">
      <contour>
        <pt x="622" y="0" on="1"/>
        <pt x="489" y="0" on="1"/>
        <pt x="429" y="169" on="1"/>
        <pt x="196" y="169" on="1"/>
        <pt x="136" y="0" on="1"/>
        <pt x="3" y="0" on="1"/>
        <pt x="252" y="700" on="1"/>
        <pt x="373" y="700" on="1"/>
      </contour>
      <contour>
        <pt x="385" y="293" on="1"/>
        <pt x="312" y="498" on="1"/>
        <pt x="240" y="293" on="1"/>
      </contour>
    </TTGlyph>
    <TTGlyph name="A.sc" xMin="4" yMin="0" xMax="554" yMax="581">
      <contour>
        <pt x="554" y="0" on="1"/>
        <pt x="427" y="0" on="1"/>
        <pt x="376" y="131" on="1"/>
        <pt x="182" y="131" on="1"/>
        <pt x="132" y="0" on="1"/>
        <pt x="4" y="0" on="1"/>
        <pt x="222" y="581" on="1"/>
        <pt x="336" y="581" on="1"/>
      </contour>
      <contour>
        <pt x="333" y="251" on="1"/>
        <pt x="278" y="382" on="1"/>
        <pt x="225" y="251" on="1"/>
      </contour>
    </TTGlyph>
    <TTGlyph name="AE" xMin="-11" yMin="0" xMax="833" yMax="700">
      <contour>
        <pt x="833" y="0" on="1"/>
        <pt x="397" y="0" on="1"/>
        <pt x="397" y="169" on="1"/>
        <pt x="203" y="169" on="1"/>
        <pt x="122" y="0" on="1"/>
        <pt x="-11" y="0" on="1"/>
        <pt x="330" y="700" on="1"/>
        <pt x="824" y="700" on="1"/>
        <pt x="824" y="576" on="1"/>
        <pt x="528" y="576" on="1"/>
        <pt x="528" y="427" on="1"/>
        <pt x="756" y="427" on="1"/>
        <pt x="756" y="303" on="1"/>
        <pt x="528" y="303" on="1"/>
        <pt x="528" y="124" on="1"/>
        <pt x="833" y="124" on="1"/>
      </contour>
      <contour>
        <pt x="397" y="293" on="1"/>
        <pt x="397" y="573" on="1"/>
        <pt x="262" y="293" on="1"/>
      </contour>
    </TTGlyph>
    <TTGlyph name="AE.sc" xMin="-10" yMin="0" xMax="736" yMax="581">
      <contour>
        <pt x="736" y="0" on="1"/>
        <pt x="352" y="0" on="1"/>
        <pt x="352" y="135" on="1"/>
        <pt x="188" y="135" on="1"/>
        <pt x="120" y="0" on="1"/>
        <pt x="-10" y="0" on="1"/>
        <pt x="290" y="581" on="1"/>
        <pt x="728" y="581" on="1"/>
        <pt x="728" y="461" on="1"/>
        <pt x="473" y="461" on="1"/>
        <pt x="473" y="362" on="1"/>
        <pt x="669" y="362" on="1"/>
        <pt x="669" y="243" on="1"/>
        <pt x="473" y="243" on="1"/>
        <pt x="473" y="120" on="1"/>
        <pt x="736" y="120" on="1"/>
      </contour>
      <contour>
        <pt x="352" y="253" on="1"/>
        <pt x="352" y="459" on="1"/>
        <pt x="245" y="253" on="1"/>
      </contour>
    </TTGlyph>
    <TTGlyph name="Aacute" xMin="3" yMin="0" xMax="622" yMax="950">
      <component glyphName="A" x="0" y="0" flags="0x204"/>
      <component glyphName="acute" x="161" y="200" flags="0x4"/>
    </TTGlyph>
    <TTGlyph name="Acircumflex" xMin="3" yMin="0" xMax="622" yMax="950">
      <component glyphName="A" x="0" y="0" flags="0x204"/>
      <component glyphName="circumflex" x="89" y="200" flags="0x4"/>
    </TTGlyph>
    <TTGlyph name="Adieresis" xMin="3" yMin="0" xMax="622" yMax="900">
      <component glyphName="A" x="0" y="0" flags="0x204"/>
      <component glyphName="dieresis" x="101" y="200" flags="0x4"/>
    </TTGlyph>
    <TTGlyph name="Agrave" xMin="3" yMin="0" xMax="622" yMax="950">
      <component glyphName="A" x="0" y="0" flags="0x204"/>
      <component glyphName="grave" x="161" y="200" flags="0x4"/>
    </TTGlyph>
    <TTGlyph name="Aring" xMin="3" yMin="0" xMax="622" yMax="955">
      <component glyphName="A" x="0" y="0" flags="0x204"/>
      <component glyphName="ring" x="166" y="200" flags="0x4"/>
    </TTGlyph>
    <TTGlyph name="Atilde" xMin="3" yMin="0" xMax="622" yMax="921">
      <component glyphName="A" x="0" y="0" flags="0x204"/>
      <component glyphName="tilde" x="48" y="200" flags="0x4"/>
    </TTGlyph>
    <TTGlyph name="B" xMin="77" yMin="0" xMax="597" yMax="700">
      <contour>
        <pt x="347" y="0" on="1"/>
        <pt x="77" y="0" on="1"/>
        <pt x="77" y="700" on="1"/>
        <pt x="266" y="700" on="1"/>
        <pt x="327" y="700" on="0"/>
        <pt x="426" y="687" on="0"/>
        <pt x="496" y="648" on="0"/>
        <pt x="534" y="578" on="0"/>
        <pt x="534" y="520" on="1"/>
        <pt x="534" y="424" on="0"/>
        <pt x="475" y="374" on="1"/>
        <pt x="538" y="350" on="0"/>
        <pt x="597" y="272" on="0"/>
        <pt x="597" y="206" on="1"/>
        <pt x="597" y="148" on="0"/>
        <pt x="554" y="69" on="0"/>
        <pt x="484" y="21" on="0"/>
        <pt x="394" y="0" on="0"/>
      </contour>
      <contour>
        <pt x="318" y="591" on="1"/>
        <pt x="205" y="591" on="1"/>
        <pt x="205" y="419" on="1"/>
        <pt x="330" y="419" on="1"/>
        <pt x="364" y="419" on="0"/>
        <pt x="415" y="456" on="0"/>
        <pt x="415" y="501" on="1"/>
        <pt x="415" y="552" on="0"/>
        <pt x="366" y="591" on="0"/>
      </contour>
      <contour>
        <pt x="338" y="318" on="1"/>
        <pt x="205" y="318" on="1"/>
        <pt x="205" y="109" on="1"/>
        <pt x="331" y="109" on="1"/>
        <pt x="397" y="109" on="0"/>
        <pt x="465" y="156" on="0"/>
        <pt x="465" y="213" on="1"/>
        <pt x="465" y="318" on="0"/>
      </contour>
    </TTGlyph>
    <TTGlyph name="B.sc" xMin="71" yMin="0" xMax="541" yMax="581">
      <contour>
        <pt x="318" y="0" on="1"/>
        <pt x="71" y="0" on="1"/>
        <pt x="71" y="581" on="1"/>
        <pt x="247" y="581" on="1"/>
        <pt x="303" y="581" on="0"/>
        <pt x="391" y="569" on="0"/>
        <pt x="452" y="535" on="0"/>
        <pt x="484" y="476" on="0"/>
        <pt x="484" y="428" on="1"/>
        <pt x="484" y="388" on="0"/>
        <pt x="456" y="324" on="0"/>
        <pt x="432" y="311" on="1"/>
        <pt x="486" y="292" on="0"/>
        <pt x="541" y="227" on="0"/>
        <pt x="541" y="170" on="1"/>
        <pt x="541" y="126" on="0"/>
        <pt x="504" y="62" on="0"/>
        <pt x="443" y="20" on="0"/>
        <pt x="362" y="0" on="0"/>
      </contour>
      <contour>
        <pt x="301" y="480" on="1"/>
        <pt x="194" y="480" on="1"/>
        <pt x="194" y="352" on="1"/>
        <pt x="306" y="352" on="1"/>
        <pt x="318" y="352" on="0"/>
        <pt x="341" y="359" on="0"/>
        <pt x="361" y="373" on="0"/>
        <pt x="373" y="394" on="0"/>
        <pt x="373" y="407" on="1"/>
        <pt x="373" y="446" on="0"/>
        <pt x="337" y="480" on="0"/>
      </contour>
      <contour>
        <pt x="306" y="262" on="1"/>
        <pt x="194" y="262" on="1"/>
        <pt x="194" y="101" on="1"/>
        <pt x="314" y="101" on="1"/>
        <pt x="414" y="101" on="0"/>
        <pt x="414" y="183" on="1"/>
        <pt x="414" y="262" on="0"/>
      </contour>
    </TTGlyph>
    <TTGlyph name="C" xMin="35" yMin="-14" xMax="579" yMax="714">
      <contour>
        <pt x="380" y="-14" on="1"/>
        <pt x="305" y="-14" on="0"/>
        <pt x="178" y="38" on="0"/>
        <pt x="86" y="134" on="0"/>
        <pt x="35" y="268" on="0"/>
        <pt x="35" y="350" on="1"/>
        <pt x="35" y="432" on="0"/>
        <pt x="87" y="566" on="0"/>
        <pt x="178" y="662" on="0"/>
        <pt x="305" y="714" on="0"/>
        <pt x="380" y="714" on="1"/>
        <pt x="494" y="714" on="0"/>
        <pt x="579" y="673" on="1"/>
        <pt x="565" y="551" on="1"/>
        <pt x="466" y="591" on="0"/>
        <pt x="380" y="591" on="1"/>
        <pt x="330" y="591" on="0"/>
        <pt x="254" y="556" on="0"/>
        <pt x="202" y="493" on="0"/>
        <pt x="175" y="404" on="0"/>
        <pt x="175" y="350" on="1"/>
        <pt x="175" y="296" on="0"/>
        <pt x="202" y="207" on="0"/>
        <pt x="254" y="144" on="0"/>
        <pt x="330" y="109" on="0"/>
        <pt x="380" y="109" on="1"/>
        <pt x="466" y="109" on="0"/>
        <pt x="565" y="149" on="1"/>
        <pt x="579" y="27" on="1"/>
        <pt x="494" y="-14" on="0"/>
      </contour>
    </TTGlyph>
    <TTGlyph name="C.sc" xMin="34" yMin="-12" xMax="513" yMax="593">
      <contour>
        <pt x="336" y="-12" on="1"/>
        <pt x="270" y="-12" on="0"/>
        <pt x="160" y="32" on="0"/>
        <pt x="79" y="112" on="0"/>
        <pt x="34" y="224" on="0"/>
        <pt x="34" y="291" on="1"/>
        <pt x="34" y="358" on="0"/>
        <pt x="79" y="470" on="0"/>
        <pt x="160" y="549" on="0"/>
        <pt x="271" y="593" on="0"/>
        <pt x="336" y="593" on="1"/>
        <pt x="441" y="593" on="0"/>
        <pt x="513" y="559" on="1"/>
        <pt x="499" y="442" on="1"/>
        <pt x="418" y="474" on="0"/>
        <pt x="336" y="474" on="1"/>
        <pt x="254" y="474" on="0"/>
        <pt x="169" y="376" on="0"/>
        <pt x="169" y="291" on="1"/>
        <pt x="169" y="206" on="0"/>
        <pt x="254" y="107" on="0"/>
        <pt x="335" y="107" on="1"/>
        <pt x="418" y="107" on="0"/>
        <pt x="499" y="139" on="1"/>
        <pt x="513" y="23" on="1"/>
        <pt x="440" y="-12" on="0"/>
      </contour>
    </TTGlyph>
    <TTGlyph name="Ccaron" xMin="35" yMin="-14" xMax="579" yMax="950">
      <component glyphName="C" x="0" y="0" flags="0x204"/>
      <component glyphName="caron" x="165" y="200" flags="0x4"/>
    </TTGlyph>
    <TTGlyph name="Ccedilla" xMin="35" yMin="-194" xMax="579" yMax="714">
      <component glyphName="C" x="0" y="0" flags="0x4"/>
      <component glyphName="cedilla" x="88" y="0" flags="0x4"/>
    </TTGlyph>
    <TTGlyph name="D" xMin="77" yMin="0" xMax="684" yMax="700">
      <contour>
        <pt x="339" y="0" on="1"/>
        <pt x="77" y="0" on="1"/>
        <pt x="77" y="700" on="1"/>
        <pt x="339" y="700" on="1"/>
        <pt x="415" y="700" on="0"/>
        <pt x="542" y="651" on="0"/>
        <pt x="633" y="560" on="0"/>
        <pt x="684" y="431" on="0"/>
        <pt x="684" y="350" on="1"/>
        <pt x="684" y="269" on="0"/>
        <pt x="633" y="139" on="0"/>
        <pt x="542" y="49" on="0"/>
        <pt x="415" y="0" on="0"/>
      </contour>
      <contour>
        <pt x="339" y="577" on="1"/>
        <pt x="205" y="577" on="1"/>
        <pt x="205" y="123" on="1"/>
        <pt x="339" y="123" on="1"/>
        <pt x="439" y="123" on="0"/>
        <pt x="544" y="242" on="0"/>
        <pt x="544" y="350" on="1"/>
        <pt x="544" y="458" on="0"/>
        <pt x="439" y="577" on="0"/>
      </contour>
    </TTGlyph>
    <TTGlyph name="D.sc" xMin="71" yMin="0" xMax="605" yMax="581">
      <contour>
        <pt x="303" y="0" on="1"/>
        <pt x="71" y="0" on="1"/>
        <pt x="71" y="581" on="1"/>
        <pt x="303" y="581" on="1"/>
        <pt x="369" y="581" on="0"/>
        <pt x="480" y="541" on="0"/>
        <pt x="560" y="466" on="0"/>
        <pt x="605" y="358" on="0"/>
        <pt x="605" y="291" on="1"/>
        <pt x="605" y="223" on="0"/>
        <pt x="560" y="115" on="0"/>
        <pt x="480" y="40" on="0"/>
        <pt x="369" y="0" on="0"/>
      </contour>
      <contour>
        <pt x="303" y="462" on="1"/>
        <pt x="194" y="462" on="1"/>
        <pt x="194" y="119" on="1"/>
        <pt x="303" y="119" on="1"/>
        <pt x="387" y="119" on="0"/>
        <pt x="470" y="207" on="0"/>
        <pt x="470" y="291" on="1"/>
        <pt x="470" y="373" on="0"/>
        <pt x="387" y="462" on="0"/>
      </contour>
    </TTGlyph>
    <TTGlyph name="E" xMin="77" yMin="0" xMax="535" yMax="700">
      <contour>
        <pt x="535" y="0" on="1"/>
        <pt x="77" y="0" on="1"/>
        <pt x="77" y="700" on="1"/>
        <pt x="525" y="700" on="1"/>
        <pt x="525" y="576" on="1"/>
        <pt x="208" y="576" on="1"/>
        <pt x="208" y="427" on="1"/>
        <pt x="454" y="427" on="1"/>
        <pt x="454" y="303" on="1"/>
        <pt x="208" y="303" on="1"/>
        <pt x="208" y="124" on="1"/>
        <pt x="535" y="124" on="1"/>
      </contour>
    </TTGlyph>
    <TTGlyph name="E.sc" xMin="71" yMin="0" xMax="481" yMax="581">
      <contour>
        <pt x="481" y="0" on="1"/>
        <pt x="71" y="0" on="1"/>
        <pt x="71" y="581" on="1"/>
        <pt x="472" y="581" on="1"/>
        <pt x="472" y="461" on="1"/>
        <pt x="198" y="461" on="1"/>
        <pt x="198" y="362" on="1"/>
        <pt x="409" y="362" on="1"/>
        <pt x="409" y="243" on="1"/>
        <pt x="198" y="243" on="1"/>
        <pt x="198" y="120" on="1"/>
        <pt x="481" y="120" on="1"/>
      </contour>
    </TTGlyph>
    <TTGlyph name="Eacute" xMin="77" yMin="0" xMax="535" yMax="950">
      <component glyphName="E" x="0" y="0" flags="0x204"/>
      <component glyphName="acute" x="121" y="200" flags="0x4"/>
    </TTGlyph>
    <TTGlyph name="Ecircumflex" xMin="77" yMin="0" xMax="535" yMax="950">
      <component glyphName="E" x="0" y="0" flags="0x204"/>
      <component glyphName="circumflex" x="50" y="200" flags="0x4"/>
    </TTGlyph>
    <TTGlyph name="Edieresis" xMin="77" yMin="0" xMax="535" yMax="900">
      <component glyphName="E" x="0" y="0" flags="0x204"/>
      <component glyphName="dieresis" x="62" y="200" flags="0x4"/>
    </TTGlyph>
    <TTGlyph name="Egrave" xMin="77" yMin="0" xMax="535" yMax="950">
      <component glyphName="E" x="0" y="0" flags="0x204"/>
      <component glyphName="grave" x="121" y="200" flags="0x4"/>
    </TTGlyph>
    <TTGlyph name="Eth" xMin="-4" yMin="0" xMax="695" yMax="700">
      <contour>
        <pt x="350" y="0" on="1"/>
        <pt x="88" y="0" on="1"/>
        <pt x="88" y="299" on="1"/>
        <pt x="-4" y="299" on="1"/>
        <pt x="-4" y="393" on="1"/>
        <pt x="88" y="393" on="1"/>
        <pt x="88" y="700" on="1"/>
        <pt x="350" y="700" on="1"/>
        <pt x="426" y="700" on="0"/>
        <pt x="553" y="651" on="0"/>
        <pt x="644" y="560" on="0"/>
        <pt x="695" y="431" on="0"/>
        <pt x="695" y="350" on="1"/>
        <pt x="695" y="269" on="0"/>
        <pt x="644" y="139" on="0"/>
        <pt x="553" y="49" on="0"/>
        <pt x="426" y="0" on="0"/>
      </contour>
      <contour>
        <pt x="350" y="577" on="1"/>
        <pt x="216" y="577" on="1"/>
        <pt x="216" y="393" on="1"/>
        <pt x="338" y="393" on="1"/>
        <pt x="338" y="299" on="1"/>
        <pt x="216" y="299" on="1"/>
        <pt x="216" y="123" on="1"/>
        <pt x="350" y="123" on="1"/>
        <pt x="450" y="123" on="0"/>
        <pt x="555" y="242" on="0"/>
        <pt x="555" y="350" on="1"/>
        <pt x="555" y="458" on="0"/>
        <pt x="450" y="577" on="0"/>
      </contour>
    </TTGlyph>
    <TTGlyph name="Euro" xMin="32" yMin="17" xMax="650" yMax="683">
      <contour>
        <pt x="469" y="17" on="1"/>
        <pt x="367" y="17" on="0"/>
        <pt x="212" y="118" on="0"/>
        <pt x="176" y="209" on="1"/>
        <pt x="32" y="209" on="1"/>
        <pt x="62" y="295" on="1"/>
        <pt x="154" y="295" on="1"/>
        <pt x="152" y="307" on="0"/>
        <pt x="151" y="345" on="0"/>
        <pt x="151" y="358" on="1"/>
        <pt x="58" y="358" on="1"/>
        <pt x="89" y="445" on="1"/>
        <pt x="162" y="445" on="1"/>
        <pt x="175" y="500" on="0"/>
        <pt x="232" y="588" on="0"/>
        <pt x="312" y="650" on="0"/>
        <pt x="412" y="683" on="0"/>
        <pt x="469" y="683" on="1"/>
        <pt x="517" y="683" on="0"/>
        <pt x="612" y="665" on="0"/>
        <pt x="650" y="646" on="1"/>
        <pt x="636" y="533" on="1"/>
        <pt x="595" y="550" on="0"/>
        <pt x="517" y="573" on="0"/>
        <pt x="469" y="573" on="1"/>
        <pt x="398" y="573" on="0"/>
        <pt x="313" y="504" on="0"/>
        <pt x="295" y="445" on="1"/>
        <pt x="546" y="445" on="1"/>
        <pt x="514" y="358" on="1"/>
        <pt x="282" y="358" on="1"/>
        <pt x="282" y="344" on="0"/>
        <pt x="283" y="306" on="0"/>
        <pt x="286" y="295" on="1"/>
        <pt x="527" y="295" on="1"/>
        <pt x="497" y="209" on="1"/>
        <pt x="314" y="209" on="1"/>
        <pt x="337" y="170" on="0"/>
        <pt x="413" y="127" on="0"/>
        <pt x="469" y="127" on="1"/>
        <pt x="517" y="127" on="0"/>
        <pt x="595" y="150" on="0"/>
        <pt x="636" y="167" on="1"/>
        <pt x="650" y="54" on="1"/>
        <pt x="612" y="35" on="0"/>
        <pt x="517" y="17" on="0"/>
      </contour>
    </TTGlyph>
    <TTGlyph name="F" xMin="77" yMin="0" xMax="508" yMax="700">
      <contour>
        <pt x="508" y="576" on="1"/>
        <pt x="205" y="576" on="1"/>
        <pt x="205" y="427" on="1"/>
        <pt x="439" y="427" on="1"/>
        <pt x="439" y="303" on="1"/>
        <pt x="205" y="303" on="1"/>
        <pt x="205" y="0" on="1"/>
        <pt x="77" y="0" on="1"/>
        <pt x="77" y="700" on="1"/>
        <pt x="508" y="700" on="1"/>
      </contour>
    </TTGlyph>
    <TTGlyph name="F.sc" xMin="71" yMin="0" xMax="452" yMax="581">
      <contour>
        <pt x="452" y="461" on="1"/>
        <pt x="194" y="461" on="1"/>
        <pt x="194" y="362" on="1"/>
        <pt x="393" y="362" on="1"/>
        <pt x="393" y="243" on="1"/>
        <pt x="194" y="243" on="1"/>
        <pt x="194" y="0" on="1"/>
        <pt x="71" y="0" on="1"/>
        <pt x="71" y="581" on="1"/>
        <pt x="452" y="581" on="1"/>
      </contour>
    </TTGlyph>
    <TTGlyph name="G" xMin="35" yMin="-14" xMax="617" yMax="714">
      <contour>
        <pt x="377" y="-14" on="1"/>
        <pt x="303" y="-14" on="0"/>
        <pt x="177" y="38" on="0"/>
        <pt x="86" y="134" on="0"/>
        <pt x="35" y="269" on="0"/>
        <pt x="35" y="351" on="1"/>
        <pt x="35" y="432" on="0"/>
        <pt x="86" y="566" on="0"/>
        <pt x="178" y="661" on="0"/>
        <pt x="307" y="714" on="0"/>
        <pt x="384" y="714" on="1"/>
        <pt x="409" y="714" on="0"/>
        <pt x="468" y="708" on="0"/>
        <pt x="525" y="697" on="0"/>
        <pt x="576" y="682" on="0"/>
        <pt x="594" y="673" on="1"/>
        <pt x="580" y="551" on="1"/>
        <pt x="484" y="591" on="0"/>
        <pt x="387" y="591" on="1"/>
        <pt x="334" y="591" on="0"/>
        <pt x="255" y="557" on="0"/>
        <pt x="202" y="494" on="0"/>
        <pt x="175" y="407" on="0"/>
        <pt x="175" y="353" on="1"/>
        <pt x="175" y="297" on="0"/>
        <pt x="203" y="207" on="0"/>
        <pt x="259" y="144" on="0"/>
        <pt x="340" y="109" on="0"/>
        <pt x="393" y="109" on="1"/>
        <pt x="434" y="109" on="0"/>
        <pt x="489" y="120" on="1"/>
        <pt x="489" y="245" on="1"/>
        <pt x="412" y="245" on="1"/>
        <pt x="412" y="351" on="1"/>
        <pt x="617" y="351" on="1"/>
        <pt x="617" y="39" on="1"/>
        <pt x="599" y="28" on="0"/>
        <pt x="541" y="9" on="0"/>
        <pt x="474" y="-6" on="0"/>
        <pt x="405" y="-14" on="0"/>
      </contour>
    </TTGlyph>
    <TTGlyph name="G.sc" xMin="34" yMin="-12" xMax="546" yMax="593">
      <contour>
        <pt x="335" y="-12" on="1"/>
        <pt x="270" y="-12" on="0"/>
        <pt x="160" y="32" on="0"/>
        <pt x="79" y="112" on="0"/>
        <pt x="34" y="223" on="0"/>
        <pt x="34" y="291" on="1"/>
        <pt x="34" y="358" on="0"/>
        <pt x="79" y="470" on="0"/>
        <pt x="160" y="549" on="0"/>
        <pt x="273" y="593" on="0"/>
        <pt x="340" y="593" on="1"/>
        <pt x="362" y="593" on="0"/>
        <pt x="415" y="588" on="0"/>
        <pt x="466" y="578" on="0"/>
        <pt x="511" y="565" on="0"/>
        <pt x="526" y="558" on="1"/>
        <pt x="512" y="439" on="1"/>
        <pt x="431" y="474" on="0"/>
        <pt x="343" y="474" on="1"/>
        <pt x="255" y="474" on="0"/>
        <pt x="169" y="376" on="0"/>
        <pt x="169" y="294" on="1"/>
        <pt x="169" y="207" on="0"/>
        <pt x="260" y="107" on="0"/>
        <pt x="345" y="107" on="1"/>
        <pt x="364" y="107" on="0"/>
        <pt x="423" y="113" on="1"/>
        <pt x="423" y="194" on="1"/>
        <pt x="366" y="194" on="1"/>
        <pt x="366" y="291" on="1"/>
        <pt x="546" y="291" on="1"/>
        <pt x="546" y="32" on="1"/>
        <pt x="531" y="23" on="0"/>
        <pt x="480" y="7" on="0"/>
        <pt x="421" y="-5" on="0"/>
        <pt x="360" y="-12" on="0"/>
      </contour>
    </TTGlyph>
    <TTGlyph name="H" xMin="77" yMin="0" xMax="663" yMax="700">
      <contour>
        <pt x="663" y="0" on="1"/>
        <pt x="535" y="0" on="1"/>
        <pt x="535" y="303" on="1"/>
        <pt x="205" y="303" on="1"/>
        <pt x="205" y="0" on="1"/>
        <pt x="77" y="0" on="1"/>
        <pt x="77" y="700" on="1"/>
        <pt x="205" y="700" on="1"/>
        <pt x="205" y="427" on="1"/>
        <pt x="535" y="427" on="1"/>
        <pt x="535" y="700" on="1"/>
        <pt x="663" y="700" on="1"/>
      </contour>
    </TTGlyph>
    <TTGlyph name="H.sc" xMin="71" yMin="0" xMax="587" yMax="581">
      <contour>
        <pt x="587" y="0" on="1"/>
        <pt x="463" y="0" on="1"/>
        <pt x="463" y="243" on="1"/>
        <pt x="194" y="243" on="1"/>
        <pt x="194" y="0" on="1"/>
        <pt x="71" y="0" on="1"/>
        <pt x="71" y="581" on="1"/>
        <pt x="194" y="581" on="1"/>
        <pt x="194" y="362" on="1"/>
        <pt x="463" y="362" on="1"/>
        <pt x="463" y="581" on="1"/>
        <pt x="587" y="581" on="1"/>
      </contour>
    </TTGlyph>
    <TTGlyph name="I" xMin="77" yMin="0" xMax="205" yMax="700">
      <contour>
        <pt x="205" y="0" on="1"/>
        <pt x="77" y="0" on="1"/>
        <pt x="77" y="700" on="1"/>
        <pt x="205" y="700" on="1"/>
      </contour>
    </TTGlyph>
    <TTGlyph name="I.sc" xMin="71" yMin="0" xMax="194" yMax="581">
      <contour>
        <pt x="194" y="0" on="1"/>
        <pt x="71" y="0" on="1"/>
        <pt x="71" y="581" on="1"/>
        <pt x="194" y="581" on="1"/>
      </contour>
    </TTGlyph>
    <TTGlyph name="Iacute" xMin="48" yMin="0" xMax="235" yMax="950">
      <component glyphName="I" x="0" y="0" flags="0x204"/>
      <component glyphName="acute" x="-10" y="200" flags="0x4"/>
    </TTGlyph>
    <TTGlyph name="Icircumflex" xMin="-5" yMin="0" xMax="289" yMax="950">
      <component glyphName="I" x="0" y="0" flags="0x204"/>
      <component glyphName="circumflex" x="-81" y="200" flags="0x4"/>
    </TTGlyph>
    <TTGlyph name="Idieresis" xMin="17" yMin="0" xMax="265" yMax="900">
      <contour>
        <pt x="205" y="0" on="1"/>
        <pt x="77" y="0" on="1"/>
        <pt x="77" y="700" on="1"/>
        <pt x="205" y="700" on="1"/>
      </contour>
      <contour>
        <pt x="265" y="794" on="1"/>
        <pt x="168" y="794" on="1"/>
        <pt x="168" y="900" on="1"/>
        <pt x="265" y="900" on="1"/>
      </contour>
      <contour>
        <pt x="114" y="794" on="1"/>
        <pt x="17" y="794" on="1"/>
        <pt x="17" y="900" on="1"/>
        <pt x="114" y="900" on="1"/>
      </contour>
    </TTGlyph>
    <TTGlyph name="Igrave" xMin="48" yMin="0" xMax="235" yMax="950">
      <component glyphName="I" x="0" y="0" flags="0x204"/>
      <component glyphName="grave" x="-10" y="200" flags="0x4"/>
    </TTGlyph>
    <TTGlyph name="J" xMin="-3" yMin="-172" xMax="205" yMax="700">
      <contour>
        <pt x="43" y="-172" on="1"/>
        <pt x="7" y="-172" on="1"/>
        <pt x="-3" y="-76" on="1"/>
        <pt x="24" y="-76" on="1"/>
        <pt x="53" y="-76" on="0"/>
        <pt x="77" y="-38" on="0"/>
        <pt x="77" y="4" on="1"/>
        <pt x="77" y="700" on="1"/>
        <pt x="205" y="700" on="1"/>
        <pt x="205" y="-24" on="1"/>
        <pt x="205" y="-97" on="0"/>
        <pt x="121" y="-172" on="0"/>
      </contour>
    </TTGlyph>
    <TTGlyph name="J.sc" xMin="6" yMin="-143" xMax="194" yMax="581">
      <contour>
        <pt x="53" y="-143" on="1"/>
        <pt x="15" y="-143" on="1"/>
        <pt x="6" y="-45" on="1"/>
        <pt x="37" y="-45" on="1"/>
        <pt x="71" y="-45" on="0"/>
        <pt x="71" y="6" on="1"/>
        <pt x="71" y="581" on="1"/>
        <pt x="194" y="581" on="1"/>
        <pt x="194" y="-16" on="1"/>
        <pt x="194" y="-80" on="0"/>
        <pt x="119" y="-143" on="0"/>
      </contour>
    </TTGlyph>
    <TTGlyph name="K" xMin="77" yMin="0" xMax="618" yMax="700">
      <contour>
        <pt x="618" y="0" on="1"/>
        <pt x="474" y="0" on="1"/>
        <pt x="230" y="370" on="1"/>
        <pt x="474" y="700" on="1"/>
        <pt x="618" y="700" on="1"/>
        <pt x="374" y="370" on="1"/>
      </contour>
      <contour>
        <pt x="205" y="0" on="1"/>
        <pt x="77" y="0" on="1"/>
        <pt x="77" y="700" on="1"/>
        <pt x="205" y="700" on="1"/>
      </contour>
    </TTGlyph>
    <TTGlyph name="K.sc" xMin="71" yMin="0" xMax="562" yMax="581">
      <contour>
        <pt x="562" y="0" on="1"/>
        <pt x="422" y="0" on="1"/>
        <pt x="212" y="307" on="1"/>
        <pt x="422" y="581" on="1"/>
        <pt x="562" y="581" on="1"/>
        <pt x="352" y="307" on="1"/>
      </contour>
      <contour>
        <pt x="194" y="0" on="1"/>
        <pt x="71" y="0" on="1"/>
        <pt x="71" y="581" on="1"/>
        <pt x="194" y="581" on="1"/>
      </contour>
    </TTGlyph>
    <TTGlyph name="L" xMin="77" yMin="0" xMax="493" yMax="700">
      <contour>
        <pt x="493" y="0" on="1"/>
        <pt x="77" y="0" on="1"/>
        <pt x="77" y="700" on="1"/>
        <pt x="205" y="700" on="1"/>
        <pt x="205" y="124" on="1"/>
        <pt x="493" y="124" on="1"/>
      </contour>
    </TTGlyph>
    <TTGlyph name="L.sc" xMin="71" yMin="0" xMax="437" yMax="581">
      <contour>
        <pt x="437" y="0" on="1"/>
        <pt x="71" y="0" on="1"/>
        <pt x="71" y="581" on="1"/>
        <pt x="194" y="581" on="1"/>
        <pt x="194" y="120" on="1"/>
        <pt x="437" y="120" on="1"/>
      </contour>
    </TTGlyph>
    <TTGlyph name="M" xMin="44" yMin="0" xMax="789" yMax="700">
      <contour>
        <pt x="789" y="0" on="1"/>
        <pt x="656" y="0" on="1"/>
        <pt x="596" y="469" on="1"/>
        <pt x="417" y="147" on="1"/>
        <pt x="237" y="468" on="1"/>
        <pt x="177" y="0" on="1"/>
        <pt x="44" y="0" on="1"/>
        <pt x="141" y="700" on="1"/>
        <pt x="246" y="700" on="1"/>
        <pt x="417" y="381" on="1"/>
        <pt x="587" y="700" on="1"/>
        <pt x="692" y="700" on="1"/>
      </contour>
    </TTGlyph>
    <TTGlyph name="M.sc" xMin="43" yMin="0" xMax="708" yMax="581">
      <contour>
        <pt x="708" y="0" on="1"/>
        <pt x="580" y="0" on="1"/>
        <pt x="529" y="362" on="1"/>
        <pt x="375" y="113" on="1"/>
        <pt x="221" y="361" on="1"/>
        <pt x="171" y="0" on="1"/>
        <pt x="43" y="0" on="1"/>
        <pt x="129" y="581" on="1"/>
        <pt x="229" y="581" on="1"/>
        <pt x="376" y="329" on="1"/>
        <pt x="521" y="581" on="1"/>
        <pt x="621" y="581" on="1"/>
      </contour>
    </TTGlyph>
    <TTGlyph name="N" xMin="77" yMin="0" xMax="630" yMax="700">
      <contour>
        <pt x="630" y="0" on="1"/>
        <pt x="525" y="0" on="1"/>
        <pt x="205" y="480" on="1"/>
        <pt x="205" y="0" on="1"/>
        <pt x="77" y="0" on="1"/>
        <pt x="77" y="700" on="1"/>
        <pt x="203" y="700" on="1"/>
        <pt x="502" y="248" on="1"/>
        <pt x="502" y="700" on="1"/>
        <pt x="630" y="700" on="1"/>
      </contour>
    </TTGlyph>
    <TTGlyph name="N.sc" xMin="71" yMin="0" xMax="561" yMax="581">
      <contour>
        <pt x="561" y="0" on="1"/>
        <pt x="460" y="0" on="1"/>
        <pt x="194" y="366" on="1"/>
        <pt x="194" y="0" on="1"/>
        <pt x="71" y="0" on="1"/>
        <pt x="71" y="581" on="1"/>
        <pt x="189" y="581" on="1"/>
        <pt x="438" y="238" on="1"/>
        <pt x="438" y="581" on="1"/>
        <pt x="561" y="581" on="1"/>
      </contour>
    </TTGlyph>
    <TTGlyph name="Ntilde" xMin="77" yMin="0" xMax="630" yMax="921">
      <component glyphName="N" x="0" y="0" flags="0x204"/>
      <component glyphName="tilde" x="89" y="200" flags="0x4"/>
    </TTGlyph>
    <TTGlyph name="O" xMin="35" yMin="-14" xMax="725" yMax="714">
      <contour>
        <pt x="628" y="86" on="1"/>
        <pt x="532" y="-14" on="0"/>
        <pt x="380" y="-14" on="1"/>
        <pt x="305" y="-14" on="0"/>
        <pt x="178" y="38" on="0"/>
        <pt x="86" y="134" on="0"/>
        <pt x="35" y="268" on="0"/>
        <pt x="35" y="350" on="1"/>
        <pt x="35" y="432" on="0"/>
        <pt x="87" y="566" on="0"/>
        <pt x="178" y="662" on="0"/>
        <pt x="305" y="714" on="0"/>
        <pt x="380" y="714" on="1"/>
        <pt x="455" y="714" on="0"/>
        <pt x="582" y="661" on="0"/>
        <pt x="674" y="565" on="0"/>
        <pt x="725" y="431" on="0"/>
        <pt x="725" y="350" on="1"/>
        <pt x="725" y="186" on="0"/>
      </contour>
      <contour>
        <pt x="532" y="525" on="1"/>
        <pt x="479" y="591" on="0"/>
        <pt x="380" y="591" on="1"/>
        <pt x="330" y="591" on="0"/>
        <pt x="254" y="556" on="0"/>
        <pt x="202" y="493" on="0"/>
        <pt x="175" y="404" on="0"/>
        <pt x="175" y="350" on="1"/>
        <pt x="175" y="296" on="0"/>
        <pt x="202" y="207" on="0"/>
        <pt x="254" y="144" on="0"/>
        <pt x="330" y="109" on="0"/>
        <pt x="380" y="109" on="1"/>
        <pt x="430" y="109" on="0"/>
        <pt x="506" y="144" on="0"/>
        <pt x="558" y="207" on="0"/>
        <pt x="585" y="296" on="0"/>
        <pt x="585" y="350" on="1"/>
        <pt x="585" y="458" on="0"/>
      </contour>
    </TTGlyph>
    <TTGlyph name="O.sc" xMin="34" yMin="-12" xMax="641" yMax="593">
      <contour>
        <pt x="556" y="72" on="1"/>
        <pt x="470" y="-12" on="0"/>
        <pt x="338" y="-12" on="1"/>
        <pt x="271" y="-12" on="0"/>
        <pt x="160" y="32" on="0"/>
        <pt x="79" y="112" on="0"/>
        <pt x="34" y="224" on="0"/>
        <pt x="34" y="291" on="1"/>
        <pt x="34" y="358" on="0"/>
        <pt x="79" y="470" on="0"/>
        <pt x="160" y="549" on="0"/>
        <pt x="272" y="593" on="0"/>
        <pt x="338" y="593" on="1"/>
        <pt x="404" y="593" on="0"/>
        <pt x="515" y="549" on="0"/>
        <pt x="596" y="470" on="0"/>
        <pt x="641" y="358" on="0"/>
        <pt x="641" y="291" on="1"/>
        <pt x="641" y="156" on="0"/>
      </contour>
      <contour>
        <pt x="169" y="291" on="1"/>
        <pt x="169" y="206" on="0"/>
        <pt x="256" y="107" on="0"/>
        <pt x="338" y="107" on="1"/>
        <pt x="420" y="107" on="0"/>
        <pt x="506" y="206" on="0"/>
        <pt x="506" y="291" on="1"/>
        <pt x="506" y="376" on="0"/>
        <pt x="420" y="474" on="0"/>
        <pt x="338" y="474" on="1"/>
        <pt x="256" y="474" on="0"/>
        <pt x="169" y="376" on="0"/>
      </contour>
    </TTGlyph>
    <TTGlyph name="OE" xMin="35" yMin="-14" xMax="1029" yMax="714">
      <contour>
        <pt x="1029" y="0" on="1"/>
        <pt x="593" y="0" on="1"/>
        <pt x="593" y="55" on="1"/>
        <pt x="501" y="-14" on="0"/>
        <pt x="380" y="-14" on="1"/>
        <pt x="305" y="-14" on="0"/>
        <pt x="178" y="38" on="0"/>
        <pt x="86" y="134" on="0"/>
        <pt x="35" y="268" on="0"/>
        <pt x="35" y="350" on="1"/>
        <pt x="35" y="432" on="0"/>
        <pt x="87" y="566" on="0"/>
        <pt x="178" y="662" on="0"/>
        <pt x="305" y="714" on="0"/>
        <pt x="380" y="714" on="1"/>
        <pt x="501" y="714" on="0"/>
        <pt x="593" y="645" on="1"/>
        <pt x="593" y="700" on="1"/>
        <pt x="1020" y="700" on="1"/>
        <pt x="1020" y="576" on="1"/>
        <pt x="724" y="576" on="1"/>
        <pt x="724" y="427" on="1"/>
        <pt x="952" y="427" on="1"/>
        <pt x="952" y="303" on="1"/>
        <pt x="724" y="303" on="1"/>
        <pt x="724" y="124" on="1"/>
        <pt x="1029" y="124" on="1"/>
      </contour>
      <contour>
        <pt x="532" y="525" on="1"/>
        <pt x="479" y="591" on="0"/>
        <pt x="380" y="591" on="1"/>
        <pt x="330" y="591" on="0"/>
        <pt x="254" y="556" on="0"/>
        <pt x="202" y="493" on="0"/>
        <pt x="175" y="404" on="0"/>
        <pt x="175" y="350" on="1"/>
        <pt x="175" y="296" on="0"/>
        <pt x="202" y="207" on="0"/>
        <pt x="254" y="144" on="0"/>
        <pt x="330" y="109" on="0"/>
        <pt x="380" y="109" on="1"/>
        <pt x="430" y="109" on="0"/>
        <pt x="506" y="144" on="0"/>
        <pt x="558" y="207" on="0"/>
        <pt x="585" y="296" on="0"/>
        <pt x="585" y="350" on="1"/>
        <pt x="585" y="458" on="0"/>
      </contour>
    </TTGlyph>
    <TTGlyph name="OE.sc" xMin="34" yMin="-12" xMax="909" yMax="593">
      <contour>
        <pt x="909" y="0" on="1"/>
        <pt x="517" y="0" on="1"/>
        <pt x="517" y="33" on="1"/>
        <pt x="442" y="-12" on="0"/>
        <pt x="340" y="-12" on="1"/>
        <pt x="273" y="-12" on="0"/>
        <pt x="161" y="32" on="0"/>
        <pt x="80" y="112" on="0"/>
        <pt x="34" y="224" on="0"/>
        <pt x="34" y="291" on="1"/>
        <pt x="34" y="358" on="0"/>
        <pt x="80" y="470" on="0"/>
        <pt x="162" y="549" on="0"/>
        <pt x="274" y="593" on="0"/>
        <pt x="340" y="593" on="1"/>
        <pt x="442" y="593" on="0"/>
        <pt x="517" y="548" on="1"/>
        <pt x="517" y="581" on="1"/>
        <pt x="901" y="581" on="1"/>
        <pt x="901" y="461" on="1"/>
        <pt x="645" y="461" on="1"/>
        <pt x="645" y="362" on="1"/>
        <pt x="842" y="362" on="1"/>
        <pt x="842" y="243" on="1"/>
        <pt x="645" y="243" on="1"/>
        <pt x="645" y="120" on="1"/>
        <pt x="909" y="120" on="1"/>
      </contour>
      <contour>
        <pt x="170" y="291" on="1"/>
        <pt x="170" y="206" on="0"/>
        <pt x="258" y="107" on="0"/>
        <pt x="340" y="107" on="1"/>
        <pt x="422" y="107" on="0"/>
        <pt x="510" y="206" on="0"/>
        <pt x="510" y="291" on="1"/>
        <pt x="510" y="375" on="0"/>
        <pt x="422" y="474" on="0"/>
        <pt x="340" y="474" on="1"/>
        <pt x="258" y="474" on="0"/>
        <pt x="170" y="375" on="0"/>
      </contour>
    </TTGlyph>
    <TTGlyph name="Oacute" xMin="35" yMin="-14" xMax="725" yMax="950">
      <component glyphName="O" x="0" y="0" flags="0x204"/>
      <component glyphName="acute" x="228" y="200" flags="0x4"/>
    </TTGlyph>
    <TTGlyph name="Ocircumflex" xMin="35" yMin="-14" xMax="725" yMax="950">
      <component glyphName="O" x="0" y="0" flags="0x204"/>
      <component glyphName="circumflex" x="157" y="200" flags="0x4"/>
    </TTGlyph>
    <TTGlyph name="Odieresis" xMin="35" yMin="-14" xMax="725" yMax="900">
      <component glyphName="O" x="0" y="0" flags="0x204"/>
      <component glyphName="dieresis" x="169" y="200" flags="0x4"/>
    </TTGlyph>
    <TTGlyph name="Ograve" xMin="35" yMin="-14" xMax="725" yMax="950">
      <component glyphName="O" x="0" y="0" flags="0x204"/>
      <component glyphName="grave" x="228" y="200" flags="0x4"/>
    </TTGlyph>
    <TTGlyph name="Oslash" xMin="35" yMin="-31" xMax="725" yMax="716">
      <contour>
        <pt x="380" y="-14" on="1"/>
        <pt x="292" y="-14" on="0"/>
        <pt x="219" y="22" on="1"/>
        <pt x="183" y="-31" on="1"/>
        <pt x="49" y="-31" on="1"/>
        <pt x="130" y="87" on="1"/>
        <pt x="35" y="188" on="0"/>
        <pt x="35" y="350" on="1"/>
        <pt x="35" y="432" on="0"/>
        <pt x="87" y="566" on="0"/>
        <pt x="178" y="662" on="0"/>
        <pt x="305" y="714" on="0"/>
        <pt x="380" y="714" on="1"/>
        <pt x="467" y="714" on="0"/>
        <pt x="536" y="680" on="1"/>
        <pt x="561" y="716" on="1"/>
        <pt x="695" y="716" on="1"/>
        <pt x="626" y="615" on="1"/>
        <pt x="725" y="514" on="0"/>
        <pt x="725" y="350" on="1"/>
        <pt x="725" y="269" on="0"/>
        <pt x="674" y="135" on="0"/>
        <pt x="582" y="39" on="0"/>
        <pt x="456" y="-14" on="0"/>
      </contour>
      <contour>
        <pt x="548" y="502" on="1"/>
        <pt x="291" y="126" on="1"/>
        <pt x="331" y="109" on="0"/>
        <pt x="380" y="109" on="1"/>
        <pt x="429" y="109" on="0"/>
        <pt x="506" y="144" on="0"/>
        <pt x="558" y="207" on="0"/>
        <pt x="585" y="296" on="0"/>
        <pt x="585" y="350" on="1"/>
        <pt x="585" y="441" on="0"/>
      </contour>
      <contour>
        <pt x="380" y="591" on="1"/>
        <pt x="330" y="591" on="0"/>
        <pt x="254" y="556" on="0"/>
        <pt x="202" y="493" on="0"/>
        <pt x="175" y="404" on="0"/>
        <pt x="175" y="350" on="1"/>
        <pt x="175" y="260" on="0"/>
        <pt x="209" y="202" on="1"/>
        <pt x="464" y="575" on="1"/>
        <pt x="428" y="591" on="0"/>
      </contour>
    </TTGlyph>
    <TTGlyph name="Otilde" xMin="35" yMin="-14" xMax="725" yMax="921">
      <component glyphName="O" x="0" y="0" flags="0x204"/>
      <component glyphName="tilde" x="116" y="200" flags="0x4"/>
    </TTGlyph>
    <TTGlyph name="P" xMin="77" yMin="0" xMax="575" yMax="700">
      <contour>
        <pt x="330" y="230" on="1"/>
        <pt x="205" y="230" on="1"/>
        <pt x="205" y="0" on="1"/>
        <pt x="77" y="0" on="1"/>
        <pt x="77" y="700" on="1"/>
        <pt x="275" y="700" on="1"/>
        <pt x="351" y="700" on="0"/>
        <pt x="464" y="683" on="0"/>
        <pt x="538" y="634" on="0"/>
        <pt x="575" y="547" on="0"/>
        <pt x="575" y="478" on="1"/>
        <pt x="575" y="405" on="0"/>
        <pt x="529" y="310" on="0"/>
        <pt x="457" y="253" on="0"/>
        <pt x="370" y="230" on="0"/>
      </contour>
      <contour>
        <pt x="310" y="593" on="1"/>
        <pt x="205" y="593" on="1"/>
        <pt x="205" y="350" on="1"/>
        <pt x="313" y="350" on="1"/>
        <pt x="384" y="350" on="0"/>
        <pt x="445" y="407" on="0"/>
        <pt x="445" y="477" on="1"/>
        <pt x="445" y="508" on="0"/>
        <pt x="432" y="552" on="0"/>
        <pt x="401" y="580" on="0"/>
        <pt x="349" y="593" on="0"/>
      </contour>
    </TTGlyph>
    <TTGlyph name="P.sc" xMin="71" yMin="0" xMax="519" yMax="581">
      <contour>
        <pt x="294" y="184" on="1"/>
        <pt x="193" y="184" on="1"/>
        <pt x="193" y="0" on="1"/>
        <pt x="71" y="0" on="1"/>
        <pt x="71" y="581" on="1"/>
        <pt x="237" y="581" on="1"/>
        <pt x="312" y="581" on="0"/>
        <pt x="418" y="566" on="0"/>
        <pt x="487" y="526" on="0"/>
        <pt x="519" y="453" on="0"/>
        <pt x="519" y="395" on="1"/>
        <pt x="519" y="332" on="0"/>
        <pt x="476" y="250" on="0"/>
        <pt x="410" y="202" on="0"/>
        <pt x="330" y="184" on="0"/>
      </contour>
      <contour>
        <pt x="285" y="482" on="1"/>
        <pt x="193" y="482" on="1"/>
        <pt x="193" y="299" on="1"/>
        <pt x="279" y="299" on="1"/>
        <pt x="311" y="299" on="0"/>
        <pt x="355" y="308" on="0"/>
        <pt x="383" y="329" on="0"/>
        <pt x="395" y="366" on="0"/>
        <pt x="395" y="395" on="1"/>
        <pt x="395" y="441" on="0"/>
        <pt x="349" y="482" on="0"/>
      </contour>
    </TTGlyph>
    <TTGlyph name="Q" xMin="35" yMin="-14" xMax="725" yMax="714">
      <contour>
        <pt x="725" y="79" on="1"/>
        <pt x="651" y="-10" on="1"/>
        <pt x="582" y="47" on="1"/>
        <pt x="499" y="-14" on="0"/>
        <pt x="380" y="-14" on="1"/>
        <pt x="305" y="-14" on="0"/>
        <pt x="178" y="38" on="0"/>
        <pt x="86" y="134" on="0"/>
        <pt x="35" y="268" on="0"/>
        <pt x="35" y="350" on="1"/>
        <pt x="35" y="432" on="0"/>
        <pt x="87" y="566" on="0"/>
        <pt x="178" y="662" on="0"/>
        <pt x="305" y="714" on="0"/>
        <pt x="380" y="714" on="1"/>
        <pt x="455" y="714" on="0"/>
        <pt x="582" y="661" on="0"/>
        <pt x="674" y="565" on="0"/>
        <pt x="725" y="431" on="0"/>
        <pt x="725" y="350" on="1"/>
        <pt x="725" y="225" on="0"/>
        <pt x="663" y="130" on="1"/>
      </contour>
      <contour>
        <pt x="380" y="109" on="1"/>
        <pt x="436" y="109" on="0"/>
        <pt x="480" y="132" on="1"/>
        <pt x="396" y="203" on="1"/>
        <pt x="470" y="292" on="1"/>
        <pt x="558" y="218" on="1"/>
        <pt x="585" y="273" on="0"/>
        <pt x="585" y="350" on="1"/>
        <pt x="585" y="404" on="0"/>
        <pt x="558" y="493" on="0"/>
        <pt x="506" y="556" on="0"/>
        <pt x="430" y="591" on="0"/>
        <pt x="380" y="591" on="1"/>
        <pt x="330" y="591" on="0"/>
        <pt x="254" y="556" on="0"/>
        <pt x="202" y="493" on="0"/>
        <pt x="175" y="404" on="0"/>
        <pt x="175" y="350" on="1"/>
        <pt x="175" y="296" on="0"/>
        <pt x="202" y="207" on="0"/>
        <pt x="254" y="144" on="0"/>
        <pt x="330" y="109" on="0"/>
      </contour>
    </TTGlyph>
    <TTGlyph name="Q.sc" xMin="34" yMin="-14" xMax="646" yMax="593">
      <contour>
        <pt x="646" y="73" on="1"/>
        <pt x="573" y="-14" on="1"/>
        <pt x="511" y="35" on="1"/>
        <pt x="441" y="-12" on="0"/>
        <pt x="338" y="-12" on="1"/>
        <pt x="271" y="-12" on="0"/>
        <pt x="160" y="32" on="0"/>
        <pt x="79" y="112" on="0"/>
        <pt x="34" y="224" on="0"/>
        <pt x="34" y="291" on="1"/>
        <pt x="34" y="358" on="0"/>
        <pt x="79" y="470" on="0"/>
        <pt x="160" y="549" on="0"/>
        <pt x="272" y="593" on="0"/>
        <pt x="338" y="593" on="1"/>
        <pt x="404" y="593" on="0"/>
        <pt x="515" y="549" on="0"/>
        <pt x="596" y="470" on="0"/>
        <pt x="641" y="358" on="0"/>
        <pt x="641" y="291" on="1"/>
        <pt x="641" y="185" on="0"/>
        <pt x="590" y="116" on="1"/>
      </contour>
      <contour>
        <pt x="338" y="474" on="1"/>
        <pt x="256" y="474" on="0"/>
        <pt x="169" y="376" on="0"/>
        <pt x="169" y="291" on="1"/>
        <pt x="169" y="206" on="0"/>
        <pt x="256" y="107" on="0"/>
        <pt x="338" y="107" on="1"/>
        <pt x="362" y="107" on="0"/>
        <pt x="409" y="119" on="1"/>
        <pt x="341" y="172" on="1"/>
        <pt x="414" y="258" on="1"/>
        <pt x="486" y="205" on="1"/>
        <pt x="503" y="242" on="0"/>
        <pt x="503" y="291" on="1"/>
        <pt x="503" y="376" on="0"/>
        <pt x="419" y="474" on="0"/>
      </contour>
    </TTGlyph>
    <TTGlyph name="R" xMin="77" yMin="0" xMax="613" yMax="700">
      <contour>
        <pt x="613" y="0" on="1"/>
        <pt x="480" y="0" on="1"/>
        <pt x="335" y="260" on="1"/>
        <pt x="205" y="260" on="1"/>
        <pt x="205" y="0" on="1"/>
        <pt x="77" y="0" on="1"/>
        <pt x="77" y="700" on="1"/>
        <pt x="333" y="700" on="1"/>
        <pt x="574" y="700" on="0"/>
        <pt x="574" y="498" on="1"/>
        <pt x="574" y="423" on="0"/>
        <pt x="512" y="329" on="0"/>
        <pt x="455" y="294" on="1"/>
      </contour>
      <contour>
        <pt x="304" y="593" on="1"/>
        <pt x="205" y="593" on="1"/>
        <pt x="205" y="380" on="1"/>
        <pt x="299" y="380" on="1"/>
        <pt x="380" y="380" on="0"/>
        <pt x="440" y="435" on="0"/>
        <pt x="440" y="489" on="1"/>
        <pt x="440" y="542" on="0"/>
        <pt x="382" y="593" on="0"/>
      </contour>
    </TTGlyph>
    <TTGlyph name="R.sc" xMin="71" yMin="0" xMax="553" yMax="581">
      <contour>
        <pt x="553" y="0" on="1"/>
        <pt x="426" y="0" on="1"/>
        <pt x="302" y="210" on="1"/>
        <pt x="193" y="210" on="1"/>
        <pt x="193" y="0" on="1"/>
        <pt x="71" y="0" on="1"/>
        <pt x="71" y="581" on="1"/>
        <pt x="306" y="581" on="1"/>
        <pt x="354" y="581" on="0"/>
        <pt x="431" y="562" on="0"/>
        <pt x="487" y="521" on="0"/>
        <pt x="517" y="458" on="0"/>
        <pt x="517" y="415" on="1"/>
        <pt x="517" y="376" on="0"/>
        <pt x="499" y="321" on="0"/>
        <pt x="470" y="282" on="0"/>
        <pt x="434" y="255" on="0"/>
        <pt x="415" y="242" on="1"/>
      </contour>
      <contour>
        <pt x="271" y="479" on="1"/>
        <pt x="193" y="479" on="1"/>
        <pt x="193" y="322" on="1"/>
        <pt x="257" y="322" on="1"/>
        <pt x="302" y="322" on="0"/>
        <pt x="354" y="336" on="0"/>
        <pt x="381" y="359" on="0"/>
        <pt x="388" y="388" on="0"/>
        <pt x="388" y="403" on="1"/>
        <pt x="388" y="423" on="0"/>
        <pt x="378" y="452" on="0"/>
        <pt x="352" y="470" on="0"/>
        <pt x="307" y="479" on="0"/>
      </contour>
    </TTGlyph>
    <TTGlyph name="S" xMin="38" yMin="-14" xMax="551" yMax="714">
      <contour>
        <pt x="280" y="-14" on="1"/>
        <pt x="205" y="-14" on="0"/>
        <pt x="81" y="16" on="0"/>
        <pt x="48" y="37" on="1"/>
        <pt x="63" y="183" on="1"/>
        <pt x="95" y="152" on="0"/>
        <pt x="210" y="109" on="0"/>
        <pt x="283" y="109" on="1"/>
        <pt x="408" y="109" on="0"/>
        <pt x="408" y="185" on="1"/>
        <pt x="408" y="207" on="0"/>
        <pt x="387" y="242" on="0"/>
        <pt x="354" y="268" on="0"/>
        <pt x="315" y="286" on="0"/>
        <pt x="296" y="292" on="1"/>
        <pt x="202" y="325" on="1"/>
        <pt x="162" y="342" on="1"/>
        <pt x="99" y="368" on="0"/>
        <pt x="41" y="440" on="0"/>
        <pt x="38" y="504" on="1"/>
        <pt x="38" y="544" on="0"/>
        <pt x="68" y="619" on="0"/>
        <pt x="130" y="678" on="0"/>
        <pt x="226" y="714" on="0"/>
        <pt x="291" y="714" on="1"/>
        <pt x="324" y="714" on="0"/>
        <pt x="391" y="704" on="0"/>
        <pt x="451" y="689" on="0"/>
        <pt x="499" y="669" on="0"/>
        <pt x="514" y="660" on="1"/>
        <pt x="501" y="529" on="1"/>
        <pt x="385" y="592" on="0"/>
        <pt x="296" y="592" on="1"/>
        <pt x="270" y="592" on="0"/>
        <pt x="224" y="584" on="0"/>
        <pt x="189" y="566" on="0"/>
        <pt x="168" y="538" on="0"/>
        <pt x="168" y="518" on="1"/>
        <pt x="168" y="492" on="0"/>
        <pt x="193" y="463" on="0"/>
        <pt x="242" y="441" on="0"/>
        <pt x="316" y="418" on="0"/>
        <pt x="365" y="399" on="1"/>
        <pt x="419" y="378" on="1"/>
        <pt x="440" y="370" on="0"/>
        <pt x="486" y="340" on="0"/>
        <pt x="525" y="296" on="0"/>
        <pt x="551" y="237" on="0"/>
        <pt x="551" y="200" on="1"/>
        <pt x="551" y="168" on="0"/>
        <pt x="535" y="94" on="0"/>
        <pt x="479" y="29" on="0"/>
        <pt x="371" y="-14" on="0"/>
      </contour>
    </TTGlyph>
    <TTGlyph name="S.sc" xMin="38" yMin="-12" xMax="489" yMax="593">
      <contour>
        <pt x="252" y="-12" on="1"/>
        <pt x="185" y="-12" on="0"/>
        <pt x="75" y="14" on="0"/>
        <pt x="46" y="33" on="1"/>
        <pt x="60" y="170" on="1"/>
        <pt x="86" y="143" on="0"/>
        <pt x="188" y="107" on="0"/>
        <pt x="255" y="107" on="1"/>
        <pt x="304" y="107" on="0"/>
        <pt x="351" y="129" on="0"/>
        <pt x="351" y="156" on="1"/>
        <pt x="351" y="168" on="0"/>
        <pt x="342" y="189" on="0"/>
        <pt x="330" y="198" on="1"/>
        <pt x="309" y="214" on="1"/>
        <pt x="298" y="221" on="0"/>
        <pt x="279" y="228" on="1"/>
        <pt x="213" y="252" on="1"/>
        <pt x="162" y="270" on="1"/>
        <pt x="141" y="279" on="0"/>
        <pt x="97" y="300" on="0"/>
        <pt x="61" y="333" on="0"/>
        <pt x="38" y="380" on="0"/>
        <pt x="38" y="415" on="1"/>
        <pt x="38" y="449" on="0"/>
        <pt x="65" y="514" on="0"/>
        <pt x="121" y="563" on="0"/>
        <pt x="204" y="593" on="0"/>
        <pt x="261" y="593" on="1"/>
        <pt x="290" y="593" on="0"/>
        <pt x="350" y="584" on="0"/>
        <pt x="403" y="571" on="0"/>
        <pt x="446" y="554" on="0"/>
        <pt x="458" y="545" on="1"/>
        <pt x="446" y="423" on="1"/>
        <pt x="351" y="475" on="0"/>
        <pt x="264" y="475" on="1"/>
        <pt x="161" y="475" on="0"/>
        <pt x="161" y="427" on="1"/>
        <pt x="161" y="403" on="0"/>
        <pt x="198" y="377" on="0"/>
        <pt x="261" y="357" on="0"/>
        <pt x="346" y="333" on="0"/>
        <pt x="393" y="310" on="1"/>
        <pt x="438" y="288" on="0"/>
        <pt x="486" y="221" on="0"/>
        <pt x="489" y="162" on="1"/>
        <pt x="489" y="136" on="0"/>
        <pt x="473" y="75" on="0"/>
        <pt x="422" y="23" on="0"/>
        <pt x="329" y="-12" on="0"/>
      </contour>
    </TTGlyph>
    <TTGlyph name="Scaron" xMin="38" yMin="-14" xMax="551" yMax="950">
      <component glyphName="S" x="0" y="0" flags="0x204"/>
      <component glyphName="caron" x="67" y="200" flags="0x4"/>
    </TTGlyph>
    <TTGlyph name="T" xMin="15" yMin="0" xMax="539" yMax="700">
      <contour>
        <pt x="539" y="576" on="1"/>
        <pt x="341" y="576" on="1"/>
        <pt x="341" y="0" on="1"/>
        <pt x="213" y="0" on="1"/>
        <pt x="213" y="576" on="1"/>
        <pt x="15" y="576" on="1"/>
        <pt x="15" y="700" on="1"/>
        <pt x="539" y="700" on="1"/>
      </contour>
    </TTGlyph>
    <TTGlyph name="T.sc" xMin="16" yMin="0" xMax="484" yMax="581">
      <contour>
        <pt x="484" y="461" on="1"/>
        <pt x="312" y="461" on="1"/>
        <pt x="312" y="0" on="1"/>
        <pt x="188" y="0" on="1"/>
        <pt x="188" y="461" on="1"/>
        <pt x="16" y="461" on="1"/>
        <pt x="16" y="581" on="1"/>
        <pt x="484" y="581" on="1"/>
      </contour>
    </TTGlyph>
    <TTGlyph name="Thorn" xMin="77" yMin="0" xMax="575" yMax="700">
      <contour>
        <pt x="205" y="114" on="1"/>
        <pt x="205" y="0" on="1"/>
        <pt x="77" y="0" on="1"/>
        <pt x="77" y="700" on="1"/>
        <pt x="205" y="700" on="1"/>
        <pt x="205" y="584" on="1"/>
        <pt x="275" y="584" on="1"/>
        <pt x="348" y="584" on="0"/>
        <pt x="460" y="569" on="0"/>
        <pt x="536" y="521" on="0"/>
        <pt x="575" y="434" on="0"/>
        <pt x="575" y="362" on="1"/>
        <pt x="575" y="287" on="0"/>
        <pt x="526" y="190" on="0"/>
        <pt x="453" y="135" on="0"/>
        <pt x="367" y="114" on="0"/>
        <pt x="330" y="114" on="1"/>
      </contour>
      <contour>
        <pt x="205" y="477" on="1"/>
        <pt x="205" y="234" on="1"/>
        <pt x="313" y="234" on="1"/>
        <pt x="383" y="234" on="0"/>
        <pt x="445" y="290" on="0"/>
        <pt x="445" y="361" on="1"/>
        <pt x="445" y="391" on="0"/>
        <pt x="433" y="435" on="0"/>
        <pt x="402" y="463" on="0"/>
        <pt x="350" y="477" on="0"/>
        <pt x="310" y="477" on="1"/>
      </contour>
    </TTGlyph>
    <TTGlyph name="U" xMin="69" yMin="-14" xMax="649" yMax="700">
      <contour>
        <pt x="69" y="300" on="1"/>
        <pt x="69" y="700" on="1"/>
        <pt x="197" y="700" on="1"/>
        <pt x="197" y="343" on="1"/>
        <pt x="197" y="287" on="0"/>
        <pt x="213" y="200" on="0"/>
        <pt x="250" y="140" on="0"/>
        <pt x="312" y="109" on="0"/>
        <pt x="359" y="109" on="1"/>
        <pt x="405" y="109" on="0"/>
        <pt x="468" y="140" on="0"/>
        <pt x="505" y="200" on="0"/>
        <pt x="521" y="287" on="0"/>
        <pt x="521" y="343" on="1"/>
        <pt x="521" y="700" on="1"/>
        <pt x="649" y="700" on="1"/>
        <pt x="649" y="300" on="1"/>
        <pt x="649" y="153" on="0"/>
        <pt x="503" y="-14" on="0"/>
        <pt x="359" y="-14" on="1"/>
        <pt x="215" y="-14" on="0"/>
        <pt x="69" y="153" on="0"/>
      </contour>
    </TTGlyph>
    <TTGlyph name="U.sc" xMin="64" yMin="-12" xMax="574" yMax="581">
      <contour>
        <pt x="319" y="-12" on="1"/>
        <pt x="193" y="-12" on="0"/>
        <pt x="64" y="129" on="0"/>
        <pt x="64" y="250" on="1"/>
        <pt x="64" y="581" on="1"/>
        <pt x="187" y="581" on="1"/>
        <pt x="187" y="285" on="1"/>
        <pt x="187" y="241" on="0"/>
        <pt x="200" y="175" on="0"/>
        <pt x="230" y="130" on="0"/>
        <pt x="281" y="107" on="0"/>
        <pt x="319" y="107" on="1"/>
        <pt x="357" y="107" on="0"/>
        <pt x="408" y="130" on="0"/>
        <pt x="438" y="175" on="0"/>
        <pt x="451" y="241" on="0"/>
        <pt x="451" y="285" on="1"/>
        <pt x="451" y="581" on="1"/>
        <pt x="574" y="581" on="1"/>
        <pt x="574" y="250" on="1"/>
        <pt x="574" y="129" on="0"/>
        <pt x="446" y="-12" on="0"/>
      </contour>
    </TTGlyph>
    <TTGlyph name="Uacute" xMin="69" yMin="-14" xMax="649" yMax="950">
      <component glyphName="U" x="0" y="0" flags="0x204"/>
      <component glyphName="acute" x="207" y="200" flags="0x4"/>
    </TTGlyph>
    <TTGlyph name="Ucircumflex" xMin="69" yMin="-14" xMax="649" yMax="950">
      <component glyphName="U" x="0" y="0" flags="0x204"/>
      <component glyphName="circumflex" x="136" y="200" flags="0x4"/>
    </TTGlyph>
    <TTGlyph name="Udieresis" xMin="69" yMin="-14" xMax="649" yMax="900">
      <component glyphName="U" x="0" y="0" flags="0x204"/>
      <component glyphName="dieresis" x="148" y="200" flags="0x4"/>
    </TTGlyph>
    <TTGlyph name="Ugrave" xMin="69" yMin="-14" xMax="649" yMax="950">
      <component glyphName="U" x="0" y="0" flags="0x204"/>
      <component glyphName="grave" x="207" y="200" flags="0x4"/>
    </TTGlyph>
    <TTGlyph name="V" xMin="0" yMin="0" xMax="654" yMax="700">
      <contour>
        <pt x="654" y="700" on="1"/>
        <pt x="408" y="0" on="1"/>
        <pt x="252" y="0" on="1"/>
        <pt x="0" y="700" on="1"/>
        <pt x="133" y="700" on="1"/>
        <pt x="329" y="169" on="1"/>
        <pt x="522" y="700" on="1"/>
      </contour>
    </TTGlyph>
    <TTGlyph name="V.sc" xMin="0" yMin="0" xMax="581" yMax="581">
      <contour>
        <pt x="581" y="581" on="1"/>
        <pt x="372" y="0" on="1"/>
        <pt x="217" y="0" on="1"/>
        <pt x="0" y="581" on="1"/>
        <pt x="128" y="581" on="1"/>
        <pt x="293" y="167" on="1"/>
        <pt x="455" y="581" on="1"/>
      </contour>
    </TTGlyph>
    <TTGlyph name="W" xMin="10" yMin="0" xMax="957" yMax="700">
      <contour>
        <pt x="957" y="700" on="1"/>
        <pt x="752" y="0" on="1"/>
        <pt x="639" y="0" on="1"/>
        <pt x="483" y="467" on="1"/>
        <pt x="328" y="0" on="1"/>
        <pt x="207" y="0" on="1"/>
        <pt x="10" y="700" on="1"/>
        <pt x="143" y="700" on="1"/>
        <pt x="283" y="203" on="1"/>
        <pt x="439" y="700" on="1"/>
        <pt x="528" y="700" on="1"/>
        <pt x="690" y="216" on="1"/>
        <pt x="824" y="700" on="1"/>
      </contour>
    </TTGlyph>
    <TTGlyph name="W.sc" xMin="11" yMin="0" xMax="844" yMax="587">
      <contour>
        <pt x="844" y="581" on="1"/>
        <pt x="664" y="0" on="1"/>
        <pt x="562" y="0" on="1"/>
        <pt x="428" y="340" on="1"/>
        <pt x="296" y="0" on="1"/>
        <pt x="185" y="0" on="1"/>
        <pt x="11" y="581" on="1"/>
        <pt x="139" y="581" on="1"/>
        <pt x="257" y="211" on="1"/>
        <pt x="388" y="587" on="1"/>
        <pt x="467" y="587" on="1"/>
        <pt x="605" y="227" on="1"/>
        <pt x="717" y="581" on="1"/>
      </contour>
    </TTGlyph>
    <TTGlyph name="X" xMin="-1" yMin="0" xMax="629" yMax="700">
      <contour>
        <pt x="629" y="0" on="1"/>
        <pt x="481" y="0" on="1"/>
        <pt x="311" y="257" on="1"/>
        <pt x="146" y="0" on="1"/>
        <pt x="-1" y="0" on="1"/>
        <pt x="246" y="349" on="1"/>
        <pt x="10" y="700" on="1"/>
        <pt x="158" y="700" on="1"/>
        <pt x="320" y="454" on="1"/>
        <pt x="468" y="700" on="1"/>
        <pt x="615" y="700" on="1"/>
        <pt x="385" y="363" on="1"/>
      </contour>
    </TTGlyph>
    <TTGlyph name="X.sc" xMin="1" yMin="0" xMax="570" yMax="581">
      <contour>
        <pt x="570" y="0" on="1"/>
        <pt x="424" y="0" on="1"/>
        <pt x="285" y="200" on="1"/>
        <pt x="145" y="0" on="1"/>
        <pt x="1" y="0" on="1"/>
        <pt x="222" y="290" on="1"/>
        <pt x="14" y="581" on="1"/>
        <pt x="157" y="581" on="1"/>
        <pt x="293" y="389" on="1"/>
        <pt x="409" y="581" on="1"/>
        <pt x="553" y="581" on="1"/>
        <pt x="357" y="302" on="1"/>
      </contour>
    </TTGlyph>
    <TTGlyph name="Y" xMin="-7" yMin="0" xMax="605" yMax="700">
      <contour>
        <pt x="605" y="700" on="1"/>
        <pt x="363" y="310" on="1"/>
        <pt x="363" y="0" on="1"/>
        <pt x="235" y="0" on="1"/>
        <pt x="235" y="310" on="1"/>
        <pt x="-7" y="700" on="1"/>
        <pt x="129" y="700" on="1"/>
        <pt x="299" y="424" on="1"/>
        <pt x="469" y="700" on="1"/>
      </contour>
    </TTGlyph>
    <TTGlyph name="Y.sc" xMin="-7" yMin="0" xMax="544" yMax="581">
      <contour>
        <pt x="544" y="581" on="1"/>
        <pt x="329" y="251" on="1"/>
        <pt x="329" y="0" on="1"/>
        <pt x="208" y="0" on="1"/>
        <pt x="208" y="251" on="1"/>
        <pt x="-7" y="581" on="1"/>
        <pt x="124" y="581" on="1"/>
        <pt x="269" y="359" on="1"/>
        <pt x="413" y="581" on="1"/>
      </contour>
    </TTGlyph>
    <TTGlyph name="Yacute" xMin="-7" yMin="0" xMax="605" yMax="950">
      <component glyphName="Y" x="0" y="0" flags="0x204"/>
      <component glyphName="acute" x="147" y="200" flags="0x4"/>
    </TTGlyph>
    <TTGlyph name="Ydieresis" xMin="-7" yMin="0" xMax="605" yMax="900">
      <component glyphName="Y" x="0" y="0" flags="0x204"/>
      <component glyphName="dieresis" x="88" y="200" flags="0x4"/>
    </TTGlyph>
    <TTGlyph name="Z" xMin="8" yMin="0" xMax="541" yMax="700">
      <contour>
        <pt x="541" y="700" on="1"/>
        <pt x="219" y="124" on="1"/>
        <pt x="496" y="124" on="1"/>
        <pt x="496" y="0" on="1"/>
        <pt x="8" y="0" on="1"/>
        <pt x="330" y="576" on="1"/>
        <pt x="53" y="576" on="1"/>
        <pt x="53" y="700" on="1"/>
      </contour>
    </TTGlyph>
    <TTGlyph name="Z.sc" xMin="12" yMin="0" xMax="481" yMax="581">
      <contour>
        <pt x="481" y="581" on="1"/>
        <pt x="215" y="120" on="1"/>
        <pt x="441" y="120" on="1"/>
        <pt x="441" y="0" on="1"/>
        <pt x="12" y="0" on="1"/>
        <pt x="278" y="461" on="1"/>
        <pt x="52" y="461" on="1"/>
        <pt x="52" y="581" on="1"/>
      </contour>
    </TTGlyph>
    <TTGlyph name="Zcaron" xMin="8" yMin="0" xMax="541" yMax="950">
      <component glyphName="Z" x="0" y="0" flags="0x204"/>
      <component glyphName="caron" x="50" y="200" flags="0x4"/>
    </TTGlyph>
    <TTGlyph name="a" xMin="21" yMin="-10" xMax="487" yMax="508">
      <contour>
        <pt x="487" y="92" on="1"/>
        <pt x="476" y="-10" on="1"/>
        <pt x="431" y="-10" on="1"/>
        <pt x="350" y="-10" on="0"/>
        <pt x="319" y="48" on="1"/>
        <pt x="267" y="-10" on="0"/>
        <pt x="166" y="-10" on="1"/>
        <pt x="135" y="-10" on="0"/>
        <pt x="82" y="11" on="0"/>
        <pt x="43" y="50" on="0"/>
        <pt x="21" y="105" on="0"/>
        <pt x="21" y="140" on="1"/>
        <pt x="21" y="191" on="0"/>
        <pt x="81" y="259" on="0"/>
        <pt x="167" y="300" on="0"/>
        <pt x="264" y="318" on="0"/>
        <pt x="302" y="319" on="1"/>
        <pt x="300" y="364" on="0"/>
        <pt x="260" y="401" on="0"/>
        <pt x="212" y="401" on="1"/>
        <pt x="153" y="401" on="0"/>
        <pt x="75" y="363" on="1"/>
        <pt x="64" y="464" on="1"/>
        <pt x="157" y="508" on="0"/>
        <pt x="246" y="508" on="1"/>
        <pt x="427" y="508" on="0"/>
        <pt x="427" y="307" on="1"/>
        <pt x="427" y="172" on="1"/>
        <pt x="427" y="145" on="0"/>
        <pt x="430" y="113" on="0"/>
        <pt x="439" y="96" on="0"/>
        <pt x="457" y="92" on="0"/>
        <pt x="471" y="92" on="1"/>
      </contour>
      <contour>
        <pt x="303" y="121" on="1"/>
        <pt x="303" y="235" on="1"/>
        <pt x="274" y="233" on="0"/>
        <pt x="219" y="221" on="0"/>
        <pt x="177" y="198" on="0"/>
        <pt x="151" y="166" on="0"/>
        <pt x="151" y="145" on="1"/>
        <pt x="151" y="85" on="0"/>
        <pt x="218" y="85" on="1"/>
        <pt x="265" y="85" on="0"/>
      </contour>
    </TTGlyph>
    <TTGlyph name="aacute" xMin="21" yMin="-10" xMax="487" yMax="750">
      <component glyphName="a" x="0" y="0" flags="0x204"/>
      <component glyphName="acute" x="97" y="0" flags="0x4"/>
    </TTGlyph>
    <TTGlyph name="acircumflex" xMin="21" yMin="-10" xMax="487" yMax="750">
      <component glyphName="a" x="0" y="0" flags="0x204"/>
      <component glyphName="circumflex" x="27" y="0" flags="0x4"/>
    </TTGlyph>
    <TTGlyph name="acute" xMin="58" yMin="585" xMax="245" yMax="750">
      <contour>
        <pt x="245" y="646" on="1"/>
        <pt x="58" y="585" on="1"/>
        <pt x="58" y="659" on="1"/>
        <pt x="245" y="750" on="1"/>
      </contour>
    </TTGlyph>
    <TTGlyph name="adieresis" xMin="21" yMin="-10" xMax="487" yMax="700">
      <component glyphName="a" x="0" y="0" flags="0x204"/>
      <component glyphName="dieresis" x="39" y="0" flags="0x4"/>
    </TTGlyph>
    <TTGlyph name="ae" xMin="20" yMin="-15" xMax="766" yMax="508">
      <contour>
        <pt x="758" y="223" on="1"/>
        <pt x="441" y="223" on="1"/>
        <pt x="451" y="157" on="0"/>
        <pt x="530" y="92" on="0"/>
        <pt x="584" y="92" on="1"/>
        <pt x="601" y="92" on="0"/>
        <pt x="641" y="98" on="0"/>
        <pt x="682" y="109" on="0"/>
        <pt x="722" y="124" on="0"/>
        <pt x="738" y="133" on="1"/>
        <pt x="744" y="28" on="1"/>
        <pt x="671" y="-10" on="0"/>
        <pt x="578" y="-10" on="1"/>
        <pt x="430" y="-10" on="0"/>
        <pt x="378" y="84" on="1"/>
        <pt x="300" y="-15" on="0"/>
        <pt x="184" y="-15" on="1"/>
        <pt x="106" y="-15" on="0"/>
        <pt x="20" y="61" on="0"/>
        <pt x="20" y="127" on="1"/>
        <pt x="20" y="185" on="0"/>
        <pt x="81" y="257" on="0"/>
        <pt x="169" y="297" on="0"/>
        <pt x="266" y="312" on="0"/>
        <pt x="302" y="314" on="1"/>
        <pt x="300" y="362" on="0"/>
        <pt x="260" y="401" on="0"/>
        <pt x="211" y="401" on="1"/>
        <pt x="152" y="401" on="0"/>
        <pt x="74" y="363" on="1"/>
        <pt x="63" y="464" on="1"/>
        <pt x="156" y="508" on="0"/>
        <pt x="244" y="508" on="1"/>
        <pt x="304" y="508" on="0"/>
        <pt x="378" y="468" on="0"/>
        <pt x="395" y="419" on="1"/>
        <pt x="402" y="436" on="0"/>
        <pt x="435" y="468" on="0"/>
        <pt x="481" y="493" on="0"/>
        <pt x="538" y="508" on="0"/>
        <pt x="568" y="508" on="1"/>
        <pt x="612" y="508" on="0"/>
        <pt x="685" y="477" on="0"/>
        <pt x="737" y="421" on="0"/>
        <pt x="766" y="341" on="0"/>
        <pt x="766" y="293" on="1"/>
        <pt x="766" y="263" on="0"/>
      </contour>
      <contour>
        <pt x="564" y="406" on="1"/>
        <pt x="519" y="406" on="0"/>
        <pt x="453" y="352" on="0"/>
        <pt x="444" y="307" on="1"/>
        <pt x="655" y="307" on="1"/>
        <pt x="655" y="347" on="0"/>
        <pt x="611" y="406" on="0"/>
      </contour>
      <contour>
        <pt x="310" y="230" on="1"/>
        <pt x="281" y="229" on="0"/>
        <pt x="224" y="218" on="0"/>
        <pt x="178" y="195" on="0"/>
        <pt x="150" y="161" on="0"/>
        <pt x="150" y="138" on="1"/>
        <pt x="150" y="112" on="0"/>
        <pt x="185" y="81" on="0"/>
        <pt x="210" y="81" on="1"/>
        <pt x="229" y="81" on="0"/>
        <pt x="265" y="98" on="0"/>
        <pt x="293" y="129" on="0"/>
        <pt x="311" y="174" on="0"/>
        <pt x="311" y="202" on="1"/>
        <pt x="311" y="210" on="0"/>
        <pt x="311" y="225" on="0"/>
      </contour>
    </TTGlyph>
    <TTGlyph name="agrave" xMin="21" yMin="-10" xMax="487" yMax="750">
      <component glyphName="a" x="0" y="0" flags="0x204"/>
      <component glyphName="grave" x="97" y="0" flags="0x4"/>
    </TTGlyph>
    <TTGlyph name="ampersand" xMin="32" yMin="-24" xMax="624" yMax="703">
      <contour>
        <pt x="624" y="0" on="1"/>
        <pt x="480" y="0" on="1"/>
        <pt x="449" y="34" on="1"/>
        <pt x="376" y="-24" on="0"/>
        <pt x="265" y="-24" on="1"/>
        <pt x="207" y="-24" on="0"/>
        <pt x="120" y="6" on="0"/>
        <pt x="61" y="58" on="0"/>
        <pt x="32" y="128" on="0"/>
        <pt x="32" y="168" on="1"/>
        <pt x="32" y="231" on="0"/>
        <pt x="97" y="325" on="0"/>
        <pt x="154" y="367" on="1"/>
        <pt x="79" y="461" on="0"/>
        <pt x="79" y="538" on="1"/>
        <pt x="79" y="576" on="0"/>
        <pt x="112" y="637" on="0"/>
        <pt x="168" y="680" on="0"/>
        <pt x="241" y="703" on="0"/>
        <pt x="282" y="703" on="1"/>
        <pt x="357" y="703" on="0"/>
        <pt x="441" y="626" on="0"/>
        <pt x="441" y="560" on="1"/>
        <pt x="441" y="530" on="0"/>
        <pt x="421" y="481" on="0"/>
        <pt x="385" y="437" on="0"/>
        <pt x="332" y="394" on="0"/>
        <pt x="299" y="371" on="1"/>
        <pt x="439" y="211" on="1"/>
        <pt x="443" y="231" on="0"/>
        <pt x="448" y="301" on="0"/>
        <pt x="449" y="352" on="1"/>
        <pt x="568" y="352" on="1"/>
        <pt x="568" y="212" on="0"/>
        <pt x="519" y="120" on="1"/>
      </contour>
      <contour>
        <pt x="276" y="604" on="1"/>
        <pt x="243" y="604" on="0"/>
        <pt x="201" y="567" on="0"/>
        <pt x="201" y="533" on="1"/>
        <pt x="201" y="490" on="0"/>
        <pt x="247" y="432" on="1"/>
        <pt x="332" y="492" on="0"/>
        <pt x="332" y="546" on="1"/>
        <pt x="332" y="604" on="0"/>
      </contour>
      <contour>
        <pt x="386" y="105" on="1"/>
        <pt x="213" y="300" on="1"/>
        <pt x="161" y="245" on="0"/>
        <pt x="161" y="179" on="1"/>
        <pt x="161" y="133" on="0"/>
        <pt x="216" y="71" on="0"/>
        <pt x="282" y="71" on="1"/>
        <pt x="348" y="71" on="0"/>
      </contour>
    </TTGlyph>
    <TTGlyph name="aring" xMin="21" yMin="-10" xMax="487" yMax="755">
      <component glyphName="a" x="0" y="0" flags="0x204"/>
      <component glyphName="ring" x="104" y="0" flags="0x4"/>
    </TTGlyph>
    <TTGlyph name="asciicircum" xMin="49" yMin="400" xMax="461" yMax="759">
      <contour>
        <pt x="461" y="400" on="1"/>
        <pt x="255" y="612" on="1"/>
        <pt x="49" y="400" on="1"/>
        <pt x="49" y="547" on="1"/>
        <pt x="255" y="759" on="1"/>
        <pt x="461" y="547" on="1"/>
      </contour>
    </TTGlyph>
    <TTGlyph name="asciitilde" xMin="46" yMin="171" xMax="422" yMax="298">
      <contour>
        <pt x="304" y="176" on="1"/>
        <pt x="291" y="176" on="0"/>
        <pt x="253" y="189" on="0"/>
        <pt x="216" y="205" on="0"/>
        <pt x="184" y="218" on="0"/>
        <pt x="177" y="218" on="1"/>
        <pt x="157" y="218" on="0"/>
        <pt x="133" y="189" on="0"/>
        <pt x="129" y="171" on="1"/>
        <pt x="46" y="191" on="1"/>
        <pt x="48" y="215" on="0"/>
        <pt x="71" y="252" on="0"/>
        <pt x="106" y="279" on="0"/>
        <pt x="149" y="293" on="0"/>
        <pt x="171" y="293" on="1"/>
        <pt x="186" y="293" on="0"/>
        <pt x="221" y="280" on="0"/>
        <pt x="254" y="264" on="0"/>
        <pt x="281" y="251" on="0"/>
        <pt x="289" y="251" on="1"/>
        <pt x="311" y="251" on="0"/>
        <pt x="343" y="281" on="0"/>
        <pt x="346" y="298" on="1"/>
        <pt x="422" y="278" on="1"/>
        <pt x="419" y="257" on="0"/>
        <pt x="399" y="220" on="0"/>
        <pt x="368" y="192" on="0"/>
        <pt x="328" y="176" on="0"/>
      </contour>
    </TTGlyph>
    <TTGlyph name="asterisk" xMin="31" yMin="409" xMax="415" yMax="749">
      <contour>
        <pt x="309" y="412" on="1"/>
        <pt x="225" y="549" on="1"/>
        <pt x="139" y="409" on="1"/>
        <pt x="72" y="474" on="1"/>
        <pt x="193" y="565" on="1"/>
        <pt x="31" y="617" on="1"/>
        <pt x="78" y="699" on="1"/>
        <pt x="211" y="592" on="1"/>
        <pt x="176" y="749" on="1"/>
        <pt x="270" y="749" on="1"/>
        <pt x="234" y="592" on="1"/>
        <pt x="368" y="699" on="1"/>
        <pt x="415" y="617" on="1"/>
        <pt x="256" y="567" on="1"/>
        <pt x="376" y="477" on="1"/>
      </contour>
    </TTGlyph>
    <TTGlyph name="at" xMin="45" yMin="-87" xMax="671" yMax="553">
      <contour>
        <pt x="541" y="379" on="1"/>
        <pt x="490" y="432" on="0"/>
        <pt x="419" y="432" on="1"/>
        <pt x="373" y="432" on="0"/>
        <pt x="282" y="382" on="0"/>
        <pt x="210" y="303" on="0"/>
        <pt x="165" y="202" on="0"/>
        <pt x="165" y="151" on="1"/>
        <pt x="165" y="103" on="0"/>
        <pt x="209" y="40" on="0"/>
        <pt x="260" y="40" on="1"/>
        <pt x="281" y="40" on="0"/>
        <pt x="331" y="57" on="0"/>
        <pt x="379" y="88" on="0"/>
        <pt x="422" y="130" on="0"/>
        <pt x="436" y="156" on="1"/>
        <pt x="436" y="155" on="0"/>
        <pt x="435" y="146" on="0"/>
        <pt x="434" y="136" on="0"/>
        <pt x="433" y="126" on="0"/>
        <pt x="433" y="125" on="1"/>
        <pt x="433" y="93" on="0"/>
        <pt x="459" y="42" on="0"/>
        <pt x="488" y="42" on="1"/>
        <pt x="503" y="42" on="0"/>
        <pt x="539" y="53" on="0"/>
        <pt x="575" y="71" on="0"/>
        <pt x="609" y="94" on="0"/>
        <pt x="621" y="106" on="1"/>
        <pt x="597" y="63" on="0"/>
        <pt x="527" y="-8" on="0"/>
        <pt x="441" y="-59" on="0"/>
        <pt x="344" y="-87" on="0"/>
        <pt x="293" y="-87" on="1"/>
        <pt x="236" y="-87" on="0"/>
        <pt x="144" y="-52" on="0"/>
        <pt x="79" y="14" on="0"/>
        <pt x="45" y="110" on="0"/>
        <pt x="45" y="170" on="1"/>
        <pt x="45" y="250" on="0"/>
        <pt x="105" y="390" on="0"/>
        <pt x="209" y="493" on="0"/>
        <pt x="345" y="553" on="0"/>
        <pt x="422" y="553" on="1"/>
        <pt x="480" y="553" on="0"/>
        <pt x="573" y="517" on="0"/>
        <pt x="637" y="451" on="0"/>
        <pt x="671" y="357" on="0"/>
        <pt x="671" y="299" on="1"/>
        <pt x="671" y="273" on="0"/>
        <pt x="666" y="217" on="0"/>
        <pt x="650" y="166" on="0"/>
        <pt x="617" y="124" on="0"/>
        <pt x="589" y="111" on="1"/>
        <pt x="550" y="94" on="0"/>
        <pt x="523" y="94" on="1"/>
        <pt x="486" y="94" on="0"/>
        <pt x="486" y="147" on="1"/>
        <pt x="486" y="160" on="0"/>
        <pt x="496" y="208" on="0"/>
        <pt x="512" y="269" on="0"/>
        <pt x="531" y="341" on="0"/>
      </contour>
      <contour>
        <pt x="420" y="371" on="1"/>
        <pt x="467" y="371" on="0"/>
        <pt x="474" y="349" on="1"/>
        <pt x="468" y="310" on="0"/>
        <pt x="427" y="225" on="0"/>
        <pt x="373" y="153" on="0"/>
        <pt x="314" y="106" on="0"/>
        <pt x="289" y="106" on="1"/>
        <pt x="267" y="106" on="0"/>
        <pt x="245" y="142" on="0"/>
        <pt x="245" y="170" on="1"/>
        <pt x="245" y="209" on="0"/>
        <pt x="279" y="282" on="0"/>
        <pt x="332" y="337" on="0"/>
        <pt x="393" y="371" on="0"/>
      </contour>
    </TTGlyph>
    <TTGlyph name="atilde" xMin="21" yMin="-10" xMax="487" yMax="721">
      <component glyphName="a" x="0" y="0" flags="0x204"/>
      <component glyphName="tilde" x="-16" y="0" flags="0x4"/>
    </TTGlyph>
    <TTGlyph name="b" xMin="57" yMin="-10" xMax="543" yMax="750">
      <contour>
        <pt x="298" y="-10" on="1"/>
        <pt x="231" y="-10" on="0"/>
        <pt x="175" y="28" on="1"/>
        <pt x="173" y="0" on="1"/>
        <pt x="57" y="0" on="1"/>
        <pt x="57" y="750" on="1"/>
        <pt x="181" y="750" on="1"/>
        <pt x="181" y="475" on="1"/>
        <pt x="230" y="508" on="0"/>
        <pt x="298" y="508" on="1"/>
        <pt x="355" y="508" on="0"/>
        <pt x="446" y="468" on="0"/>
        <pt x="509" y="398" on="0"/>
        <pt x="543" y="303" on="0"/>
        <pt x="543" y="249" on="1"/>
        <pt x="543" y="195" on="0"/>
        <pt x="510" y="101" on="0"/>
        <pt x="448" y="30" on="0"/>
        <pt x="356" y="-10" on="0"/>
      </contour>
      <contour>
        <pt x="290" y="406" on="1"/>
        <pt x="232" y="406" on="0"/>
        <pt x="175" y="322" on="0"/>
        <pt x="175" y="249" on="1"/>
        <pt x="175" y="176" on="0"/>
        <pt x="232" y="92" on="0"/>
        <pt x="290" y="92" on="1"/>
        <pt x="350" y="92" on="0"/>
        <pt x="416" y="177" on="0"/>
        <pt x="416" y="249" on="1"/>
        <pt x="416" y="321" on="0"/>
        <pt x="350" y="406" on="0"/>
      </contour>
    </TTGlyph>
    <TTGlyph name="backslash" xMin="33" yMin="-85" xMax="532" yMax="700">
      <contour>
        <pt x="532" y="-85" on="1"/>
        <pt x="398" y="-85" on="1"/>
        <pt x="33" y="700" on="1"/>
        <pt x="167" y="700" on="1"/>
      </contour>
    </TTGlyph>
    <TTGlyph name="bar" xMin="67" yMin="-210" xMax="167" yMax="750">
      <contour>
        <pt x="167" y="-210" on="1"/>
        <pt x="67" y="-210" on="1"/>
        <pt x="67" y="750" on="1"/>
        <pt x="167" y="750" on="1"/>
      </contour>
    </TTGlyph>
    <TTGlyph name="braceleft" xMin="14" yMin="-136" xMax="307" yMax="750">
      <contour>
        <pt x="89" y="29" on="1"/>
        <pt x="89" y="36" on="0"/>
        <pt x="91" y="74" on="0"/>
        <pt x="94" y="117" on="0"/>
        <pt x="96" y="157" on="0"/>
        <pt x="96" y="166" on="1"/>
        <pt x="96" y="220" on="0"/>
        <pt x="61" y="283" on="0"/>
        <pt x="14" y="307" on="1"/>
        <pt x="37" y="319" on="0"/>
        <pt x="68" y="345" on="0"/>
        <pt x="88" y="378" on="0"/>
        <pt x="96" y="420" on="0"/>
        <pt x="96" y="449" on="1"/>
        <pt x="96" y="458" on="0"/>
        <pt x="94" y="498" on="0"/>
        <pt x="91" y="541" on="0"/>
        <pt x="89" y="579" on="0"/>
        <pt x="89" y="585" on="1"/>
        <pt x="89" y="668" on="0"/>
        <pt x="188" y="750" on="0"/>
        <pt x="307" y="750" on="1"/>
        <pt x="307" y="641" on="1"/>
        <pt x="287" y="641" on="1"/>
        <pt x="252" y="641" on="0"/>
        <pt x="213" y="629" on="0"/>
        <pt x="192" y="602" on="0"/>
        <pt x="187" y="559" on="0"/>
        <pt x="187" y="529" on="1"/>
        <pt x="187" y="518" on="0"/>
        <pt x="190" y="468" on="0"/>
        <pt x="190" y="418" on="1"/>
        <pt x="190" y="338" on="0"/>
        <pt x="139" y="307" on="1"/>
        <pt x="190" y="275" on="0"/>
        <pt x="190" y="204" on="1"/>
        <pt x="190" y="199" on="0"/>
        <pt x="189" y="175" on="0"/>
        <pt x="188" y="148" on="0"/>
        <pt x="187" y="122" on="0"/>
        <pt x="187" y="115" on="1"/>
        <pt x="187" y="60" on="1"/>
        <pt x="188" y="35" on="0"/>
        <pt x="197" y="1" on="0"/>
        <pt x="219" y="-19" on="0"/>
        <pt x="257" y="-28" on="0"/>
        <pt x="287" y="-28" on="1"/>
        <pt x="292" y="-28" on="0"/>
        <pt x="302" y="-27" on="0"/>
        <pt x="307" y="-27" on="1"/>
        <pt x="307" y="-136" on="1"/>
        <pt x="190" y="-136" on="0"/>
        <pt x="89" y="-56" on="0"/>
      </contour>
    </TTGlyph>
    <TTGlyph name="braceright" xMin="12" yMin="-136" xMax="305" yMax="750">
      <contour>
        <pt x="230" y="29" on="1"/>
        <pt x="230" y="-56" on="0"/>
        <pt x="129" y="-136" on="0"/>
        <pt x="12" y="-136" on="1"/>
        <pt x="12" y="-27" on="1"/>
        <pt x="17" y="-27" on="0"/>
        <pt x="27" y="-28" on="0"/>
        <pt x="32" y="-28" on="1"/>
        <pt x="72" y="-28" on="0"/>
        <pt x="113" y="-11" on="0"/>
        <pt x="131" y="24" on="0"/>
        <pt x="132" y="78" on="0"/>
        <pt x="132" y="115" on="1"/>
        <pt x="132" y="122" on="0"/>
        <pt x="131" y="148" on="0"/>
        <pt x="130" y="175" on="0"/>
        <pt x="129" y="199" on="0"/>
        <pt x="129" y="204" on="1"/>
        <pt x="129" y="275" on="0"/>
        <pt x="180" y="307" on="1"/>
        <pt x="129" y="338" on="0"/>
        <pt x="129" y="418" on="1"/>
        <pt x="129" y="424" on="0"/>
        <pt x="130" y="447" on="0"/>
        <pt x="131" y="472" on="0"/>
        <pt x="132" y="495" on="0"/>
        <pt x="132" y="500" on="1"/>
        <pt x="132" y="539" on="0"/>
        <pt x="130" y="593" on="0"/>
        <pt x="112" y="626" on="0"/>
        <pt x="71" y="641" on="0"/>
        <pt x="32" y="641" on="1"/>
        <pt x="12" y="641" on="1"/>
        <pt x="12" y="750" on="1"/>
        <pt x="131" y="750" on="0"/>
        <pt x="230" y="668" on="0"/>
        <pt x="230" y="585" on="1"/>
        <pt x="230" y="579" on="0"/>
        <pt x="228" y="542" on="0"/>
        <pt x="225" y="498" on="0"/>
        <pt x="223" y="458" on="0"/>
        <pt x="223" y="449" on="1"/>
        <pt x="223" y="420" on="0"/>
        <pt x="231" y="378" on="0"/>
        <pt x="251" y="345" on="0"/>
        <pt x="282" y="319" on="0"/>
        <pt x="305" y="307" on="1"/>
        <pt x="258" y="283" on="0"/>
        <pt x="223" y="220" on="0"/>
        <pt x="223" y="166" on="1"/>
        <pt x="223" y="157" on="0"/>
        <pt x="225" y="117" on="0"/>
        <pt x="228" y="73" on="0"/>
        <pt x="230" y="35" on="0"/>
      </contour>
    </TTGlyph>
    <TTGlyph name="bracketleft" xMin="67" yMin="-136" xMax="324" yMax="750">
      <contour>
        <pt x="324" y="-136" on="1"/>
        <pt x="67" y="-136" on="1"/>
        <pt x="67" y="750" on="1"/>
        <pt x="324" y="750" on="1"/>
        <pt x="324" y="641" on="1"/>
        <pt x="180" y="641" on="1"/>
        <pt x="180" y="-27" on="1"/>
        <pt x="324" y="-27" on="1"/>
      </contour>
    </TTGlyph>
    <TTGlyph name="bracketright" xMin="16" yMin="-136" xMax="273" yMax="750">
      <contour>
        <pt x="273" y="-136" on="1"/>
        <pt x="16" y="-136" on="1"/>
        <pt x="16" y="-12" on="1"/>
        <pt x="160" y="-12" on="1"/>
        <pt x="160" y="626" on="1"/>
        <pt x="16" y="626" on="1"/>
        <pt x="16" y="750" on="1"/>
        <pt x="273" y="750" on="1"/>
      </contour>
    </TTGlyph>
    <TTGlyph name="brokenbar" xMin="68" yMin="-210" xMax="156" yMax="750">
      <contour>
        <pt x="156" y="284" on="1"/>
        <pt x="68" y="284" on="1"/>
        <pt x="68" y="750" on="1"/>
        <pt x="156" y="750" on="1"/>
      </contour>
      <contour>
        <pt x="156" y="-210" on="1"/>
        <pt x="68" y="-210" on="1"/>
        <pt x="68" y="190" on="1"/>
        <pt x="156" y="190" on="1"/>
      </contour>
    </TTGlyph>
    <TTGlyph name="bullet" xMin="40" yMin="169" xMax="258" yMax="387">
      <contour>
        <pt x="226" y="201" on="1"/>
        <pt x="209" y="184" on="0"/>
        <pt x="170" y="169" on="0"/>
        <pt x="149" y="169" on="1"/>
        <pt x="127" y="169" on="0"/>
        <pt x="88" y="187" on="0"/>
        <pt x="58" y="217" on="0"/>
        <pt x="40" y="256" on="0"/>
        <pt x="40" y="278" on="1"/>
        <pt x="40" y="300" on="0"/>
        <pt x="58" y="339" on="0"/>
        <pt x="88" y="369" on="0"/>
        <pt x="127" y="387" on="0"/>
        <pt x="149" y="387" on="1"/>
        <pt x="171" y="387" on="0"/>
        <pt x="210" y="369" on="0"/>
        <pt x="240" y="339" on="0"/>
        <pt x="258" y="300" on="0"/>
        <pt x="258" y="278" on="1"/>
        <pt x="258" y="257" on="0"/>
        <pt x="242" y="217" on="0"/>
      </contour>
    </TTGlyph>
    <TTGlyph name="c" xMin="28" yMin="-10" xMax="421" yMax="508">
      <contour>
        <pt x="271" y="-10" on="1"/>
        <pt x="213" y="-10" on="0"/>
        <pt x="123" y="30" on="0"/>
        <pt x="61" y="99" on="0"/>
        <pt x="28" y="194" on="0"/>
        <pt x="28" y="249" on="1"/>
        <pt x="28" y="304" on="0"/>
        <pt x="61" y="398" on="0"/>
        <pt x="123" y="468" on="0"/>
        <pt x="213" y="508" on="0"/>
        <pt x="271" y="508" on="1"/>
        <pt x="363" y="508" on="0"/>
        <pt x="421" y="471" on="1"/>
        <pt x="410" y="365" on="1"/>
        <pt x="348" y="406" on="0"/>
        <pt x="281" y="406" on="1"/>
        <pt x="221" y="406" on="0"/>
        <pt x="155" y="321" on="0"/>
        <pt x="155" y="249" on="1"/>
        <pt x="155" y="177" on="0"/>
        <pt x="221" y="92" on="0"/>
        <pt x="281" y="92" on="1"/>
        <pt x="348" y="92" on="0"/>
        <pt x="410" y="133" on="1"/>
        <pt x="421" y="27" on="1"/>
        <pt x="363" y="-10" on="0"/>
      </contour>
    </TTGlyph>
    <TTGlyph name="caron" xMin="76" yMin="585" xMax="370" yMax="750">
      <contour>
        <pt x="370" y="676" on="1"/>
        <pt x="223" y="585" on="1"/>
        <pt x="76" y="676" on="1"/>
        <pt x="76" y="750" on="1"/>
        <pt x="223" y="679" on="1"/>
        <pt x="370" y="750" on="1"/>
      </contour>
    </TTGlyph>
    <TTGlyph name="ccaron" xMin="28" yMin="-10" xMax="421" yMax="750">
      <component glyphName="c" x="0" y="0" flags="0x204"/>
      <component glyphName="caron" x="46" y="0" flags="0x4"/>
    </TTGlyph>
    <TTGlyph name="ccedilla" xMin="28" yMin="-194" xMax="421" yMax="508">
      <component glyphName="c" x="0" y="0" flags="0x4"/>
      <component glyphName="cedilla" x="37" y="0" flags="0x4"/>
    </TTGlyph>
    <TTGlyph name="cedilla" xMin="129" yMin="-194" xMax="303" yMax="-52">
      <contour>
        <pt x="303" y="-52" on="1"/>
        <pt x="203" y="-185" on="1"/>
        <pt x="129" y="-194" on="1"/>
        <pt x="199" y="-61" on="1"/>
      </contour>
    </TTGlyph>
    <TTGlyph name="cent" xMin="34" yMin="-32" xMax="427" yMax="748">
      <contour>
        <pt x="324" y="-32" on="1"/>
        <pt x="217" y="-32" on="1"/>
        <pt x="233" y="91" on="1"/>
        <pt x="185" y="98" on="0"/>
        <pt x="110" y="143" on="0"/>
        <pt x="60" y="212" on="0"/>
        <pt x="34" y="299" on="0"/>
        <pt x="34" y="347" on="1"/>
        <pt x="34" y="396" on="0"/>
        <pt x="60" y="483" on="0"/>
        <pt x="111" y="552" on="0"/>
        <pt x="185" y="598" on="0"/>
        <pt x="233" y="605" on="1"/>
        <pt x="217" y="748" on="1"/>
        <pt x="324" y="748" on="1"/>
        <pt x="308" y="606" on="1"/>
        <pt x="352" y="604" on="0"/>
        <pt x="405" y="583" on="0"/>
        <pt x="427" y="570" on="1"/>
        <pt x="416" y="464" on="1"/>
        <pt x="354" y="505" on="0"/>
        <pt x="292" y="505" on="1"/>
        <pt x="226" y="505" on="0"/>
        <pt x="161" y="418" on="0"/>
        <pt x="161" y="348" on="1"/>
        <pt x="161" y="278" on="0"/>
        <pt x="226" y="191" on="0"/>
        <pt x="292" y="191" on="1"/>
        <pt x="354" y="191" on="0"/>
        <pt x="416" y="232" on="1"/>
        <pt x="427" y="126" on="1"/>
        <pt x="406" y="112" on="0"/>
        <pt x="353" y="92" on="0"/>
        <pt x="308" y="89" on="1"/>
      </contour>
    </TTGlyph>
    <TTGlyph name="circumflex" xMin="76" yMin="585" xMax="370" yMax="750">
      <contour>
        <pt x="370" y="585" on="1"/>
        <pt x="223" y="656" on="1"/>
        <pt x="76" y="585" on="1"/>
        <pt x="76" y="659" on="1"/>
        <pt x="223" y="750" on="1"/>
        <pt x="370" y="659" on="1"/>
      </contour>
    </TTGlyph>
    <TTGlyph name="colon" xMin="54" yMin="0" xMax="178" yMax="440">
      <contour>
        <pt x="178" y="310" on="1"/>
        <pt x="54" y="310" on="1"/>
        <pt x="54" y="440" on="1"/>
        <pt x="178" y="440" on="1"/>
      </contour>
      <contour>
        <pt x="178" y="0" on="1"/>
        <pt x="54" y="0" on="1"/>
        <pt x="54" y="130" on="1"/>
        <pt x="178" y="130" on="1"/>
      </contour>
    </TTGlyph>
    <TTGlyph name="comma" xMin="54" yMin="-110" xMax="178" yMax="130">
      <contour>
        <pt x="178" y="0" on="1"/>
        <pt x="80" y="-110" on="1"/>
        <pt x="54" y="-96" on="1"/>
        <pt x="87" y="-10" on="1"/>
        <pt x="54" y="0" on="1"/>
        <pt x="54" y="130" on="1"/>
        <pt x="178" y="130" on="1"/>
      </contour>
    </TTGlyph>
    <TTGlyph name="copyright" xMin="40" yMin="37" xMax="661" yMax="693">
      <contour>
        <pt x="40" y="365" on="1"/>
        <pt x="40" y="439" on="0"/>
        <pt x="87" y="560" on="0"/>
        <pt x="170" y="646" on="0"/>
        <pt x="284" y="693" on="0"/>
        <pt x="351" y="693" on="1"/>
        <pt x="418" y="693" on="0"/>
        <pt x="532" y="645" on="0"/>
        <pt x="615" y="559" on="0"/>
        <pt x="661" y="438" on="0"/>
        <pt x="661" y="365" on="1"/>
        <pt x="661" y="292" on="0"/>
        <pt x="615" y="172" on="0"/>
        <pt x="533" y="85" on="0"/>
        <pt x="419" y="37" on="0"/>
        <pt x="351" y="37" on="1"/>
        <pt x="283" y="37" on="0"/>
        <pt x="169" y="85" on="0"/>
        <pt x="86" y="172" on="0"/>
        <pt x="40" y="292" on="0"/>
      </contour>
      <contour>
        <pt x="351" y="623" on="1"/>
        <pt x="294" y="623" on="0"/>
        <pt x="206" y="585" on="0"/>
        <pt x="147" y="517" on="0"/>
        <pt x="117" y="422" on="0"/>
        <pt x="117" y="365" on="1"/>
        <pt x="117" y="308" on="0"/>
        <pt x="147" y="213" on="0"/>
        <pt x="205" y="144" on="0"/>
        <pt x="293" y="106" on="0"/>
        <pt x="351" y="106" on="1"/>
        <pt x="408" y="106" on="0"/>
        <pt x="496" y="144" on="0"/>
        <pt x="554" y="213" on="0"/>
        <pt x="584" y="308" on="0"/>
        <pt x="584" y="365" on="1"/>
        <pt x="584" y="422" on="0"/>
        <pt x="554" y="517" on="0"/>
        <pt x="495" y="585" on="0"/>
        <pt x="408" y="623" on="0"/>
      </contour>
      <contour>
        <pt x="359" y="190" on="1"/>
        <pt x="323" y="190" on="0"/>
        <pt x="263" y="215" on="0"/>
        <pt x="219" y="261" on="0"/>
        <pt x="195" y="325" on="0"/>
        <pt x="195" y="363" on="1"/>
        <pt x="195" y="402" on="0"/>
        <pt x="219" y="466" on="0"/>
        <pt x="262" y="512" on="0"/>
        <pt x="323" y="537" on="0"/>
        <pt x="359" y="537" on="1"/>
        <pt x="410" y="537" on="0"/>
        <pt x="461" y="514" on="1"/>
        <pt x="451" y="429" on="1"/>
        <pt x="394" y="452" on="0"/>
        <pt x="359" y="452" on="1"/>
        <pt x="324" y="452" on="0"/>
        <pt x="286" y="405" on="0"/>
        <pt x="286" y="363" on="1"/>
        <pt x="286" y="321" on="0"/>
        <pt x="324" y="274" on="0"/>
        <pt x="359" y="274" on="1"/>
        <pt x="400" y="274" on="0"/>
        <pt x="451" y="299" on="1"/>
        <pt x="461" y="215" on="1"/>
        <pt x="418" y="190" on="0"/>
      </contour>
    </TTGlyph>
    <TTGlyph name="currency" xMin="55" yMin="19" xMax="574" yMax="677">
      <contour>
        <pt x="574" y="69" on="1"/>
        <pt x="514" y="19" on="1"/>
        <pt x="439" y="118" on="1"/>
        <pt x="386" y="89" on="0"/>
        <pt x="314" y="89" on="1"/>
        <pt x="242" y="89" on="0"/>
        <pt x="189" y="118" on="1"/>
        <pt x="115" y="19" on="1"/>
        <pt x="55" y="69" on="1"/>
        <pt x="127" y="166" on="1"/>
        <pt x="61" y="238" on="0"/>
        <pt x="61" y="348" on="1"/>
        <pt x="61" y="459" on="0"/>
        <pt x="128" y="530" on="1"/>
        <pt x="55" y="627" on="1"/>
        <pt x="115" y="677" on="1"/>
        <pt x="189" y="578" on="1"/>
        <pt x="245" y="607" on="0"/>
        <pt x="314" y="607" on="1"/>
        <pt x="383" y="607" on="0"/>
        <pt x="439" y="577" on="1"/>
        <pt x="514" y="677" on="1"/>
        <pt x="574" y="627" on="1"/>
        <pt x="501" y="529" on="1"/>
        <pt x="567" y="457" on="0"/>
        <pt x="567" y="348" on="1"/>
        <pt x="567" y="239" on="0"/>
        <pt x="500" y="166" on="1"/>
      </contour>
      <contour>
        <pt x="406" y="462" on="1"/>
        <pt x="373" y="505" on="0"/>
        <pt x="314" y="505" on="1"/>
        <pt x="254" y="505" on="0"/>
        <pt x="188" y="419" on="0"/>
        <pt x="188" y="348" on="1"/>
        <pt x="188" y="277" on="0"/>
        <pt x="254" y="191" on="0"/>
        <pt x="314" y="191" on="1"/>
        <pt x="374" y="191" on="0"/>
        <pt x="440" y="279" on="0"/>
        <pt x="440" y="348" on="1"/>
        <pt x="440" y="419" on="0"/>
      </contour>
    </TTGlyph>
    <TTGlyph name="d" xMin="28" yMin="-10" xMax="514" yMax="750">
      <contour>
        <pt x="514" y="0" on="1"/>
        <pt x="397" y="0" on="1"/>
        <pt x="395" y="28" on="1"/>
        <pt x="339" y="-10" on="0"/>
        <pt x="273" y="-10" on="1"/>
        <pt x="214" y="-10" on="0"/>
        <pt x="123" y="30" on="0"/>
        <pt x="61" y="101" on="0"/>
        <pt x="28" y="195" on="0"/>
        <pt x="28" y="249" on="1"/>
        <pt x="28" y="303" on="0"/>
        <pt x="62" y="398" on="0"/>
        <pt x="125" y="468" on="0"/>
        <pt x="216" y="508" on="0"/>
        <pt x="273" y="508" on="1"/>
        <pt x="340" y="508" on="0"/>
        <pt x="390" y="475" on="1"/>
        <pt x="390" y="750" on="1"/>
        <pt x="514" y="750" on="1"/>
      </contour>
      <contour>
        <pt x="281" y="406" on="1"/>
        <pt x="221" y="406" on="0"/>
        <pt x="155" y="321" on="0"/>
        <pt x="155" y="249" on="1"/>
        <pt x="155" y="177" on="0"/>
        <pt x="221" y="92" on="0"/>
        <pt x="281" y="92" on="1"/>
        <pt x="339" y="92" on="0"/>
        <pt x="396" y="176" on="0"/>
        <pt x="396" y="249" on="1"/>
        <pt x="396" y="322" on="0"/>
        <pt x="339" y="406" on="0"/>
      </contour>
    </TTGlyph>
    <TTGlyph name="dagger" xMin="36" yMin="0" xMax="390" yMax="607">
      <contour>
        <pt x="390" y="349" on="1"/>
        <pt x="259" y="375" on="1"/>
        <pt x="288" y="257" on="1"/>
        <pt x="258" y="0" on="1"/>
        <pt x="168" y="0" on="1"/>
        <pt x="138" y="257" on="1"/>
        <pt x="167" y="375" on="1"/>
        <pt x="36" y="349" on="1"/>
        <pt x="36" y="481" on="1"/>
        <pt x="167" y="454" on="1"/>
        <pt x="138" y="607" on="1"/>
        <pt x="288" y="607" on="1"/>
        <pt x="259" y="454" on="1"/>
        <pt x="390" y="481" on="1"/>
      </contour>
    </TTGlyph>
    <TTGlyph name="daggerdbl" xMin="59" yMin="-59" xMax="413" yMax="607">
      <contour>
        <pt x="413" y="67" on="1"/>
        <pt x="282" y="94" on="1"/>
        <pt x="311" y="-59" on="1"/>
        <pt x="161" y="-59" on="1"/>
        <pt x="190" y="94" on="1"/>
        <pt x="59" y="67" on="1"/>
        <pt x="59" y="199" on="1"/>
        <pt x="190" y="173" on="1"/>
        <pt x="161" y="274" on="1"/>
        <pt x="190" y="375" on="1"/>
        <pt x="59" y="349" on="1"/>
        <pt x="59" y="481" on="1"/>
        <pt x="190" y="454" on="1"/>
        <pt x="161" y="607" on="1"/>
        <pt x="311" y="607" on="1"/>
        <pt x="282" y="454" on="1"/>
        <pt x="413" y="481" on="1"/>
        <pt x="413" y="349" on="1"/>
        <pt x="282" y="375" on="1"/>
        <pt x="311" y="274" on="1"/>
        <pt x="282" y="173" on="1"/>
        <pt x="413" y="199" on="1"/>
      </contour>
    </TTGlyph>
    <TTGlyph name="degree" xMin="30" yMin="482" xMax="295" yMax="755">
      <contour>
        <pt x="162" y="482" on="1"/>
        <pt x="132" y="482" on="0"/>
        <pt x="83" y="503" on="0"/>
        <pt x="49" y="539" on="0"/>
        <pt x="30" y="589" on="0"/>
        <pt x="30" y="618" on="1"/>
        <pt x="30" y="647" on="0"/>
        <pt x="49" y="697" on="0"/>
        <pt x="83" y="734" on="0"/>
        <pt x="132" y="755" on="0"/>
        <pt x="162" y="755" on="1"/>
        <pt x="192" y="755" on="0"/>
        <pt x="242" y="734" on="0"/>
        <pt x="276" y="697" on="0"/>
        <pt x="295" y="647" on="0"/>
        <pt x="295" y="618" on="1"/>
        <pt x="295" y="589" on="0"/>
        <pt x="276" y="539" on="0"/>
        <pt x="242" y="503" on="0"/>
        <pt x="192" y="482" on="0"/>
      </contour>
      <contour>
        <pt x="162" y="704" on="1"/>
        <pt x="132" y="704" on="0"/>
        <pt x="98" y="657" on="0"/>
        <pt x="98" y="618" on="1"/>
        <pt x="98" y="579" on="0"/>
        <pt x="132" y="533" on="0"/>
        <pt x="162" y="533" on="1"/>
        <pt x="193" y="533" on="0"/>
        <pt x="227" y="579" on="0"/>
        <pt x="227" y="618" on="1"/>
        <pt x="227" y="657" on="0"/>
        <pt x="193" y="704" on="0"/>
      </contour>
    </TTGlyph>
    <TTGlyph name="dieresis" xMin="87" yMin="594" xMax="335" yMax="700">
      <contour>
        <pt x="335" y="594" on="1"/>
        <pt x="238" y="594" on="1"/>
        <pt x="238" y="700" on="1"/>
        <pt x="335" y="700" on="1"/>
      </contour>
      <contour>
        <pt x="184" y="594" on="1"/>
        <pt x="87" y="594" on="1"/>
        <pt x="87" y="700" on="1"/>
        <pt x="184" y="700" on="1"/>
      </contour>
    </TTGlyph>
    <TTGlyph name="divide" xMin="50" yMin="20" xMax="510" yMax="534">
      <contour>
        <pt x="338" y="404" on="1"/>
        <pt x="214" y="404" on="1"/>
        <pt x="214" y="534" on="1"/>
        <pt x="338" y="534" on="1"/>
      </contour>
      <contour>
        <pt x="510" y="230" on="1"/>
        <pt x="50" y="230" on="1"/>
        <pt x="50" y="324" on="1"/>
        <pt x="510" y="324" on="1"/>
      </contour>
      <contour>
        <pt x="338" y="20" on="1"/>
        <pt x="214" y="20" on="1"/>
        <pt x="214" y="150" on="1"/>
        <pt x="338" y="150" on="1"/>
      </contour>
    </TTGlyph>
    <TTGlyph name="dollar" xMin="40" yMin="-32" xMax="489" yMax="748">
      <contour>
        <pt x="298" y="80" on="1"/>
        <pt x="314" y="-32" on="1"/>
        <pt x="207" y="-32" on="1"/>
        <pt x="223" y="79" on="1"/>
        <pt x="104" y="85" on="0"/>
        <pt x="48" y="119" on="1"/>
        <pt x="65" y="246" on="1"/>
        <pt x="132" y="183" on="0"/>
        <pt x="253" y="183" on="1"/>
        <pt x="355" y="183" on="0"/>
        <pt x="355" y="236" on="1"/>
        <pt x="355" y="262" on="0"/>
        <pt x="308" y="293" on="0"/>
        <pt x="238" y="318" on="0"/>
        <pt x="157" y="342" on="0"/>
        <pt x="87" y="377" on="0"/>
        <pt x="40" y="431" on="0"/>
        <pt x="40" y="473" on="1"/>
        <pt x="40" y="501" on="0"/>
        <pt x="61" y="555" on="0"/>
        <pt x="106" y="599" on="0"/>
        <pt x="175" y="628" on="0"/>
        <pt x="223" y="633" on="1"/>
        <pt x="207" y="748" on="1"/>
        <pt x="314" y="748" on="1"/>
        <pt x="298" y="633" on="1"/>
        <pt x="345" y="630" on="0"/>
        <pt x="434" y="607" on="0"/>
        <pt x="457" y="594" on="1"/>
        <pt x="446" y="481" on="1"/>
        <pt x="346" y="533" on="0"/>
        <pt x="274" y="533" on="1"/>
        <pt x="162" y="533" on="0"/>
        <pt x="162" y="485" on="1"/>
        <pt x="162" y="461" on="0"/>
        <pt x="210" y="433" on="0"/>
        <pt x="283" y="411" on="0"/>
        <pt x="368" y="389" on="0"/>
        <pt x="441" y="350" on="0"/>
        <pt x="489" y="287" on="0"/>
        <pt x="489" y="237" on="1"/>
        <pt x="489" y="213" on="0"/>
        <pt x="473" y="162" on="0"/>
        <pt x="430" y="118" on="0"/>
        <pt x="356" y="85" on="0"/>
      </contour>
    </TTGlyph>
    <TTGlyph name="dotlessi" xMin="58" yMin="0" xMax="182" yMax="500">
      <contour>
        <pt x="182" y="0" on="1"/>
        <pt x="58" y="0" on="1"/>
        <pt x="58" y="500" on="1"/>
        <pt x="182" y="500" on="1"/>
      </contour>
    </TTGlyph>
    <TTGlyph name="e" xMin="28" yMin="-10" xMax="488" yMax="508">
      <contour>
        <pt x="480" y="223" on="1"/>
        <pt x="157" y="223" on="1"/>
        <pt x="167" y="158" on="0"/>
        <pt x="252" y="92" on="0"/>
        <pt x="306" y="92" on="1"/>
        <pt x="323" y="92" on="0"/>
        <pt x="363" y="98" on="0"/>
        <pt x="404" y="109" on="0"/>
        <pt x="444" y="124" on="0"/>
        <pt x="460" y="133" on="1"/>
        <pt x="466" y="28" on="1"/>
        <pt x="393" y="-10" on="0"/>
        <pt x="299" y="-10" on="1"/>
        <pt x="233" y="-10" on="0"/>
        <pt x="132" y="30" on="0"/>
        <pt x="63" y="99" on="0"/>
        <pt x="28" y="194" on="0"/>
        <pt x="28" y="249" on="1"/>
        <pt x="28" y="303" on="0"/>
        <pt x="61" y="397" on="0"/>
        <pt x="123" y="468" on="0"/>
        <pt x="212" y="508" on="0"/>
        <pt x="268" y="508" on="1"/>
        <pt x="315" y="508" on="0"/>
        <pt x="396" y="477" on="0"/>
        <pt x="455" y="420" on="0"/>
        <pt x="488" y="340" on="0"/>
        <pt x="488" y="291" on="1"/>
        <pt x="488" y="263" on="0"/>
      </contour>
      <contour>
        <pt x="160" y="307" on="1"/>
        <pt x="362" y="307" on="1"/>
        <pt x="362" y="346" on="0"/>
        <pt x="318" y="406" on="0"/>
        <pt x="272" y="406" on="1"/>
        <pt x="226" y="406" on="0"/>
        <pt x="170" y="352" on="0"/>
      </contour>
    </TTGlyph>
    <TTGlyph name="eacute" xMin="28" yMin="-10" xMax="488" yMax="750">
      <component glyphName="e" x="0" y="0" flags="0x204"/>
      <component glyphName="acute" x="105" y="0" flags="0x4"/>
    </TTGlyph>
    <TTGlyph name="ecircumflex" xMin="28" yMin="-10" xMax="488" yMax="750">
      <component glyphName="e" x="0" y="0" flags="0x204"/>
      <component glyphName="circumflex" x="34" y="0" flags="0x4"/>
    </TTGlyph>
    <TTGlyph name="edieresis" xMin="28" yMin="-10" xMax="488" yMax="700">
      <component glyphName="e" x="0" y="0" flags="0x204"/>
      <component glyphName="dieresis" x="46" y="0" flags="0x4"/>
    </TTGlyph>
    <TTGlyph name="egrave" xMin="28" yMin="-10" xMax="488" yMax="750">
      <component glyphName="e" x="0" y="0" flags="0x204"/>
      <component glyphName="grave" x="105" y="0" flags="0x4"/>
    </TTGlyph>
    <TTGlyph name="eight" xMin="56" yMin="-14" xMax="546" yMax="714">
      <contour>
        <pt x="291" y="-14" on="1"/>
        <pt x="233" y="-14" on="0"/>
        <pt x="145" y="18" on="0"/>
        <pt x="86" y="72" on="0"/>
        <pt x="56" y="144" on="0"/>
        <pt x="56" y="185" on="1"/>
        <pt x="56" y="297" on="0"/>
        <pt x="164" y="377" on="1"/>
        <pt x="95" y="432" on="0"/>
        <pt x="95" y="537" on="1"/>
        <pt x="95" y="575" on="0"/>
        <pt x="118" y="640" on="0"/>
        <pt x="169" y="687" on="0"/>
        <pt x="249" y="714" on="0"/>
        <pt x="305" y="714" on="1"/>
        <pt x="358" y="714" on="0"/>
        <pt x="435" y="690" on="0"/>
        <pt x="484" y="647" on="0"/>
        <pt x="508" y="588" on="0"/>
        <pt x="508" y="552" on="1"/>
        <pt x="508" y="458" on="0"/>
        <pt x="422" y="386" on="1"/>
        <pt x="479" y="360" on="0"/>
        <pt x="546" y="264" on="0"/>
        <pt x="546" y="204" on="1"/>
        <pt x="546" y="163" on="0"/>
        <pt x="514" y="85" on="0"/>
        <pt x="450" y="23" on="0"/>
        <pt x="354" y="-14" on="0"/>
      </contour>
      <contour>
        <pt x="300" y="614" on="1"/>
        <pt x="251" y="614" on="0"/>
        <pt x="207" y="565" on="0"/>
        <pt x="207" y="525" on="1"/>
        <pt x="207" y="449" on="0"/>
        <pt x="295" y="425" on="1"/>
        <pt x="390" y="451" on="0"/>
        <pt x="390" y="530" on="1"/>
        <pt x="390" y="567" on="0"/>
        <pt x="348" y="614" on="0"/>
      </contour>
      <contour>
        <pt x="304" y="332" on="1"/>
        <pt x="278" y="328" on="0"/>
        <pt x="233" y="305" on="0"/>
        <pt x="198" y="270" on="0"/>
        <pt x="178" y="223" on="0"/>
        <pt x="178" y="195" on="1"/>
        <pt x="178" y="144" on="0"/>
        <pt x="241" y="88" on="0"/>
        <pt x="296" y="88" on="1"/>
        <pt x="354" y="88" on="0"/>
        <pt x="420" y="149" on="0"/>
        <pt x="420" y="200" on="1"/>
        <pt x="420" y="254" on="0"/>
        <pt x="355" y="321" on="0"/>
      </contour>
    </TTGlyph>
    <TTGlyph name="ellipsis" xMin="54" yMin="0" xMax="650" yMax="130">
      <contour>
        <pt x="178" y="0" on="1"/>
        <pt x="54" y="0" on="1"/>
        <pt x="54" y="130" on="1"/>
        <pt x="178" y="130" on="1"/>
      </contour>
      <contour>
        <pt x="414" y="0" on="1"/>
        <pt x="290" y="0" on="1"/>
        <pt x="290" y="130" on="1"/>
        <pt x="414" y="130" on="1"/>
      </contour>
      <contour>
        <pt x="650" y="0" on="1"/>
        <pt x="526" y="0" on="1"/>
        <pt x="526" y="130" on="1"/>
        <pt x="650" y="130" on="1"/>
      </contour>
    </TTGlyph>
    <TTGlyph name="emdash" xMin="54" yMin="230" xMax="534" yMax="324">
      <contour>
        <pt x="534" y="230" on="1"/>
        <pt x="54" y="230" on="1"/>
        <pt x="54" y="324" on="1"/>
        <pt x="534" y="324" on="1"/>
      </contour>
    </TTGlyph>
    <TTGlyph name="endash" xMin="54" yMin="230" xMax="442" yMax="324">
      <contour>
        <pt x="442" y="230" on="1"/>
        <pt x="54" y="230" on="1"/>
        <pt x="54" y="324" on="1"/>
        <pt x="442" y="324" on="1"/>
      </contour>
    </TTGlyph>
    <TTGlyph name="equal" xMin="62" yMin="150" xMax="432" yMax="404">
      <contour>
        <pt x="432" y="310" on="1"/>
        <pt x="62" y="310" on="1"/>
        <pt x="62" y="404" on="1"/>
        <pt x="432" y="404" on="1"/>
      </contour>
      <contour>
        <pt x="432" y="150" on="1"/>
        <pt x="62" y="150" on="1"/>
        <pt x="62" y="244" on="1"/>
        <pt x="432" y="244" on="1"/>
      </contour>
    </TTGlyph>
    <TTGlyph name="eth" xMin="16" yMin="-13" xMax="472" yMax="711">
      <contour>
        <pt x="242" y="-13" on="1"/>
        <pt x="193" y="-13" on="0"/>
        <pt x="110" y="19" on="0"/>
        <pt x="50" y="77" on="0"/>
        <pt x="16" y="157" on="0"/>
        <pt x="16" y="205" on="1"/>
        <pt x="16" y="248" on="0"/>
        <pt x="45" y="328" on="0"/>
        <pt x="99" y="390" on="0"/>
        <pt x="178" y="426" on="0"/>
        <pt x="228" y="426" on="1"/>
        <pt x="295" y="426" on="0"/>
        <pt x="345" y="387" on="1"/>
        <pt x="343" y="402" on="0"/>
        <pt x="329" y="448" on="0"/>
        <pt x="310" y="493" on="0"/>
        <pt x="288" y="530" on="0"/>
        <pt x="277" y="538" on="1"/>
        <pt x="211" y="489" on="0"/>
        <pt x="140" y="481" on="1"/>
        <pt x="101" y="554" on="1"/>
        <pt x="153" y="554" on="0"/>
        <pt x="221" y="598" on="1"/>
        <pt x="164" y="646" on="0"/>
        <pt x="103" y="648" on="1"/>
        <pt x="144" y="701" on="1"/>
        <pt x="217" y="700" on="0"/>
        <pt x="289" y="649" on="1"/>
        <pt x="326" y="683" on="0"/>
        <pt x="345" y="711" on="1"/>
        <pt x="412" y="695" on="1"/>
        <pt x="374" y="635" on="0"/>
        <pt x="343" y="601" on="1"/>
        <pt x="403" y="538" on="0"/>
        <pt x="472" y="360" on="0"/>
        <pt x="472" y="258" on="1"/>
        <pt x="472" y="181" on="0"/>
        <pt x="431" y="77" on="0"/>
        <pt x="365" y="14" on="0"/>
        <pt x="283" y="-13" on="0"/>
      </contour>
      <contour>
        <pt x="241" y="329" on="1"/>
        <pt x="215" y="329" on="0"/>
        <pt x="176" y="311" on="0"/>
        <pt x="148" y="280" on="0"/>
        <pt x="134" y="241" on="0"/>
        <pt x="134" y="220" on="1"/>
        <pt x="134" y="193" on="0"/>
        <pt x="148" y="145" on="0"/>
        <pt x="176" y="109" on="0"/>
        <pt x="217" y="88" on="0"/>
        <pt x="244" y="88" on="1"/>
        <pt x="289" y="88" on="0"/>
        <pt x="352" y="147" on="0"/>
        <pt x="352" y="207" on="1"/>
        <pt x="352" y="265" on="0"/>
        <pt x="295" y="329" on="0"/>
      </contour>
    </TTGlyph>
    <TTGlyph name="exclam" xMin="63" yMin="0" xMax="187" yMax="750">
      <contour>
        <pt x="187" y="750" on="1"/>
        <pt x="167" y="200" on="1"/>
        <pt x="83" y="200" on="1"/>
        <pt x="63" y="750" on="1"/>
      </contour>
      <contour>
        <pt x="187" y="0" on="1"/>
        <pt x="63" y="0" on="1"/>
        <pt x="63" y="124" on="1"/>
        <pt x="187" y="124" on="1"/>
      </contour>
    </TTGlyph>
    <TTGlyph name="exclamdown" xMin="53" yMin="-250" xMax="177" yMax="500">
      <contour>
        <pt x="53" y="-250" on="1"/>
        <pt x="73" y="300" on="1"/>
        <pt x="157" y="300" on="1"/>
        <pt x="177" y="-250" on="1"/>
      </contour>
      <contour>
        <pt x="53" y="500" on="1"/>
        <pt x="177" y="500" on="1"/>
        <pt x="177" y="376" on="1"/>
        <pt x="53" y="376" on="1"/>
      </contour>
    </TTGlyph>
    <TTGlyph name="f" xMin="17" yMin="0" xMax="322" yMax="750">
      <contour>
        <pt x="322" y="398" on="1"/>
        <pt x="212" y="398" on="1"/>
        <pt x="212" y="0" on="1"/>
        <pt x="88" y="0" on="1"/>
        <pt x="88" y="398" on="1"/>
        <pt x="17" y="398" on="1"/>
        <pt x="28" y="500" on="1"/>
        <pt x="88" y="500" on="1"/>
        <pt x="88" y="619" on="1"/>
        <pt x="88" y="645" on="0"/>
        <pt x="104" y="693" on="0"/>
        <pt x="134" y="729" on="0"/>
        <pt x="179" y="750" on="0"/>
        <pt x="208" y="750" on="1"/>
        <pt x="255" y="750" on="0"/>
        <pt x="321" y="744" on="1"/>
        <pt x="310" y="641" on="1"/>
        <pt x="299" y="643" on="0"/>
        <pt x="273" y="646" on="0"/>
        <pt x="257" y="646" on="1"/>
        <pt x="230" y="646" on="0"/>
        <pt x="212" y="614" on="0"/>
        <pt x="212" y="568" on="1"/>
        <pt x="212" y="500" on="1"/>
        <pt x="322" y="500" on="1"/>
      </contour>
    </TTGlyph>
    <TTGlyph name="five" xMin="49" yMin="-13" xMax="487" yMax="700">
      <contour>
        <pt x="232" y="-13" on="1"/>
        <pt x="203" y="-13" on="0"/>
        <pt x="140" y="-1" on="0"/>
        <pt x="86" y="16" on="0"/>
        <pt x="50" y="35" on="0"/>
        <pt x="49" y="43" on="1"/>
        <pt x="79" y="159" on="1"/>
        <pt x="137" y="107" on="0"/>
        <pt x="228" y="107" on="1"/>
        <pt x="286" y="107" on="0"/>
        <pt x="363" y="164" on="0"/>
        <pt x="363" y="226" on="1"/>
        <pt x="363" y="250" on="0"/>
        <pt x="348" y="290" on="0"/>
        <pt x="309" y="317" on="0"/>
        <pt x="243" y="332" on="0"/>
        <pt x="192" y="332" on="1"/>
        <pt x="85" y="332" on="1"/>
        <pt x="129" y="700" on="1"/>
        <pt x="450" y="700" on="1"/>
        <pt x="437" y="576" on="1"/>
        <pt x="225" y="576" on="1"/>
        <pt x="208" y="439" on="1"/>
        <pt x="354" y="437" on="0"/>
        <pt x="487" y="338" on="0"/>
        <pt x="487" y="231" on="1"/>
        <pt x="487" y="173" on="0"/>
        <pt x="446" y="82" on="0"/>
        <pt x="376" y="20" on="0"/>
        <pt x="284" y="-13" on="0"/>
      </contour>
    </TTGlyph>
    <TTGlyph name="florin" xMin="-35" yMin="-242" xMax="378" yMax="714">
      <contour>
        <pt x="378" y="702" on="1"/>
        <pt x="367" y="608" on="1"/>
        <pt x="338" y="615" on="0"/>
        <pt x="319" y="615" on="1"/>
        <pt x="298" y="615" on="0"/>
        <pt x="268" y="604" on="0"/>
        <pt x="247" y="577" on="0"/>
        <pt x="234" y="533" on="0"/>
        <pt x="228" y="500" on="1"/>
        <pt x="355" y="500" on="1"/>
        <pt x="347" y="418" on="1"/>
        <pt x="215" y="418" on="1"/>
        <pt x="137" y="-81" on="1"/>
        <pt x="131" y="-122" on="0"/>
        <pt x="104" y="-183" on="0"/>
        <pt x="70" y="-223" on="0"/>
        <pt x="32" y="-242" on="0"/>
        <pt x="16" y="-242" on="1"/>
        <pt x="-15" y="-242" on="1"/>
        <pt x="-35" y="-140" on="1"/>
        <pt x="-20" y="-140" on="0"/>
        <pt x="3" y="-133" on="0"/>
        <pt x="19" y="-115" on="0"/>
        <pt x="30" y="-84" on="0"/>
        <pt x="34" y="-60" on="1"/>
        <pt x="104" y="418" on="1"/>
        <pt x="26" y="418" on="1"/>
        <pt x="35" y="500" on="1"/>
        <pt x="116" y="500" on="1"/>
        <pt x="122" y="539" on="1"/>
        <pt x="135" y="620" on="0"/>
        <pt x="236" y="714" on="0"/>
        <pt x="308" y="714" on="1"/>
        <pt x="342" y="714" on="0"/>
      </contour>
    </TTGlyph>
    <TTGlyph name="four" xMin="10" yMin="0" xMax="524" yMax="700">
      <contour>
        <pt x="524" y="190" on="1"/>
        <pt x="439" y="190" on="1"/>
        <pt x="439" y="0" on="1"/>
        <pt x="311" y="0" on="1"/>
        <pt x="311" y="190" on="1"/>
        <pt x="10" y="190" on="1"/>
        <pt x="332" y="700" on="1"/>
        <pt x="439" y="700" on="1"/>
        <pt x="439" y="294" on="1"/>
        <pt x="524" y="294" on="1"/>
      </contour>
      <contour>
        <pt x="311" y="294" on="1"/>
        <pt x="311" y="504" on="1"/>
        <pt x="184" y="294" on="1"/>
      </contour>
    </TTGlyph>
    <TTGlyph name="g" xMin="24" yMin="-250" xMax="499" yMax="508">
      <contour>
        <pt x="260" y="-250" on="1"/>
        <pt x="202" y="-250" on="0"/>
        <pt x="114" y="-226" on="0"/>
        <pt x="54" y="-186" on="0"/>
        <pt x="24" y="-132" on="0"/>
        <pt x="24" y="-102" on="1"/>
        <pt x="24" y="-33" on="0"/>
        <pt x="106" y="10" on="1"/>
        <pt x="61" y="38" on="0"/>
        <pt x="61" y="82" on="1"/>
        <pt x="61" y="126" on="0"/>
        <pt x="111" y="150" on="1"/>
        <pt x="34" y="206" on="0"/>
        <pt x="34" y="311" on="1"/>
        <pt x="34" y="353" on="0"/>
        <pt x="62" y="425" on="0"/>
        <pt x="115" y="478" on="0"/>
        <pt x="190" y="508" on="0"/>
        <pt x="237" y="508" on="1"/>
        <pt x="304" y="508" on="0"/>
        <pt x="351" y="478" on="1"/>
        <pt x="391" y="500" on="0"/>
        <pt x="458" y="500" on="1"/>
        <pt x="490" y="500" on="1"/>
        <pt x="482" y="422" on="1"/>
        <pt x="437" y="422" on="1"/>
        <pt x="429" y="422" on="0"/>
        <pt x="414" y="422" on="0"/>
        <pt x="409" y="421" on="1"/>
        <pt x="439" y="374" on="0"/>
        <pt x="439" y="311" on="1"/>
        <pt x="439" y="270" on="0"/>
        <pt x="412" y="198" on="0"/>
        <pt x="361" y="145" on="0"/>
        <pt x="285" y="114" on="0"/>
        <pt x="237" y="114" on="1"/>
        <pt x="224" y="114" on="0"/>
        <pt x="198" y="117" on="0"/>
        <pt x="184" y="119" on="1"/>
        <pt x="173" y="114" on="0"/>
        <pt x="173" y="103" on="1"/>
        <pt x="173" y="85" on="0"/>
        <pt x="228" y="71" on="0"/>
        <pt x="298" y="62" on="1"/>
        <pt x="331" y="58" on="0"/>
        <pt x="400" y="43" on="0"/>
        <pt x="457" y="10" on="0"/>
        <pt x="496" y="-45" on="0"/>
        <pt x="499" y="-89" on="1"/>
        <pt x="499" y="-164" on="0"/>
        <pt x="375" y="-250" on="0"/>
      </contour>
      <contour>
        <pt x="237" y="417" on="1"/>
        <pt x="192" y="417" on="0"/>
        <pt x="145" y="360" on="0"/>
        <pt x="145" y="311" on="1"/>
        <pt x="145" y="262" on="0"/>
        <pt x="192" y="205" on="0"/>
        <pt x="237" y="205" on="1"/>
        <pt x="282" y="205" on="0"/>
        <pt x="328" y="262" on="0"/>
        <pt x="328" y="311" on="1"/>
        <pt x="328" y="360" on="0"/>
        <pt x="282" y="417" on="0"/>
      </contour>
      <contour>
        <pt x="256" y="-30" on="1"/>
        <pt x="229" y="-27" on="0"/>
        <pt x="196" y="-21" on="1"/>
        <pt x="127" y="-44" on="0"/>
        <pt x="127" y="-90" on="1"/>
        <pt x="127" y="-123" on="0"/>
        <pt x="194" y="-162" on="0"/>
        <pt x="254" y="-162" on="1"/>
        <pt x="314" y="-162" on="0"/>
        <pt x="389" y="-126" on="0"/>
        <pt x="389" y="-94" on="1"/>
        <pt x="389" y="-62" on="0"/>
        <pt x="314" y="-36" on="0"/>
      </contour>
    </TTGlyph>
    <TTGlyph name="germandbls" xMin="17" yMin="-136" xMax="544" yMax="750">
      <contour>
        <pt x="323" y="-10" on="1"/>
        <pt x="309" y="-10" on="0"/>
        <pt x="280" y="-8" on="0"/>
        <pt x="263" y="-5" on="1"/>
        <pt x="263" y="92" on="1"/>
        <pt x="301" y="92" on="0"/>
        <pt x="359" y="94" on="0"/>
        <pt x="398" y="106" on="0"/>
        <pt x="417" y="132" on="0"/>
        <pt x="417" y="156" on="1"/>
        <pt x="417" y="196" on="0"/>
        <pt x="374" y="250" on="0"/>
        <pt x="321" y="294" on="0"/>
        <pt x="278" y="334" on="0"/>
        <pt x="278" y="360" on="1"/>
        <pt x="278" y="381" on="0"/>
        <pt x="305" y="419" on="0"/>
        <pt x="338" y="464" on="0"/>
        <pt x="366" y="519" on="0"/>
        <pt x="366" y="556" on="1"/>
        <pt x="366" y="581" on="0"/>
        <pt x="352" y="615" on="0"/>
        <pt x="330" y="636" on="0"/>
        <pt x="302" y="646" on="0"/>
        <pt x="287" y="646" on="1"/>
        <pt x="250" y="646" on="0"/>
        <pt x="212" y="597" on="0"/>
        <pt x="212" y="560" on="1"/>
        <pt x="212" y="-136" on="1"/>
        <pt x="88" y="-136" on="1"/>
        <pt x="88" y="398" on="1"/>
        <pt x="17" y="398" on="1"/>
        <pt x="28" y="500" on="1"/>
        <pt x="88" y="500" on="1"/>
        <pt x="88" y="555" on="1"/>
        <pt x="88" y="600" on="0"/>
        <pt x="121" y="672" on="0"/>
        <pt x="177" y="723" on="0"/>
        <pt x="249" y="750" on="0"/>
        <pt x="288" y="750" on="1"/>
        <pt x="324" y="750" on="0"/>
        <pt x="395" y="729" on="0"/>
        <pt x="451" y="684" on="0"/>
        <pt x="485" y="613" on="0"/>
        <pt x="485" y="562" on="1"/>
        <pt x="485" y="521" on="0"/>
        <pt x="461" y="458" on="0"/>
        <pt x="433" y="411" on="0"/>
        <pt x="409" y="378" on="0"/>
        <pt x="409" y="367" on="1"/>
        <pt x="409" y="352" on="0"/>
        <pt x="451" y="321" on="0"/>
        <pt x="502" y="275" on="0"/>
        <pt x="544" y="207" on="0"/>
        <pt x="544" y="155" on="1"/>
        <pt x="544" y="109" on="0"/>
        <pt x="508" y="46" on="0"/>
        <pt x="447" y="7" on="0"/>
        <pt x="367" y="-10" on="0"/>
      </contour>
    </TTGlyph>
    <TTGlyph name="grave" xMin="58" yMin="585" xMax="245" yMax="750">
      <contour>
        <pt x="245" y="585" on="1"/>
        <pt x="58" y="646" on="1"/>
        <pt x="58" y="750" on="1"/>
        <pt x="245" y="659" on="1"/>
      </contour>
    </TTGlyph>
    <TTGlyph name="greater" xMin="58" yMin="78" xMax="417" yMax="490">
      <contour>
        <pt x="417" y="284" on="1"/>
        <pt x="205" y="78" on="1"/>
        <pt x="58" y="78" on="1"/>
        <pt x="270" y="284" on="1"/>
        <pt x="58" y="490" on="1"/>
        <pt x="205" y="490" on="1"/>
      </contour>
    </TTGlyph>
    <TTGlyph name="guillemotleft" xMin="11" yMin="78" xMax="570" yMax="490">
      <contour>
        <pt x="570" y="78" on="1"/>
        <pt x="423" y="78" on="1"/>
        <pt x="271" y="284" on="1"/>
        <pt x="423" y="490" on="1"/>
        <pt x="570" y="490" on="1"/>
        <pt x="418" y="284" on="1"/>
      </contour>
      <contour>
        <pt x="310" y="78" on="1"/>
        <pt x="163" y="78" on="1"/>
        <pt x="11" y="284" on="1"/>
        <pt x="163" y="490" on="1"/>
        <pt x="310" y="490" on="1"/>
        <pt x="158" y="284" on="1"/>
      </contour>
    </TTGlyph>
    <TTGlyph name="guillemotright" xMin="37" yMin="78" xMax="596" yMax="490">
      <contour>
        <pt x="596" y="284" on="1"/>
        <pt x="444" y="78" on="1"/>
        <pt x="297" y="78" on="1"/>
        <pt x="449" y="284" on="1"/>
        <pt x="297" y="490" on="1"/>
        <pt x="444" y="490" on="1"/>
      </contour>
      <contour>
        <pt x="336" y="284" on="1"/>
        <pt x="184" y="78" on="1"/>
        <pt x="37" y="78" on="1"/>
        <pt x="189" y="284" on="1"/>
        <pt x="37" y="490" on="1"/>
        <pt x="184" y="490" on="1"/>
      </contour>
    </TTGlyph>
    <TTGlyph name="guilsinglleft" xMin="11" yMin="78" xMax="310" yMax="490">
      <contour>
        <pt x="310" y="78" on="1"/>
        <pt x="163" y="78" on="1"/>
        <pt x="11" y="284" on="1"/>
        <pt x="163" y="490" on="1"/>
        <pt x="310" y="490" on="1"/>
        <pt x="158" y="284" on="1"/>
      </contour>
    </TTGlyph>
    <TTGlyph name="guilsinglright" xMin="37" yMin="78" xMax="336" yMax="490">
      <contour>
        <pt x="336" y="284" on="1"/>
        <pt x="184" y="78" on="1"/>
        <pt x="37" y="78" on="1"/>
        <pt x="189" y="284" on="1"/>
        <pt x="37" y="490" on="1"/>
        <pt x="184" y="490" on="1"/>
      </contour>
    </TTGlyph>
    <TTGlyph name="h" xMin="57" yMin="0" xMax="498" yMax="750">
      <contour>
        <pt x="498" y="0" on="1"/>
        <pt x="374" y="0" on="1"/>
        <pt x="374" y="269" on="1"/>
        <pt x="374" y="339" on="0"/>
        <pt x="327" y="406" on="0"/>
        <pt x="275" y="406" on="1"/>
        <pt x="218" y="406" on="0"/>
        <pt x="181" y="363" on="1"/>
        <pt x="181" y="0" on="1"/>
        <pt x="57" y="0" on="1"/>
        <pt x="57" y="750" on="1"/>
        <pt x="181" y="750" on="1"/>
        <pt x="181" y="474" on="1"/>
        <pt x="233" y="508" on="0"/>
        <pt x="285" y="508" on="1"/>
        <pt x="498" y="508" on="0"/>
        <pt x="498" y="269" on="1"/>
      </contour>
    </TTGlyph>
    <TTGlyph name="hyphen" xMin="54" yMin="230" xMax="364" yMax="324">
      <contour>
        <pt x="364" y="230" on="1"/>
        <pt x="54" y="230" on="1"/>
        <pt x="54" y="324" on="1"/>
        <pt x="364" y="324" on="1"/>
      </contour>
    </TTGlyph>
    <TTGlyph name="i" xMin="58" yMin="0" xMax="182" yMax="700">
      <contour>
        <pt x="182" y="576" on="1"/>
        <pt x="58" y="576" on="1"/>
        <pt x="58" y="700" on="1"/>
        <pt x="182" y="700" on="1"/>
      </contour>
      <contour>
        <pt x="182" y="0" on="1"/>
        <pt x="58" y="0" on="1"/>
        <pt x="58" y="500" on="1"/>
        <pt x="182" y="500" on="1"/>
      </contour>
    </TTGlyph>
    <TTGlyph name="iacute" xMin="29" yMin="0" xMax="216" yMax="750">
      <component glyphName="dotlessi" x="0" y="0" flags="0x204"/>
      <component glyphName="acute" x="-29" y="0" flags="0x4"/>
    </TTGlyph>
    <TTGlyph name="icircumflex" xMin="-26" yMin="0" xMax="268" yMax="750">
      <component glyphName="dotlessi" x="0" y="0" flags="0x204"/>
      <component glyphName="circumflex" x="-102" y="0" flags="0x4"/>
    </TTGlyph>
    <TTGlyph name="idieresis" xMin="-4" yMin="0" xMax="244" yMax="700">
      <contour>
        <pt x="182" y="0" on="1"/>
        <pt x="58" y="0" on="1"/>
        <pt x="58" y="500" on="1"/>
        <pt x="182" y="500" on="1"/>
      </contour>
      <contour>
        <pt x="244" y="594" on="1"/>
        <pt x="147" y="594" on="1"/>
        <pt x="147" y="700" on="1"/>
        <pt x="244" y="700" on="1"/>
      </contour>
      <contour>
        <pt x="93" y="594" on="1"/>
        <pt x="-4" y="594" on="1"/>
        <pt x="-4" y="700" on="1"/>
        <pt x="93" y="700" on="1"/>
      </contour>
    </TTGlyph>
    <TTGlyph name="igrave" xMin="29" yMin="0" xMax="216" yMax="750">
      <component glyphName="dotlessi" x="0" y="0" flags="0x204"/>
      <component glyphName="grave" x="-29" y="0" flags="0x4"/>
    </TTGlyph>
    <TTGlyph name="j" xMin="-2" yMin="-242" xMax="182" yMax="700">
      <contour>
        <pt x="54" y="-242" on="1"/>
        <pt x="9" y="-242" on="1"/>
        <pt x="-2" y="-140" on="1"/>
        <pt x="18" y="-140" on="0"/>
        <pt x="42" y="-137" on="0"/>
        <pt x="54" y="-122" on="0"/>
        <pt x="58" y="-90" on="0"/>
        <pt x="58" y="-60" on="1"/>
        <pt x="58" y="500" on="1"/>
        <pt x="182" y="500" on="1"/>
        <pt x="182" y="-111" on="1"/>
        <pt x="182" y="-169" on="0"/>
        <pt x="118" y="-242" on="0"/>
      </contour>
      <contour>
        <pt x="182" y="576" on="1"/>
        <pt x="58" y="576" on="1"/>
        <pt x="58" y="700" on="1"/>
        <pt x="182" y="700" on="1"/>
      </contour>
    </TTGlyph>
    <TTGlyph name="k" xMin="57" yMin="0" xMax="480" yMax="750">
      <contour>
        <pt x="181" y="0" on="1"/>
        <pt x="57" y="0" on="1"/>
        <pt x="57" y="750" on="1"/>
        <pt x="181" y="750" on="1"/>
        <pt x="181" y="295" on="1"/>
        <pt x="340" y="500" on="1"/>
        <pt x="480" y="500" on="1"/>
        <pt x="297" y="260" on="1"/>
        <pt x="480" y="0" on="1"/>
        <pt x="340" y="0" on="1"/>
        <pt x="181" y="222" on="1"/>
      </contour>
    </TTGlyph>
    <TTGlyph name="l" xMin="58" yMin="-10" xMax="242" yMax="750">
      <contour>
        <pt x="242" y="92" on="1"/>
        <pt x="231" y="-10" on="1"/>
        <pt x="186" y="-10" on="1"/>
        <pt x="122" y="-10" on="0"/>
        <pt x="58" y="63" on="0"/>
        <pt x="58" y="121" on="1"/>
        <pt x="58" y="750" on="1"/>
        <pt x="182" y="750" on="1"/>
        <pt x="182" y="172" on="1"/>
        <pt x="182" y="143" on="0"/>
        <pt x="185" y="111" on="0"/>
        <pt x="197" y="96" on="0"/>
        <pt x="221" y="92" on="0"/>
      </contour>
    </TTGlyph>
    <TTGlyph name="less" xMin="29" yMin="78" xMax="388" yMax="490">
      <contour>
        <pt x="388" y="78" on="1"/>
        <pt x="241" y="78" on="1"/>
        <pt x="29" y="284" on="1"/>
        <pt x="241" y="490" on="1"/>
        <pt x="388" y="490" on="1"/>
        <pt x="176" y="284" on="1"/>
      </contour>
    </TTGlyph>
    <TTGlyph name="logicalnot" xMin="60" yMin="151" xMax="520" yMax="406">
      <contour>
        <pt x="520" y="151" on="1"/>
        <pt x="426" y="151" on="1"/>
        <pt x="426" y="312" on="1"/>
        <pt x="60" y="312" on="1"/>
        <pt x="60" y="406" on="1"/>
        <pt x="520" y="406" on="1"/>
      </contour>
    </TTGlyph>
    <TTGlyph name="m" xMin="58" yMin="0" xMax="813" yMax="508">
      <contour>
        <pt x="813" y="0" on="1"/>
        <pt x="689" y="0" on="1"/>
        <pt x="689" y="269" on="1"/>
        <pt x="689" y="341" on="0"/>
        <pt x="647" y="406" on="0"/>
        <pt x="596" y="406" on="1"/>
        <pt x="540" y="406" on="0"/>
        <pt x="497" y="354" on="0"/>
        <pt x="497" y="309" on="1"/>
        <pt x="497" y="0" on="1"/>
        <pt x="374" y="0" on="1"/>
        <pt x="374" y="269" on="1"/>
        <pt x="374" y="308" on="0"/>
        <pt x="363" y="361" on="0"/>
        <pt x="339" y="393" on="0"/>
        <pt x="301" y="406" on="0"/>
        <pt x="274" y="406" on="1"/>
        <pt x="217" y="406" on="0"/>
        <pt x="182" y="365" on="1"/>
        <pt x="182" y="0" on="1"/>
        <pt x="58" y="0" on="1"/>
        <pt x="58" y="500" on="1"/>
        <pt x="160" y="500" on="1"/>
        <pt x="167" y="461" on="1"/>
        <pt x="225" y="508" on="0"/>
        <pt x="295" y="508" on="1"/>
        <pt x="341" y="508" on="0"/>
        <pt x="423" y="469" on="0"/>
        <pt x="448" y="432" on="1"/>
        <pt x="455" y="446" on="0"/>
        <pt x="486" y="473" on="0"/>
        <pt x="529" y="495" on="0"/>
        <pt x="583" y="508" on="0"/>
        <pt x="614" y="508" on="1"/>
        <pt x="663" y="508" on="0"/>
        <pt x="738" y="474" on="0"/>
        <pt x="788" y="412" on="0"/>
        <pt x="813" y="323" on="0"/>
        <pt x="813" y="269" on="1"/>
      </contour>
    </TTGlyph>
    <TTGlyph name="multiply" xMin="56" yMin="109" xMax="392" yMax="445">
      <contour>
        <pt x="392" y="170" on="1"/>
        <pt x="331" y="109" on="1"/>
        <pt x="224" y="216" on="1"/>
        <pt x="117" y="109" on="1"/>
        <pt x="56" y="170" on="1"/>
        <pt x="163" y="277" on="1"/>
        <pt x="56" y="384" on="1"/>
        <pt x="117" y="445" on="1"/>
        <pt x="224" y="338" on="1"/>
        <pt x="331" y="445" on="1"/>
        <pt x="392" y="384" on="1"/>
        <pt x="285" y="277" on="1"/>
      </contour>
    </TTGlyph>
    <TTGlyph name="n" xMin="58" yMin="0" xMax="499" yMax="508">
      <contour>
        <pt x="499" y="0" on="1"/>
        <pt x="375" y="0" on="1"/>
        <pt x="375" y="269" on="1"/>
        <pt x="375" y="339" on="0"/>
        <pt x="328" y="406" on="0"/>
        <pt x="276" y="406" on="1"/>
        <pt x="219" y="406" on="0"/>
        <pt x="182" y="363" on="1"/>
        <pt x="182" y="0" on="1"/>
        <pt x="58" y="0" on="1"/>
        <pt x="58" y="500" on="1"/>
        <pt x="174" y="500" on="1"/>
        <pt x="176" y="470" on="1"/>
        <pt x="229" y="508" on="0"/>
        <pt x="286" y="508" on="1"/>
        <pt x="499" y="508" on="0"/>
        <pt x="499" y="269" on="1"/>
      </contour>
    </TTGlyph>
    <TTGlyph name="nine" xMin="42" yMin="0" xMax="505" yMax="714">
      <contour>
        <pt x="286" y="714" on="1"/>
        <pt x="335" y="714" on="0"/>
        <pt x="416" y="682" on="0"/>
        <pt x="474" y="616" on="0"/>
        <pt x="505" y="516" on="0"/>
        <pt x="505" y="448" on="1"/>
        <pt x="505" y="385" on="0"/>
        <pt x="478" y="269" on="0"/>
        <pt x="433" y="170" on="0"/>
        <pt x="373" y="89" on="0"/>
        <pt x="306" y="31" on="0"/>
        <pt x="237" y="0" on="0"/>
        <pt x="204" y="0" on="1"/>
        <pt x="123" y="50" on="1"/>
        <pt x="138" y="50" on="0"/>
        <pt x="186" y="69" on="0"/>
        <pt x="240" y="104" on="0"/>
        <pt x="296" y="153" on="0"/>
        <pt x="342" y="213" on="0"/>
        <pt x="373" y="281" on="0"/>
        <pt x="375" y="317" on="1"/>
        <pt x="367" y="308" on="0"/>
        <pt x="335" y="294" on="0"/>
        <pt x="298" y="284" on="0"/>
        <pt x="263" y="279" on="0"/>
        <pt x="253" y="279" on="1"/>
        <pt x="205" y="279" on="0"/>
        <pt x="128" y="305" on="0"/>
        <pt x="72" y="356" on="0"/>
        <pt x="42" y="430" on="0"/>
        <pt x="42" y="478" on="1"/>
        <pt x="42" y="527" on="0"/>
        <pt x="77" y="614" on="0"/>
        <pt x="142" y="677" on="0"/>
        <pt x="232" y="714" on="0"/>
      </contour>
      <contour>
        <pt x="265" y="383" on="1"/>
        <pt x="317" y="383" on="0"/>
        <pt x="384" y="441" on="0"/>
        <pt x="384" y="496" on="1"/>
        <pt x="384" y="523" on="0"/>
        <pt x="367" y="563" on="0"/>
        <pt x="338" y="588" on="0"/>
        <pt x="300" y="600" on="0"/>
        <pt x="279" y="600" on="1"/>
        <pt x="253" y="600" on="0"/>
        <pt x="212" y="581" on="0"/>
        <pt x="183" y="548" on="0"/>
        <pt x="167" y="506" on="0"/>
        <pt x="167" y="483" on="1"/>
        <pt x="167" y="441" on="0"/>
        <pt x="216" y="383" on="0"/>
      </contour>
    </TTGlyph>
    <TTGlyph name="ntilde" xMin="58" yMin="0" xMax="499" yMax="721">
      <component glyphName="n" x="0" y="0" flags="0x204"/>
      <component glyphName="tilde" x="12" y="0" flags="0x4"/>
    </TTGlyph>
    <TTGlyph name="numbersign" xMin="31" yMin="-11" xMax="678" yMax="700">
      <contour>
        <pt x="678" y="512" on="1"/>
        <pt x="644" y="414" on="1"/>
        <pt x="530" y="414" on="1"/>
        <pt x="492" y="309" on="1"/>
        <pt x="617" y="309" on="1"/>
        <pt x="570" y="211" on="1"/>
        <pt x="453" y="211" on="1"/>
        <pt x="369" y="-11" on="1"/>
        <pt x="273" y="-11" on="1"/>
        <pt x="357" y="211" on="1"/>
        <pt x="245" y="211" on="1"/>
        <pt x="159" y="-11" on="1"/>
        <pt x="65" y="-11" on="1"/>
        <pt x="149" y="211" on="1"/>
        <pt x="31" y="211" on="1"/>
        <pt x="76" y="309" on="1"/>
        <pt x="188" y="309" on="1"/>
        <pt x="226" y="414" on="1"/>
        <pt x="105" y="414" on="1"/>
        <pt x="137" y="512" on="1"/>
        <pt x="263" y="512" on="1"/>
        <pt x="337" y="700" on="1"/>
        <pt x="431" y="700" on="1"/>
        <pt x="359" y="512" on="1"/>
        <pt x="473" y="512" on="1"/>
        <pt x="545" y="700" on="1"/>
        <pt x="639" y="700" on="1"/>
        <pt x="567" y="512" on="1"/>
      </contour>
      <contour>
        <pt x="436" y="414" on="1"/>
        <pt x="322" y="414" on="1"/>
        <pt x="282" y="309" on="1"/>
        <pt x="396" y="309" on="1"/>
      </contour>
    </TTGlyph>
    <TTGlyph name="o" xMin="28" yMin="-10" xMax="534" yMax="508">
      <contour>
        <pt x="465" y="65" on="1"/>
        <pt x="397" y="-10" on="0"/>
        <pt x="281" y="-10" on="1"/>
        <pt x="223" y="-10" on="0"/>
        <pt x="130" y="30" on="0"/>
        <pt x="64" y="100" on="0"/>
        <pt x="28" y="194" on="0"/>
        <pt x="28" y="249" on="1"/>
        <pt x="28" y="303" on="0"/>
        <pt x="64" y="398" on="0"/>
        <pt x="130" y="468" on="0"/>
        <pt x="223" y="508" on="0"/>
        <pt x="281" y="508" on="1"/>
        <pt x="339" y="508" on="0"/>
        <pt x="433" y="467" on="0"/>
        <pt x="499" y="397" on="0"/>
        <pt x="534" y="303" on="0"/>
        <pt x="534" y="249" on="1"/>
        <pt x="534" y="140" on="0"/>
      </contour>
      <contour>
        <pt x="373" y="363" on="1"/>
        <pt x="340" y="406" on="0"/>
        <pt x="281" y="406" on="1"/>
        <pt x="221" y="406" on="0"/>
        <pt x="155" y="320" on="0"/>
        <pt x="155" y="249" on="1"/>
        <pt x="155" y="178" on="0"/>
        <pt x="221" y="92" on="0"/>
        <pt x="281" y="92" on="1"/>
        <pt x="341" y="92" on="0"/>
        <pt x="407" y="180" on="0"/>
        <pt x="407" y="249" on="1"/>
        <pt x="407" y="320" on="0"/>
      </contour>
    </TTGlyph>
    <TTGlyph name="oacute" xMin="28" yMin="-10" xMax="534" yMax="750">
      <component glyphName="o" x="0" y="0" flags="0x204"/>
      <component glyphName="acute" x="129" y="0" flags="0x4"/>
    </TTGlyph>
    <TTGlyph name="ocircumflex" xMin="28" yMin="-10" xMax="534" yMax="750">
      <component glyphName="o" x="0" y="0" flags="0x204"/>
      <component glyphName="circumflex" x="57" y="0" flags="0x4"/>
    </TTGlyph>
    <TTGlyph name="odieresis" xMin="28" yMin="-10" xMax="534" yMax="700">
      <component glyphName="o" x="0" y="0" flags="0x204"/>
      <component glyphName="dieresis" x="70" y="0" flags="0x4"/>
    </TTGlyph>
    <TTGlyph name="oe" xMin="28" yMin="-10" xMax="868" yMax="508">
      <contour>
        <pt x="860" y="223" on="1"/>
        <pt x="537" y="223" on="1"/>
        <pt x="547" y="158" on="0"/>
        <pt x="632" y="92" on="0"/>
        <pt x="686" y="92" on="1"/>
        <pt x="703" y="92" on="0"/>
        <pt x="743" y="98" on="0"/>
        <pt x="784" y="109" on="0"/>
        <pt x="824" y="124" on="0"/>
        <pt x="840" y="133" on="1"/>
        <pt x="846" y="28" on="1"/>
        <pt x="773" y="-10" on="0"/>
        <pt x="679" y="-10" on="1"/>
        <pt x="544" y="-10" on="0"/>
        <pt x="471" y="71" on="1"/>
        <pt x="400" y="-10" on="0"/>
        <pt x="281" y="-10" on="1"/>
        <pt x="223" y="-10" on="0"/>
        <pt x="130" y="30" on="0"/>
        <pt x="64" y="100" on="0"/>
        <pt x="28" y="194" on="0"/>
        <pt x="28" y="249" on="1"/>
        <pt x="28" y="303" on="0"/>
        <pt x="64" y="398" on="0"/>
        <pt x="130" y="468" on="0"/>
        <pt x="223" y="508" on="0"/>
        <pt x="281" y="508" on="1"/>
        <pt x="399" y="508" on="0"/>
        <pt x="469" y="429" on="1"/>
        <pt x="536" y="508" on="0"/>
        <pt x="648" y="508" on="1"/>
        <pt x="695" y="508" on="0"/>
        <pt x="776" y="477" on="0"/>
        <pt x="835" y="420" on="0"/>
        <pt x="868" y="340" on="0"/>
        <pt x="868" y="291" on="1"/>
        <pt x="868" y="263" on="0"/>
      </contour>
      <contour>
        <pt x="540" y="307" on="1"/>
        <pt x="742" y="307" on="1"/>
        <pt x="742" y="346" on="0"/>
        <pt x="698" y="406" on="0"/>
        <pt x="652" y="406" on="1"/>
        <pt x="606" y="406" on="0"/>
        <pt x="550" y="352" on="0"/>
      </contour>
      <contour>
        <pt x="373" y="363" on="1"/>
        <pt x="340" y="406" on="0"/>
        <pt x="281" y="406" on="1"/>
        <pt x="221" y="406" on="0"/>
        <pt x="155" y="320" on="0"/>
        <pt x="155" y="249" on="1"/>
        <pt x="155" y="178" on="0"/>
        <pt x="221" y="92" on="0"/>
        <pt x="281" y="92" on="1"/>
        <pt x="341" y="92" on="0"/>
        <pt x="407" y="180" on="0"/>
        <pt x="407" y="249" on="1"/>
        <pt x="407" y="320" on="0"/>
      </contour>
    </TTGlyph>
    <TTGlyph name="ograve" xMin="28" yMin="-10" xMax="534" yMax="750">
      <component glyphName="o" x="0" y="0" flags="0x204"/>
      <component glyphName="grave" x="129" y="0" flags="0x4"/>
    </TTGlyph>
    <TTGlyph name="one" xMin="45" yMin="0" xMax="272" yMax="700">
      <contour>
        <pt x="272" y="0" on="1"/>
        <pt x="144" y="0" on="1"/>
        <pt x="144" y="519" on="1"/>
        <pt x="102" y="490" on="0"/>
        <pt x="56" y="483" on="1"/>
        <pt x="45" y="591" on="1"/>
        <pt x="61" y="595" on="0"/>
        <pt x="101" y="617" on="0"/>
        <pt x="138" y="648" on="0"/>
        <pt x="167" y="683" on="0"/>
        <pt x="174" y="700" on="1"/>
        <pt x="272" y="700" on="1"/>
      </contour>
    </TTGlyph>
    <TTGlyph name="onehalf" xMin="40" yMin="-85" xMax="698" yMax="700">
      <component glyphName="uni00B9" x="12" y="0" flags="0x4"/>
      <component glyphName="slash" x="38" y="0" flags="0x4"/>
      <component glyphName="uni00B2" x="422" y="-319" flags="0x4"/>
    </TTGlyph>
    <TTGlyph name="onequarter" xMin="43" yMin="-85" xMax="703" yMax="700">
      <component glyphName="uni00B9" x="15" y="0" flags="0x4"/>
      <component glyphName="slash" x="39" y="0" flags="0x4"/>
      <component glyphName="uni2074" x="381" y="-319" flags="0x4"/>
    </TTGlyph>
    <TTGlyph name="ordfeminine" xMin="30" yMin="434" xMax="325" yMax="732">
      <contour>
        <pt x="325" y="519" on="1"/>
        <pt x="321" y="434" on="1"/>
        <pt x="231" y="434" on="0"/>
        <pt x="206" y="454" on="1"/>
        <pt x="184" y="434" on="0"/>
        <pt x="112" y="434" on="1"/>
        <pt x="79" y="434" on="0"/>
        <pt x="30" y="481" on="0"/>
        <pt x="30" y="526" on="1"/>
        <pt x="30" y="556" on="0"/>
        <pt x="70" y="595" on="0"/>
        <pt x="124" y="618" on="0"/>
        <pt x="177" y="628" on="0"/>
        <pt x="189" y="629" on="1"/>
        <pt x="188" y="629" on="0"/>
        <pt x="184" y="635" on="0"/>
        <pt x="175" y="641" on="0"/>
        <pt x="161" y="647" on="0"/>
        <pt x="149" y="647" on="1"/>
        <pt x="141" y="647" on="0"/>
        <pt x="113" y="643" on="0"/>
        <pt x="85" y="637" on="0"/>
        <pt x="63" y="632" on="0"/>
        <pt x="60" y="632" on="1"/>
        <pt x="55" y="713" on="1"/>
        <pt x="116" y="732" on="0"/>
        <pt x="178" y="732" on="1"/>
        <pt x="201" y="732" on="0"/>
        <pt x="243" y="720" on="0"/>
        <pt x="274" y="699" on="0"/>
        <pt x="293" y="668" on="0"/>
        <pt x="293" y="650" on="1"/>
        <pt x="293" y="543" on="1"/>
        <pt x="293" y="519" on="0"/>
        <pt x="309" y="519" on="1"/>
      </contour>
      <contour>
        <pt x="190" y="501" on="1"/>
        <pt x="190" y="563" on="1"/>
        <pt x="140" y="552" on="0"/>
        <pt x="140" y="528" on="1"/>
        <pt x="140" y="515" on="0"/>
        <pt x="161" y="499" on="0"/>
        <pt x="176" y="499" on="1"/>
        <pt x="178" y="499" on="0"/>
        <pt x="185" y="500" on="0"/>
      </contour>
    </TTGlyph>
    <TTGlyph name="ordmasculine" xMin="28" yMin="434" xMax="348" yMax="732">
      <contour>
        <pt x="304" y="478" on="1"/>
        <pt x="260" y="434" on="0"/>
        <pt x="188" y="434" on="1"/>
        <pt x="151" y="434" on="0"/>
        <pt x="92" y="457" on="0"/>
        <pt x="50" y="498" on="0"/>
        <pt x="28" y="552" on="0"/>
        <pt x="28" y="583" on="1"/>
        <pt x="28" y="613" on="0"/>
        <pt x="50" y="668" on="0"/>
        <pt x="92" y="708" on="0"/>
        <pt x="151" y="732" on="0"/>
        <pt x="188" y="732" on="1"/>
        <pt x="224" y="732" on="0"/>
        <pt x="283" y="708" on="0"/>
        <pt x="325" y="667" on="0"/>
        <pt x="348" y="613" on="0"/>
        <pt x="348" y="583" on="1"/>
        <pt x="348" y="522" on="0"/>
      </contour>
      <contour>
        <pt x="228" y="633" on="1"/>
        <pt x="212" y="655" on="0"/>
        <pt x="188" y="655" on="1"/>
        <pt x="163" y="655" on="0"/>
        <pt x="133" y="611" on="0"/>
        <pt x="133" y="583" on="1"/>
        <pt x="133" y="555" on="0"/>
        <pt x="162" y="511" on="0"/>
        <pt x="188" y="511" on="1"/>
        <pt x="214" y="511" on="0"/>
        <pt x="243" y="555" on="0"/>
        <pt x="243" y="583" on="1"/>
        <pt x="243" y="612" on="0"/>
      </contour>
    </TTGlyph>
    <TTGlyph name="oslash" xMin="28" yMin="-36" xMax="534" yMax="534">
      <contour>
        <pt x="281" y="-10" on="1"/>
        <pt x="248" y="-10" on="0"/>
        <pt x="211" y="-2" on="1"/>
        <pt x="195" y="-36" on="1"/>
        <pt x="89" y="-36" on="1"/>
        <pt x="125" y="39" on="1"/>
        <pt x="77" y="74" on="0"/>
        <pt x="28" y="183" on="0"/>
        <pt x="28" y="249" on="1"/>
        <pt x="28" y="303" on="0"/>
        <pt x="64" y="398" on="0"/>
        <pt x="130" y="468" on="0"/>
        <pt x="223" y="508" on="0"/>
        <pt x="281" y="508" on="1"/>
        <pt x="298" y="508" on="0"/>
        <pt x="331" y="504" on="0"/>
        <pt x="348" y="500" on="1"/>
        <pt x="364" y="534" on="1"/>
        <pt x="473" y="534" on="1"/>
        <pt x="436" y="459" on="1"/>
        <pt x="534" y="384" on="0"/>
        <pt x="534" y="249" on="1"/>
        <pt x="534" y="195" on="0"/>
        <pt x="499" y="101" on="0"/>
        <pt x="433" y="31" on="0"/>
        <pt x="339" y="-10" on="0"/>
      </contour>
      <contour>
        <pt x="383" y="349" on="1"/>
        <pt x="258" y="94" on="1"/>
        <pt x="265" y="93" on="0"/>
        <pt x="276" y="92" on="0"/>
        <pt x="281" y="92" on="1"/>
        <pt x="341" y="92" on="0"/>
        <pt x="407" y="177" on="0"/>
        <pt x="407" y="249" on="1"/>
        <pt x="407" y="305" on="0"/>
      </contour>
      <contour>
        <pt x="281" y="406" on="1"/>
        <pt x="221" y="406" on="0"/>
        <pt x="155" y="321" on="0"/>
        <pt x="155" y="249" on="1"/>
        <pt x="155" y="190" on="0"/>
        <pt x="178" y="149" on="1"/>
        <pt x="301" y="404" on="1"/>
        <pt x="295" y="405" on="0"/>
        <pt x="285" y="406" on="0"/>
      </contour>
    </TTGlyph>
    <TTGlyph name="otilde" xMin="28" yMin="-10" xMax="534" yMax="721">
      <component glyphName="o" x="0" y="0" flags="0x204"/>
      <component glyphName="tilde" x="17" y="0" flags="0x4"/>
    </TTGlyph>
    <TTGlyph name="p" xMin="58" yMin="-242" xMax="544" yMax="508">
      <contour>
        <pt x="299" y="-10" on="1"/>
        <pt x="232" y="-10" on="0"/>
        <pt x="182" y="24" on="1"/>
        <pt x="182" y="-242" on="1"/>
        <pt x="58" y="-242" on="1"/>
        <pt x="58" y="500" on="1"/>
        <pt x="166" y="500" on="1"/>
        <pt x="176" y="471" on="1"/>
        <pt x="231" y="508" on="0"/>
        <pt x="299" y="508" on="1"/>
        <pt x="356" y="508" on="0"/>
        <pt x="447" y="468" on="0"/>
        <pt x="510" y="398" on="0"/>
        <pt x="544" y="303" on="0"/>
        <pt x="544" y="249" on="1"/>
        <pt x="544" y="195" on="0"/>
        <pt x="511" y="101" on="0"/>
        <pt x="449" y="30" on="0"/>
        <pt x="357" y="-10" on="0"/>
      </contour>
      <contour>
        <pt x="291" y="406" on="1"/>
        <pt x="233" y="406" on="0"/>
        <pt x="176" y="322" on="0"/>
        <pt x="176" y="249" on="1"/>
        <pt x="176" y="176" on="0"/>
        <pt x="233" y="92" on="0"/>
        <pt x="291" y="92" on="1"/>
        <pt x="351" y="92" on="0"/>
        <pt x="417" y="177" on="0"/>
        <pt x="417" y="249" on="1"/>
        <pt x="417" y="321" on="0"/>
        <pt x="351" y="406" on="0"/>
      </contour>
    </TTGlyph>
    <TTGlyph name="paragraph" xMin="33" yMin="0" xMax="580" yMax="700">
      <contour>
        <pt x="580" y="593" on="1"/>
        <pt x="511" y="593" on="1"/>
        <pt x="511" y="0" on="1"/>
        <pt x="423" y="0" on="1"/>
        <pt x="423" y="593" on="1"/>
        <pt x="361" y="593" on="1"/>
        <pt x="361" y="0" on="1"/>
        <pt x="292" y="0" on="1"/>
        <pt x="292" y="229" on="1"/>
        <pt x="231" y="233" on="0"/>
        <pt x="135" y="274" on="0"/>
        <pt x="68" y="338" on="0"/>
        <pt x="33" y="421" on="0"/>
        <pt x="33" y="466" on="1"/>
        <pt x="33" y="513" on="0"/>
        <pt x="72" y="598" on="0"/>
        <pt x="146" y="662" on="0"/>
        <pt x="252" y="700" on="0"/>
        <pt x="320" y="700" on="1"/>
        <pt x="580" y="700" on="1"/>
      </contour>
    </TTGlyph>
    <TTGlyph name="parenleft" xMin="41" yMin="-136" xMax="255" yMax="750">
      <contour>
        <pt x="255" y="-136" on="1"/>
        <pt x="142" y="-136" on="1"/>
        <pt x="116" y="-90" on="0"/>
        <pt x="79" y="3" on="0"/>
        <pt x="53" y="108" on="0"/>
        <pt x="41" y="231" on="0"/>
        <pt x="41" y="307" on="1"/>
        <pt x="41" y="383" on="0"/>
        <pt x="54" y="507" on="0"/>
        <pt x="79" y="613" on="0"/>
        <pt x="117" y="705" on="0"/>
        <pt x="142" y="750" on="1"/>
        <pt x="255" y="750" on="1"/>
        <pt x="142" y="550" on="0"/>
        <pt x="142" y="307" on="1"/>
        <pt x="142" y="64" on="0"/>
      </contour>
    </TTGlyph>
    <TTGlyph name="parenright" xMin="22" yMin="-136" xMax="236" yMax="750">
      <contour>
        <pt x="135" y="-136" on="1"/>
        <pt x="22" y="-136" on="1"/>
        <pt x="135" y="64" on="0"/>
        <pt x="135" y="307" on="1"/>
        <pt x="135" y="550" on="0"/>
        <pt x="22" y="750" on="1"/>
        <pt x="135" y="750" on="1"/>
        <pt x="160" y="705" on="0"/>
        <pt x="197" y="613" on="0"/>
        <pt x="223" y="507" on="0"/>
        <pt x="236" y="383" on="0"/>
        <pt x="236" y="307" on="1"/>
        <pt x="236" y="232" on="0"/>
        <pt x="223" y="108" on="0"/>
        <pt x="198" y="3" on="0"/>
        <pt x="160" y="-91" on="0"/>
      </contour>
    </TTGlyph>
    <TTGlyph name="percent" xMin="34" yMin="-12" xMax="809" yMax="704">
      <contour>
        <pt x="654" y="-9" on="1"/>
        <pt x="585" y="-9" on="0"/>
        <pt x="504" y="90" on="0"/>
        <pt x="504" y="172" on="1"/>
        <pt x="504" y="214" on="0"/>
        <pt x="527" y="284" on="0"/>
        <pt x="569" y="333" on="0"/>
        <pt x="626" y="360" on="0"/>
        <pt x="659" y="360" on="1"/>
        <pt x="692" y="360" on="0"/>
        <pt x="747" y="334" on="0"/>
        <pt x="787" y="287" on="0"/>
        <pt x="809" y="221" on="0"/>
        <pt x="809" y="180" on="1"/>
        <pt x="809" y="137" on="0"/>
        <pt x="787" y="67" on="0"/>
        <pt x="746" y="18" on="0"/>
        <pt x="689" y="-9" on="0"/>
      </contour>
      <contour>
        <pt x="673" y="700" on="1"/>
        <pt x="251" y="-12" on="1"/>
        <pt x="147" y="-12" on="1"/>
        <pt x="569" y="700" on="1"/>
      </contour>
      <contour>
        <pt x="184" y="335" on="1"/>
        <pt x="115" y="335" on="0"/>
        <pt x="34" y="434" on="0"/>
        <pt x="34" y="516" on="1"/>
        <pt x="34" y="558" on="0"/>
        <pt x="57" y="628" on="0"/>
        <pt x="99" y="677" on="0"/>
        <pt x="156" y="704" on="0"/>
        <pt x="189" y="704" on="1"/>
        <pt x="222" y="704" on="0"/>
        <pt x="277" y="678" on="0"/>
        <pt x="317" y="631" on="0"/>
        <pt x="339" y="565" on="0"/>
        <pt x="339" y="524" on="1"/>
        <pt x="339" y="481" on="0"/>
        <pt x="317" y="411" on="0"/>
        <pt x="276" y="362" on="0"/>
        <pt x="219" y="335" on="0"/>
      </contour>
      <contour>
        <pt x="658" y="288" on="1"/>
        <pt x="627" y="288" on="0"/>
        <pt x="583" y="230" on="0"/>
        <pt x="583" y="172" on="1"/>
        <pt x="583" y="117" on="0"/>
        <pt x="623" y="63" on="0"/>
        <pt x="655" y="63" on="1"/>
        <pt x="730" y="63" on="0"/>
        <pt x="730" y="180" on="1"/>
        <pt x="730" y="234" on="0"/>
        <pt x="688" y="288" on="0"/>
      </contour>
      <contour>
        <pt x="188" y="632" on="1"/>
        <pt x="157" y="632" on="0"/>
        <pt x="113" y="574" on="0"/>
        <pt x="113" y="516" on="1"/>
        <pt x="113" y="461" on="0"/>
        <pt x="153" y="407" on="0"/>
        <pt x="185" y="407" on="1"/>
        <pt x="260" y="407" on="0"/>
        <pt x="260" y="524" on="1"/>
        <pt x="260" y="578" on="0"/>
        <pt x="218" y="632" on="0"/>
      </contour>
    </TTGlyph>
    <TTGlyph name="period" xMin="54" yMin="0" xMax="178" yMax="130">
      <contour>
        <pt x="178" y="0" on="1"/>
        <pt x="54" y="0" on="1"/>
        <pt x="54" y="130" on="1"/>
        <pt x="178" y="130" on="1"/>
      </contour>
    </TTGlyph>
    <TTGlyph name="periodcentered" xMin="54" yMin="213" xMax="178" yMax="343">
      <contour>
        <pt x="178" y="213" on="1"/>
        <pt x="54" y="213" on="1"/>
        <pt x="54" y="343" on="1"/>
        <pt x="178" y="343" on="1"/>
      </contour>
    </TTGlyph>
    <TTGlyph name="perthousand" xMin="35" yMin="-12" xMax="1171" yMax="704">
      <contour>
        <pt x="655" y="-9" on="1"/>
        <pt x="586" y="-9" on="0"/>
        <pt x="505" y="90" on="0"/>
        <pt x="505" y="172" on="1"/>
        <pt x="505" y="214" on="0"/>
        <pt x="528" y="284" on="0"/>
        <pt x="570" y="333" on="0"/>
        <pt x="627" y="360" on="0"/>
        <pt x="660" y="360" on="1"/>
        <pt x="693" y="360" on="0"/>
        <pt x="748" y="334" on="0"/>
        <pt x="788" y="287" on="0"/>
        <pt x="810" y="221" on="0"/>
        <pt x="810" y="180" on="1"/>
        <pt x="810" y="137" on="0"/>
        <pt x="788" y="67" on="0"/>
        <pt x="747" y="18" on="0"/>
        <pt x="690" y="-9" on="0"/>
      </contour>
      <contour>
        <pt x="674" y="700" on="1"/>
        <pt x="252" y="-12" on="1"/>
        <pt x="148" y="-12" on="1"/>
        <pt x="570" y="700" on="1"/>
      </contour>
      <contour>
        <pt x="185" y="335" on="1"/>
        <pt x="116" y="335" on="0"/>
        <pt x="35" y="434" on="0"/>
        <pt x="35" y="516" on="1"/>
        <pt x="35" y="558" on="0"/>
        <pt x="58" y="628" on="0"/>
        <pt x="100" y="677" on="0"/>
        <pt x="157" y="704" on="0"/>
        <pt x="190" y="704" on="1"/>
        <pt x="223" y="704" on="0"/>
        <pt x="278" y="678" on="0"/>
        <pt x="318" y="631" on="0"/>
        <pt x="340" y="565" on="0"/>
        <pt x="340" y="524" on="1"/>
        <pt x="340" y="481" on="0"/>
        <pt x="318" y="411" on="0"/>
        <pt x="277" y="362" on="0"/>
        <pt x="220" y="335" on="0"/>
      </contour>
      <contour>
        <pt x="659" y="288" on="1"/>
        <pt x="628" y="288" on="0"/>
        <pt x="584" y="230" on="0"/>
        <pt x="584" y="172" on="1"/>
        <pt x="584" y="117" on="0"/>
        <pt x="624" y="63" on="0"/>
        <pt x="656" y="63" on="1"/>
        <pt x="731" y="63" on="0"/>
        <pt x="731" y="180" on="1"/>
        <pt x="731" y="234" on="0"/>
        <pt x="689" y="288" on="0"/>
      </contour>
      <contour>
        <pt x="189" y="632" on="1"/>
        <pt x="158" y="632" on="0"/>
        <pt x="114" y="574" on="0"/>
        <pt x="114" y="516" on="1"/>
        <pt x="114" y="461" on="0"/>
        <pt x="154" y="407" on="0"/>
        <pt x="186" y="407" on="1"/>
        <pt x="261" y="407" on="0"/>
        <pt x="261" y="524" on="1"/>
        <pt x="261" y="578" on="0"/>
        <pt x="219" y="632" on="0"/>
      </contour>
      <contour>
        <pt x="1016" y="-9" on="1"/>
        <pt x="947" y="-9" on="0"/>
        <pt x="866" y="90" on="0"/>
        <pt x="866" y="172" on="1"/>
        <pt x="866" y="214" on="0"/>
        <pt x="889" y="284" on="0"/>
        <pt x="931" y="333" on="0"/>
        <pt x="988" y="360" on="0"/>
        <pt x="1021" y="360" on="1"/>
        <pt x="1054" y="360" on="0"/>
        <pt x="1109" y="334" on="0"/>
        <pt x="1149" y="287" on="0"/>
        <pt x="1171" y="221" on="0"/>
        <pt x="1171" y="180" on="1"/>
        <pt x="1171" y="137" on="0"/>
        <pt x="1149" y="67" on="0"/>
        <pt x="1108" y="18" on="0"/>
        <pt x="1051" y="-9" on="0"/>
      </contour>
      <contour>
        <pt x="1020" y="288" on="1"/>
        <pt x="989" y="288" on="0"/>
        <pt x="945" y="230" on="0"/>
        <pt x="945" y="172" on="1"/>
        <pt x="945" y="117" on="0"/>
        <pt x="985" y="63" on="0"/>
        <pt x="1017" y="63" on="1"/>
        <pt x="1092" y="63" on="0"/>
        <pt x="1092" y="180" on="1"/>
        <pt x="1092" y="234" on="0"/>
        <pt x="1050" y="288" on="0"/>
      </contour>
    </TTGlyph>
    <TTGlyph name="plus" xMin="44" yMin="102" xMax="414" yMax="452">
      <contour>
        <pt x="414" y="230" on="1"/>
        <pt x="276" y="230" on="1"/>
        <pt x="276" y="102" on="1"/>
        <pt x="182" y="102" on="1"/>
        <pt x="182" y="230" on="1"/>
        <pt x="44" y="230" on="1"/>
        <pt x="44" y="324" on="1"/>
        <pt x="182" y="324" on="1"/>
        <pt x="182" y="452" on="1"/>
        <pt x="276" y="452" on="1"/>
        <pt x="276" y="324" on="1"/>
        <pt x="414" y="324" on="1"/>
      </contour>
    </TTGlyph>
    <TTGlyph name="plusminus" xMin="58" yMin="30" xMax="428" yMax="532">
      <contour>
        <pt x="428" y="310" on="1"/>
        <pt x="290" y="310" on="1"/>
        <pt x="290" y="182" on="1"/>
        <pt x="196" y="182" on="1"/>
        <pt x="196" y="310" on="1"/>
        <pt x="58" y="310" on="1"/>
        <pt x="58" y="404" on="1"/>
        <pt x="196" y="404" on="1"/>
        <pt x="196" y="532" on="1"/>
        <pt x="290" y="532" on="1"/>
        <pt x="290" y="404" on="1"/>
        <pt x="428" y="404" on="1"/>
      </contour>
      <contour>
        <pt x="428" y="30" on="1"/>
        <pt x="58" y="30" on="1"/>
        <pt x="58" y="124" on="1"/>
        <pt x="428" y="124" on="1"/>
      </contour>
    </TTGlyph>
    <TTGlyph name="q" xMin="28" yMin="-242" xMax="514" yMax="508">
      <contour>
        <pt x="273" y="-10" on="1"/>
        <pt x="214" y="-10" on="0"/>
        <pt x="123" y="30" on="0"/>
        <pt x="61" y="101" on="0"/>
        <pt x="28" y="195" on="0"/>
        <pt x="28" y="249" on="1"/>
        <pt x="28" y="303" on="0"/>
        <pt x="62" y="398" on="0"/>
        <pt x="125" y="468" on="0"/>
        <pt x="216" y="508" on="0"/>
        <pt x="273" y="508" on="1"/>
        <pt x="341" y="508" on="0"/>
        <pt x="396" y="471" on="1"/>
        <pt x="406" y="500" on="1"/>
        <pt x="514" y="500" on="1"/>
        <pt x="514" y="-242" on="1"/>
        <pt x="390" y="-242" on="1"/>
        <pt x="390" y="24" on="1"/>
        <pt x="340" y="-10" on="0"/>
      </contour>
      <contour>
        <pt x="281" y="406" on="1"/>
        <pt x="221" y="406" on="0"/>
        <pt x="155" y="321" on="0"/>
        <pt x="155" y="249" on="1"/>
        <pt x="155" y="177" on="0"/>
        <pt x="221" y="92" on="0"/>
        <pt x="281" y="92" on="1"/>
        <pt x="339" y="92" on="0"/>
        <pt x="396" y="176" on="0"/>
        <pt x="396" y="249" on="1"/>
        <pt x="396" y="322" on="0"/>
        <pt x="339" y="406" on="0"/>
      </contour>
    </TTGlyph>
    <TTGlyph name="question" xMin="29" yMin="0" xMax="399" yMax="750">
      <contour>
        <pt x="244" y="200" on="1"/>
        <pt x="160" y="200" on="1"/>
        <pt x="157" y="245" on="0"/>
        <pt x="157" y="253" on="1"/>
        <pt x="157" y="301" on="0"/>
        <pt x="196" y="377" on="0"/>
        <pt x="243" y="448" on="0"/>
        <pt x="282" y="518" on="0"/>
        <pt x="282" y="559" on="1"/>
        <pt x="282" y="605" on="0"/>
        <pt x="226" y="652" on="0"/>
        <pt x="181" y="652" on="1"/>
        <pt x="104" y="652" on="0"/>
        <pt x="57" y="587" on="1"/>
        <pt x="29" y="679" on="1"/>
        <pt x="77" y="750" on="0"/>
        <pt x="189" y="750" on="1"/>
        <pt x="238" y="750" on="0"/>
        <pt x="316" y="716" on="0"/>
        <pt x="370" y="661" on="0"/>
        <pt x="399" y="593" on="0"/>
        <pt x="399" y="560" on="1"/>
        <pt x="399" y="526" on="0"/>
        <pt x="367" y="457" on="0"/>
        <pt x="344" y="426" on="1"/>
        <pt x="299" y="363" on="1"/>
        <pt x="276" y="331" on="0"/>
        <pt x="244" y="253" on="0"/>
        <pt x="244" y="213" on="1"/>
      </contour>
      <contour>
        <pt x="264" y="0" on="1"/>
        <pt x="140" y="0" on="1"/>
        <pt x="140" y="124" on="1"/>
        <pt x="264" y="124" on="1"/>
      </contour>
    </TTGlyph>
    <TTGlyph name="questiondown" xMin="45" yMin="-250" xMax="416" yMax="500">
      <contour>
        <pt x="201" y="300" on="1"/>
        <pt x="285" y="300" on="1"/>
        <pt x="288" y="255" on="0"/>
        <pt x="288" y="247" on="1"/>
        <pt x="288" y="200" on="0"/>
        <pt x="249" y="123" on="0"/>
        <pt x="202" y="53" on="0"/>
        <pt x="163" y="-18" on="0"/>
        <pt x="163" y="-59" on="1"/>
        <pt x="163" y="-105" on="0"/>
        <pt x="219" y="-152" on="0"/>
        <pt x="264" y="-152" on="1"/>
        <pt x="341" y="-152" on="0"/>
        <pt x="388" y="-87" on="1"/>
        <pt x="416" y="-179" on="1"/>
        <pt x="368" y="-250" on="0"/>
        <pt x="256" y="-250" on="1"/>
        <pt x="206" y="-250" on="0"/>
        <pt x="128" y="-216" on="0"/>
        <pt x="74" y="-162" on="0"/>
        <pt x="46" y="-94" on="0"/>
        <pt x="46" y="-60" on="1"/>
        <pt x="45" y="-26" on="0"/>
        <pt x="78" y="42" on="0"/>
        <pt x="101" y="74" on="1"/>
        <pt x="146" y="137" on="1"/>
        <pt x="169" y="169" on="0"/>
        <pt x="200" y="248" on="0"/>
        <pt x="201" y="287" on="1"/>
      </contour>
      <contour>
        <pt x="181" y="500" on="1"/>
        <pt x="305" y="500" on="1"/>
        <pt x="305" y="376" on="1"/>
        <pt x="181" y="376" on="1"/>
      </contour>
    </TTGlyph>
    <TTGlyph name="quotedbl" xMin="36" yMin="450" xMax="360" yMax="750">
      <contour>
        <pt x="360" y="750" on="1"/>
        <pt x="340" y="450" on="1"/>
        <pt x="256" y="450" on="1"/>
        <pt x="236" y="750" on="1"/>
      </contour>
      <contour>
        <pt x="160" y="750" on="1"/>
        <pt x="140" y="450" on="1"/>
        <pt x="56" y="450" on="1"/>
        <pt x="36" y="750" on="1"/>
      </contour>
    </TTGlyph>
    <TTGlyph name="quotedblbase" xMin="54" yMin="-110" xMax="408" yMax="130">
      <contour>
        <pt x="178" y="0" on="1"/>
        <pt x="80" y="-110" on="1"/>
        <pt x="54" y="-96" on="1"/>
        <pt x="87" y="-10" on="1"/>
        <pt x="54" y="0" on="1"/>
        <pt x="54" y="130" on="1"/>
        <pt x="178" y="130" on="1"/>
      </contour>
      <contour>
        <pt x="408" y="0" on="1"/>
        <pt x="310" y="-110" on="1"/>
        <pt x="284" y="-96" on="1"/>
        <pt x="317" y="-10" on="1"/>
        <pt x="284" y="0" on="1"/>
        <pt x="284" y="130" on="1"/>
        <pt x="408" y="130" on="1"/>
      </contour>
    </TTGlyph>
    <TTGlyph name="quotedblleft" xMin="43" yMin="510" xMax="377" yMax="750">
      <contour>
        <pt x="43" y="640" on="1"/>
        <pt x="141" y="750" on="1"/>
        <pt x="167" y="736" on="1"/>
        <pt x="134" y="650" on="1"/>
        <pt x="167" y="640" on="1"/>
        <pt x="167" y="510" on="1"/>
        <pt x="43" y="510" on="1"/>
      </contour>
      <contour>
        <pt x="253" y="640" on="1"/>
        <pt x="351" y="750" on="1"/>
        <pt x="377" y="736" on="1"/>
        <pt x="344" y="650" on="1"/>
        <pt x="377" y="640" on="1"/>
        <pt x="377" y="510" on="1"/>
        <pt x="253" y="510" on="1"/>
      </contour>
    </TTGlyph>
    <TTGlyph name="quotedblright" xMin="41" yMin="510" xMax="375" yMax="750">
      <contour>
        <pt x="375" y="620" on="1"/>
        <pt x="277" y="510" on="1"/>
        <pt x="251" y="524" on="1"/>
        <pt x="284" y="610" on="1"/>
        <pt x="251" y="620" on="1"/>
        <pt x="251" y="750" on="1"/>
        <pt x="375" y="750" on="1"/>
      </contour>
      <contour>
        <pt x="165" y="620" on="1"/>
        <pt x="67" y="510" on="1"/>
        <pt x="41" y="524" on="1"/>
        <pt x="74" y="610" on="1"/>
        <pt x="41" y="620" on="1"/>
        <pt x="41" y="750" on="1"/>
        <pt x="165" y="750" on="1"/>
      </contour>
    </TTGlyph>
    <TTGlyph name="quoteleft" xMin="43" yMin="510" xMax="167" yMax="750">
      <contour>
        <pt x="43" y="640" on="1"/>
        <pt x="141" y="750" on="1"/>
        <pt x="167" y="736" on="1"/>
        <pt x="134" y="650" on="1"/>
        <pt x="167" y="640" on="1"/>
        <pt x="167" y="510" on="1"/>
        <pt x="43" y="510" on="1"/>
      </contour>
    </TTGlyph>
    <TTGlyph name="quoteright" xMin="41" yMin="510" xMax="165" yMax="750">
      <contour>
        <pt x="165" y="620" on="1"/>
        <pt x="67" y="510" on="1"/>
        <pt x="41" y="524" on="1"/>
        <pt x="74" y="610" on="1"/>
        <pt x="41" y="620" on="1"/>
        <pt x="41" y="750" on="1"/>
        <pt x="165" y="750" on="1"/>
      </contour>
    </TTGlyph>
    <TTGlyph name="quotesinglbase" xMin="54" yMin="-110" xMax="178" yMax="130">
      <contour>
        <pt x="178" y="0" on="1"/>
        <pt x="80" y="-110" on="1"/>
        <pt x="54" y="-96" on="1"/>
        <pt x="87" y="-10" on="1"/>
        <pt x="54" y="0" on="1"/>
        <pt x="54" y="130" on="1"/>
        <pt x="178" y="130" on="1"/>
      </contour>
    </TTGlyph>
    <TTGlyph name="quotesingle" xMin="36" yMin="450" xMax="160" yMax="750">
      <contour>
        <pt x="160" y="750" on="1"/>
        <pt x="140" y="450" on="1"/>
        <pt x="56" y="450" on="1"/>
        <pt x="36" y="750" on="1"/>
      </contour>
    </TTGlyph>
    <TTGlyph name="r" xMin="58" yMin="0" xMax="343" yMax="508">
      <contour>
        <pt x="343" y="508" on="1"/>
        <pt x="319" y="391" on="1"/>
        <pt x="273" y="391" on="1"/>
        <pt x="243" y="391" on="0"/>
        <pt x="193" y="363" on="0"/>
        <pt x="182" y="341" on="1"/>
        <pt x="182" y="0" on="1"/>
        <pt x="58" y="0" on="1"/>
        <pt x="58" y="500" on="1"/>
        <pt x="174" y="500" on="1"/>
        <pt x="177" y="447" on="1"/>
        <pt x="235" y="508" on="0"/>
        <pt x="310" y="508" on="1"/>
      </contour>
    </TTGlyph>
    <TTGlyph name="registered" xMin="40" yMin="37" xMax="661" yMax="693">
      <contour>
        <pt x="40" y="365" on="1"/>
        <pt x="40" y="439" on="0"/>
        <pt x="87" y="560" on="0"/>
        <pt x="170" y="646" on="0"/>
        <pt x="284" y="693" on="0"/>
        <pt x="351" y="693" on="1"/>
        <pt x="418" y="693" on="0"/>
        <pt x="532" y="645" on="0"/>
        <pt x="615" y="559" on="0"/>
        <pt x="661" y="438" on="0"/>
        <pt x="661" y="365" on="1"/>
        <pt x="661" y="292" on="0"/>
        <pt x="615" y="172" on="0"/>
        <pt x="533" y="85" on="0"/>
        <pt x="419" y="37" on="0"/>
        <pt x="351" y="37" on="1"/>
        <pt x="283" y="37" on="0"/>
        <pt x="169" y="85" on="0"/>
        <pt x="86" y="172" on="0"/>
        <pt x="40" y="292" on="0"/>
      </contour>
      <contour>
        <pt x="118" y="365" on="1"/>
        <pt x="118" y="308" on="0"/>
        <pt x="148" y="214" on="0"/>
        <pt x="206" y="145" on="0"/>
        <pt x="294" y="107" on="0"/>
        <pt x="351" y="107" on="1"/>
        <pt x="408" y="107" on="0"/>
        <pt x="495" y="145" on="0"/>
        <pt x="554" y="214" on="0"/>
        <pt x="583" y="309" on="0"/>
        <pt x="583" y="365" on="1"/>
        <pt x="583" y="422" on="0"/>
        <pt x="553" y="516" on="0"/>
        <pt x="495" y="584" on="0"/>
        <pt x="408" y="622" on="0"/>
        <pt x="351" y="622" on="1"/>
        <pt x="294" y="622" on="0"/>
        <pt x="207" y="584" on="0"/>
        <pt x="148" y="517" on="0"/>
        <pt x="118" y="422" on="0"/>
      </contour>
      <contour>
        <pt x="498" y="203" on="1"/>
        <pt x="405" y="203" on="1"/>
        <pt x="343" y="315" on="1"/>
        <pt x="313" y="315" on="1"/>
        <pt x="313" y="203" on="1"/>
        <pt x="225" y="203" on="1"/>
        <pt x="225" y="538" on="1"/>
        <pt x="352" y="538" on="1"/>
        <pt x="471" y="538" on="0"/>
        <pt x="471" y="428" on="1"/>
        <pt x="471" y="400" on="0"/>
        <pt x="443" y="353" on="0"/>
        <pt x="424" y="341" on="1"/>
      </contour>
      <contour>
        <pt x="339" y="463" on="1"/>
        <pt x="313" y="463" on="1"/>
        <pt x="313" y="396" on="1"/>
        <pt x="337" y="396" on="1"/>
        <pt x="363" y="396" on="0"/>
        <pt x="381" y="413" on="0"/>
        <pt x="381" y="430" on="1"/>
        <pt x="381" y="447" on="0"/>
        <pt x="365" y="463" on="0"/>
      </contour>
    </TTGlyph>
    <TTGlyph name="ring" xMin="42" yMin="576" xMax="250" yMax="755">
      <contour>
        <pt x="221" y="601" on="1"/>
        <pt x="193" y="576" on="0"/>
        <pt x="146" y="576" on="1"/>
        <pt x="98" y="576" on="0"/>
        <pt x="42" y="627" on="0"/>
        <pt x="42" y="665" on="1"/>
        <pt x="42" y="702" on="0"/>
        <pt x="98" y="755" on="0"/>
        <pt x="146" y="755" on="1"/>
        <pt x="170" y="755" on="0"/>
        <pt x="208" y="740" on="0"/>
        <pt x="235" y="715" on="0"/>
        <pt x="250" y="683" on="0"/>
        <pt x="250" y="665" on="1"/>
        <pt x="250" y="648" on="0"/>
        <pt x="235" y="614" on="0"/>
      </contour>
      <contour>
        <pt x="177" y="694" on="1"/>
        <pt x="165" y="706" on="0"/>
        <pt x="146" y="706" on="1"/>
        <pt x="128" y="706" on="0"/>
        <pt x="102" y="683" on="0"/>
        <pt x="102" y="665" on="1"/>
        <pt x="102" y="646" on="0"/>
        <pt x="127" y="624" on="0"/>
        <pt x="146" y="624" on="1"/>
        <pt x="165" y="624" on="0"/>
        <pt x="190" y="648" on="0"/>
        <pt x="190" y="665" on="1"/>
        <pt x="190" y="681" on="0"/>
      </contour>
    </TTGlyph>
    <TTGlyph name="s" xMin="31" yMin="-10" xMax="396" yMax="508">
      <contour>
        <pt x="200" y="-10" on="1"/>
        <pt x="86" y="-10" on="0"/>
        <pt x="31" y="27" on="1"/>
        <pt x="42" y="133" on="1"/>
        <pt x="54" y="124" on="0"/>
        <pt x="91" y="106" on="0"/>
        <pt x="132" y="92" on="0"/>
        <pt x="176" y="83" on="0"/>
        <pt x="196" y="83" on="1"/>
        <pt x="238" y="83" on="0"/>
        <pt x="272" y="115" on="0"/>
        <pt x="272" y="138" on="1"/>
        <pt x="272" y="160" on="0"/>
        <pt x="248" y="183" on="0"/>
        <pt x="203" y="200" on="0"/>
        <pt x="139" y="219" on="0"/>
        <pt x="99" y="239" on="1"/>
        <pt x="69" y="256" on="0"/>
        <pt x="39" y="305" on="0"/>
        <pt x="36" y="349" on="1"/>
        <pt x="36" y="380" on="0"/>
        <pt x="57" y="437" on="0"/>
        <pt x="101" y="481" on="0"/>
        <pt x="170" y="508" on="0"/>
        <pt x="219" y="508" on="1"/>
        <pt x="265" y="508" on="0"/>
        <pt x="354" y="486" on="0"/>
        <pt x="376" y="471" on="1"/>
        <pt x="365" y="365" on="1"/>
        <pt x="354" y="375" on="0"/>
        <pt x="323" y="395" on="0"/>
        <pt x="287" y="410" on="0"/>
        <pt x="247" y="419" on="0"/>
        <pt x="228" y="419" on="1"/>
        <pt x="192" y="419" on="0"/>
        <pt x="145" y="392" on="0"/>
        <pt x="145" y="364" on="1"/>
        <pt x="145" y="340" on="0"/>
        <pt x="176" y="316" on="0"/>
        <pt x="202" y="306" on="1"/>
        <pt x="219" y="301" on="1"/>
        <pt x="225" y="299" on="0"/>
        <pt x="252" y="292" on="0"/>
        <pt x="259" y="290" on="1"/>
        <pt x="290" y="281" on="0"/>
        <pt x="341" y="257" on="0"/>
        <pt x="377" y="221" on="0"/>
        <pt x="396" y="171" on="0"/>
        <pt x="396" y="137" on="1"/>
        <pt x="396" y="-10" on="0"/>
      </contour>
    </TTGlyph>
    <TTGlyph name="scaron" xMin="31" yMin="-10" xMax="396" yMax="750">
      <component glyphName="s" x="0" y="0" flags="0x204"/>
      <component glyphName="caron" x="-14" y="0" flags="0x4"/>
    </TTGlyph>
    <TTGlyph name="section" xMin="39" yMin="-85" xMax="421" yMax="750">
      <contour>
        <pt x="335" y="186" on="1"/>
        <pt x="378" y="150" on="0"/>
        <pt x="378" y="82" on="1"/>
        <pt x="378" y="49" on="0"/>
        <pt x="359" y="-11" on="0"/>
        <pt x="318" y="-58" on="0"/>
        <pt x="253" y="-85" on="0"/>
        <pt x="207" y="-85" on="1"/>
        <pt x="188" y="-85" on="0"/>
        <pt x="144" y="-78" on="0"/>
        <pt x="104" y="-67" on="0"/>
        <pt x="71" y="-52" on="0"/>
        <pt x="64" y="-44" on="1"/>
        <pt x="73" y="61" on="1"/>
        <pt x="143" y="11" on="0"/>
        <pt x="202" y="11" on="1"/>
        <pt x="292" y="11" on="0"/>
        <pt x="292" y="69" on="1"/>
        <pt x="292" y="96" on="0"/>
        <pt x="255" y="129" on="0"/>
        <pt x="198" y="154" on="0"/>
        <pt x="133" y="179" on="0"/>
        <pt x="76" y="219" on="0"/>
        <pt x="39" y="282" on="0"/>
        <pt x="39" y="332" on="1"/>
        <pt x="39" y="443" on="0"/>
        <pt x="124" y="479" on="1"/>
        <pt x="81" y="513" on="0"/>
        <pt x="81" y="583" on="1"/>
        <pt x="81" y="616" on="0"/>
        <pt x="100" y="676" on="0"/>
        <pt x="141" y="723" on="0"/>
        <pt x="206" y="750" on="0"/>
        <pt x="253" y="750" on="1"/>
        <pt x="272" y="750" on="0"/>
        <pt x="315" y="743" on="0"/>
        <pt x="356" y="731" on="0"/>
        <pt x="388" y="716" on="0"/>
        <pt x="396" y="709" on="1"/>
        <pt x="387" y="604" on="1"/>
        <pt x="317" y="654" on="0"/>
        <pt x="258" y="654" on="1"/>
        <pt x="168" y="654" on="0"/>
        <pt x="168" y="596" on="1"/>
        <pt x="168" y="568" on="0"/>
        <pt x="205" y="535" on="0"/>
        <pt x="262" y="510" on="0"/>
        <pt x="327" y="485" on="0"/>
        <pt x="384" y="445" on="0"/>
        <pt x="421" y="383" on="0"/>
        <pt x="421" y="333" on="1"/>
        <pt x="421" y="221" on="0"/>
      </contour>
      <contour>
        <pt x="197" y="408" on="1"/>
        <pt x="188" y="408" on="0"/>
        <pt x="166" y="399" on="0"/>
        <pt x="147" y="384" on="0"/>
        <pt x="134" y="364" on="0"/>
        <pt x="134" y="354" on="1"/>
        <pt x="134" y="280" on="0"/>
        <pt x="265" y="247" on="1"/>
        <pt x="274" y="247" on="0"/>
        <pt x="296" y="260" on="0"/>
        <pt x="315" y="279" on="0"/>
        <pt x="328" y="301" on="0"/>
        <pt x="328" y="311" on="1"/>
        <pt x="324" y="346" on="0"/>
        <pt x="276" y="388" on="0"/>
        <pt x="232" y="399" on="1"/>
      </contour>
    </TTGlyph>
    <TTGlyph name="semicolon" xMin="56" yMin="-110" xMax="180" yMax="440">
      <contour>
        <pt x="180" y="310" on="1"/>
        <pt x="56" y="310" on="1"/>
        <pt x="56" y="440" on="1"/>
        <pt x="180" y="440" on="1"/>
      </contour>
      <contour>
        <pt x="180" y="0" on="1"/>
        <pt x="82" y="-110" on="1"/>
        <pt x="56" y="-96" on="1"/>
        <pt x="89" y="-10" on="1"/>
        <pt x="56" y="0" on="1"/>
        <pt x="56" y="130" on="1"/>
        <pt x="180" y="130" on="1"/>
      </contour>
    </TTGlyph>
    <TTGlyph name="seven" xMin="43" yMin="0" xMax="503" yMax="700">
      <contour>
        <pt x="503" y="700" on="1"/>
        <pt x="211" y="0" on="1"/>
        <pt x="77" y="0" on="1"/>
        <pt x="317" y="576" on="1"/>
        <pt x="43" y="576" on="1"/>
        <pt x="43" y="700" on="1"/>
      </contour>
    </TTGlyph>
    <TTGlyph name="six" xMin="58" yMin="-14" xMax="520" yMax="700">
      <contour>
        <pt x="276" y="-14" on="1"/>
        <pt x="177" y="-14" on="0"/>
        <pt x="58" y="115" on="0"/>
        <pt x="58" y="253" on="1"/>
        <pt x="58" y="318" on="0"/>
        <pt x="89" y="435" on="0"/>
        <pt x="140" y="534" on="0"/>
        <pt x="204" y="614" on="0"/>
        <pt x="271" y="670" on="0"/>
        <pt x="334" y="700" on="0"/>
        <pt x="358" y="700" on="1"/>
        <pt x="442" y="650" on="1"/>
        <pt x="428" y="650" on="0"/>
        <pt x="383" y="628" on="0"/>
        <pt x="330" y="590" on="0"/>
        <pt x="276" y="538" on="0"/>
        <pt x="230" y="479" on="0"/>
        <pt x="197" y="414" on="0"/>
        <pt x="193" y="382" on="1"/>
        <pt x="224" y="421" on="0"/>
        <pt x="309" y="421" on="1"/>
        <pt x="355" y="421" on="0"/>
        <pt x="433" y="394" on="0"/>
        <pt x="489" y="343" on="0"/>
        <pt x="520" y="267" on="0"/>
        <pt x="520" y="219" on="1"/>
        <pt x="520" y="172" on="0"/>
        <pt x="485" y="87" on="0"/>
        <pt x="421" y="23" on="0"/>
        <pt x="331" y="-14" on="0"/>
      </contour>
      <contour>
        <pt x="301" y="317" on="1"/>
        <pt x="247" y="317" on="0"/>
        <pt x="182" y="260" on="0"/>
        <pt x="182" y="203" on="1"/>
        <pt x="182" y="179" on="0"/>
        <pt x="201" y="140" on="0"/>
        <pt x="231" y="114" on="0"/>
        <pt x="269" y="100" on="0"/>
        <pt x="289" y="100" on="1"/>
        <pt x="314" y="100" on="0"/>
        <pt x="356" y="119" on="0"/>
        <pt x="386" y="152" on="0"/>
        <pt x="402" y="196" on="0"/>
        <pt x="402" y="221" on="1"/>
        <pt x="402" y="239" on="0"/>
        <pt x="389" y="274" on="0"/>
        <pt x="363" y="301" on="0"/>
        <pt x="325" y="317" on="0"/>
      </contour>
    </TTGlyph>
    <TTGlyph name="slash" xMin="19" yMin="-85" xMax="518" yMax="700">
      <contour>
        <pt x="518" y="700" on="1"/>
        <pt x="153" y="-85" on="1"/>
        <pt x="19" y="-85" on="1"/>
        <pt x="384" y="700" on="1"/>
      </contour>
    </TTGlyph>
    <TTGlyph name="sterling" xMin="31" yMin="0" xMax="500" yMax="706">
      <contour>
        <pt x="423" y="551" on="1"/>
        <pt x="411" y="582" on="0"/>
        <pt x="379" y="607" on="0"/>
        <pt x="348" y="607" on="1"/>
        <pt x="322" y="607" on="0"/>
        <pt x="292" y="591" on="0"/>
        <pt x="278" y="559" on="0"/>
        <pt x="275" y="511" on="0"/>
        <pt x="275" y="480" on="1"/>
        <pt x="275" y="407" on="1"/>
        <pt x="460" y="407" on="1"/>
        <pt x="436" y="303" on="1"/>
        <pt x="270" y="303" on="1"/>
        <pt x="268" y="275" on="0"/>
        <pt x="264" y="232" on="0"/>
        <pt x="255" y="192" on="0"/>
        <pt x="242" y="151" on="0"/>
        <pt x="231" y="124" on="1"/>
        <pt x="465" y="124" on="1"/>
        <pt x="465" y="0" on="1"/>
        <pt x="31" y="0" on="1"/>
        <pt x="89" y="70" on="0"/>
        <pt x="140" y="218" on="0"/>
        <pt x="148" y="303" on="1"/>
        <pt x="59" y="303" on="1"/>
        <pt x="83" y="407" on="1"/>
        <pt x="154" y="407" on="1"/>
        <pt x="154" y="500" on="1"/>
        <pt x="154" y="537" on="0"/>
        <pt x="167" y="611" on="0"/>
        <pt x="206" y="669" on="0"/>
        <pt x="277" y="706" on="0"/>
        <pt x="335" y="706" on="1"/>
        <pt x="364" y="706" on="0"/>
        <pt x="419" y="695" on="0"/>
        <pt x="463" y="673" on="0"/>
        <pt x="494" y="637" on="0"/>
        <pt x="500" y="612" on="1"/>
      </contour>
    </TTGlyph>
    <TTGlyph name="t" xMin="16" yMin="-10" xMax="321" yMax="623">
      <contour>
        <pt x="321" y="92" on="1"/>
        <pt x="310" y="-10" on="1"/>
        <pt x="221" y="-10" on="1"/>
        <pt x="188" y="-10" on="0"/>
        <pt x="138" y="11" on="0"/>
        <pt x="104" y="46" on="0"/>
        <pt x="87" y="94" on="0"/>
        <pt x="87" y="121" on="1"/>
        <pt x="87" y="398" on="1"/>
        <pt x="16" y="398" on="1"/>
        <pt x="27" y="500" on="1"/>
        <pt x="87" y="500" on="1"/>
        <pt x="87" y="610" on="1"/>
        <pt x="211" y="623" on="1"/>
        <pt x="211" y="500" on="1"/>
        <pt x="321" y="500" on="1"/>
        <pt x="321" y="398" on="1"/>
        <pt x="211" y="398" on="1"/>
        <pt x="211" y="172" on="1"/>
        <pt x="211" y="143" on="0"/>
        <pt x="215" y="111" on="0"/>
        <pt x="230" y="95" on="0"/>
        <pt x="260" y="92" on="0"/>
        <pt x="287" y="92" on="1"/>
      </contour>
    </TTGlyph>
    <TTGlyph name="thorn" xMin="57" yMin="-242" xMax="543" yMax="750">
      <contour>
        <pt x="298" y="-10" on="1"/>
        <pt x="231" y="-10" on="0"/>
        <pt x="181" y="24" on="1"/>
        <pt x="181" y="-242" on="1"/>
        <pt x="57" y="-242" on="1"/>
        <pt x="57" y="750" on="1"/>
        <pt x="181" y="750" on="1"/>
        <pt x="181" y="475" on="1"/>
        <pt x="230" y="508" on="0"/>
        <pt x="298" y="508" on="1"/>
        <pt x="355" y="508" on="0"/>
        <pt x="446" y="468" on="0"/>
        <pt x="509" y="398" on="0"/>
        <pt x="543" y="303" on="0"/>
        <pt x="543" y="249" on="1"/>
        <pt x="543" y="195" on="0"/>
        <pt x="510" y="101" on="0"/>
        <pt x="448" y="30" on="0"/>
        <pt x="356" y="-10" on="0"/>
      </contour>
      <contour>
        <pt x="290" y="406" on="1"/>
        <pt x="232" y="406" on="0"/>
        <pt x="175" y="322" on="0"/>
        <pt x="175" y="249" on="1"/>
        <pt x="175" y="176" on="0"/>
        <pt x="232" y="92" on="0"/>
        <pt x="290" y="92" on="1"/>
        <pt x="350" y="92" on="0"/>
        <pt x="416" y="177" on="0"/>
        <pt x="416" y="249" on="1"/>
        <pt x="416" y="321" on="0"/>
        <pt x="350" y="406" on="0"/>
      </contour>
    </TTGlyph>
    <TTGlyph name="three" xMin="36" yMin="-14" xMax="480" yMax="714">
      <contour>
        <pt x="224" y="-14" on="1"/>
        <pt x="196" y="-14" on="0"/>
        <pt x="135" y="-3" on="0"/>
        <pt x="82" y="13" on="0"/>
        <pt x="42" y="32" on="0"/>
        <pt x="36" y="40" on="1"/>
        <pt x="67" y="158" on="1"/>
        <pt x="89" y="137" on="0"/>
        <pt x="176" y="109" on="0"/>
        <pt x="219" y="109" on="1"/>
        <pt x="354" y="109" on="0"/>
        <pt x="354" y="211" on="1"/>
        <pt x="354" y="238" on="0"/>
        <pt x="341" y="283" on="0"/>
        <pt x="311" y="314" on="0"/>
        <pt x="262" y="331" on="0"/>
        <pt x="226" y="331" on="1"/>
        <pt x="136" y="331" on="1"/>
        <pt x="147" y="430" on="1"/>
        <pt x="193" y="430" on="1"/>
        <pt x="326" y="430" on="0"/>
        <pt x="326" y="522" on="1"/>
        <pt x="326" y="606" on="0"/>
        <pt x="223" y="606" on="1"/>
        <pt x="137" y="606" on="0"/>
        <pt x="100" y="572" on="1"/>
        <pt x="80" y="668" on="1"/>
        <pt x="98" y="686" on="0"/>
        <pt x="184" y="714" on="0"/>
        <pt x="238" y="714" on="1"/>
        <pt x="302" y="714" on="0"/>
        <pt x="386" y="679" on="0"/>
        <pt x="436" y="625" on="0"/>
        <pt x="455" y="559" on="0"/>
        <pt x="455" y="528" on="1"/>
        <pt x="455" y="437" on="0"/>
        <pt x="388" y="388" on="1"/>
        <pt x="480" y="332" on="0"/>
        <pt x="480" y="217" on="1"/>
        <pt x="480" y="162" on="0"/>
        <pt x="439" y="76" on="0"/>
        <pt x="369" y="17" on="0"/>
        <pt x="276" y="-14" on="0"/>
      </contour>
    </TTGlyph>
    <TTGlyph name="threequarters" xMin="31" yMin="-85" xMax="870" yMax="706">
      <component glyphName="uni00B3" x="14" y="0" flags="0x4"/>
      <component glyphName="slash" x="205" y="0" flags="0x4"/>
      <component glyphName="uni2074" x="548" y="-319" flags="0x4"/>
    </TTGlyph>
    <TTGlyph name="tilde" xMin="76" yMin="594" xMax="452" yMax="721">
      <contour>
        <pt x="334" y="599" on="1"/>
        <pt x="321" y="599" on="0"/>
        <pt x="283" y="612" on="0"/>
        <pt x="246" y="628" on="0"/>
        <pt x="214" y="641" on="0"/>
        <pt x="207" y="641" on="1"/>
        <pt x="187" y="641" on="0"/>
        <pt x="163" y="612" on="0"/>
        <pt x="159" y="594" on="1"/>
        <pt x="76" y="614" on="1"/>
        <pt x="78" y="638" on="0"/>
        <pt x="101" y="675" on="0"/>
        <pt x="136" y="702" on="0"/>
        <pt x="179" y="716" on="0"/>
        <pt x="201" y="716" on="1"/>
        <pt x="216" y="716" on="0"/>
        <pt x="251" y="703" on="0"/>
        <pt x="284" y="687" on="0"/>
        <pt x="311" y="674" on="0"/>
        <pt x="319" y="674" on="1"/>
        <pt x="341" y="674" on="0"/>
        <pt x="373" y="704" on="0"/>
        <pt x="376" y="721" on="1"/>
        <pt x="452" y="701" on="1"/>
        <pt x="449" y="680" on="0"/>
        <pt x="429" y="643" on="0"/>
        <pt x="398" y="615" on="0"/>
        <pt x="358" y="599" on="0"/>
      </contour>
    </TTGlyph>
    <TTGlyph name="trademark" xMin="32" yMin="337" xMax="686" yMax="700">
      <contour>
        <pt x="501" y="425" on="1"/>
        <pt x="490" y="425" on="1"/>
        <pt x="415" y="549" on="1"/>
        <pt x="388" y="337" on="1"/>
        <pt x="306" y="337" on="1"/>
        <pt x="355" y="700" on="1"/>
        <pt x="405" y="700" on="1"/>
        <pt x="496" y="552" on="1"/>
        <pt x="586" y="700" on="1"/>
        <pt x="637" y="700" on="1"/>
        <pt x="686" y="337" on="1"/>
        <pt x="603" y="337" on="1"/>
        <pt x="577" y="549" on="1"/>
      </contour>
      <contour>
        <pt x="313" y="700" on="1"/>
        <pt x="303" y="622" on="1"/>
        <pt x="209" y="622" on="1"/>
        <pt x="209" y="337" on="1"/>
        <pt x="129" y="337" on="1"/>
        <pt x="129" y="622" on="1"/>
        <pt x="32" y="622" on="1"/>
        <pt x="32" y="700" on="1"/>
      </contour>
    </TTGlyph>
    <TTGlyph name="two" xMin="44" yMin="0" xMax="472" yMax="714">
      <contour>
        <pt x="472" y="0" on="1"/>
        <pt x="44" y="0" on="1"/>
        <pt x="110" y="95" on="0"/>
        <pt x="203" y="238" on="0"/>
        <pt x="266" y="342" on="0"/>
        <pt x="302" y="414" on="0"/>
        <pt x="321" y="463" on="0"/>
        <pt x="326" y="495" on="0"/>
        <pt x="326" y="507" on="1"/>
        <pt x="326" y="555" on="0"/>
        <pt x="275" y="607" on="0"/>
        <pt x="229" y="607" on="1"/>
        <pt x="139" y="607" on="0"/>
        <pt x="68" y="500" on="1"/>
        <pt x="52" y="615" on="1"/>
        <pt x="62" y="633" on="0"/>
        <pt x="99" y="668" on="0"/>
        <pt x="151" y="696" on="0"/>
        <pt x="217" y="714" on="0"/>
        <pt x="255" y="714" on="1"/>
        <pt x="305" y="714" on="0"/>
        <pt x="378" y="683" on="0"/>
        <pt x="425" y="631" on="0"/>
        <pt x="447" y="563" on="0"/>
        <pt x="447" y="526" on="1"/>
        <pt x="447" y="491" on="0"/>
        <pt x="427" y="413" on="0"/>
        <pt x="383" y="317" on="0"/>
        <pt x="313" y="199" on="0"/>
        <pt x="264" y="124" on="1"/>
        <pt x="472" y="124" on="1"/>
      </contour>
    </TTGlyph>
    <TTGlyph name="u" xMin="53" yMin="-10" xMax="494" yMax="500">
      <contour>
        <pt x="494" y="0" on="1"/>
        <pt x="378" y="0" on="1"/>
        <pt x="376" y="30" on="1"/>
        <pt x="324" y="-10" on="0"/>
        <pt x="265" y="-10" on="1"/>
        <pt x="53" y="-10" on="0"/>
        <pt x="53" y="231" on="1"/>
        <pt x="53" y="500" on="1"/>
        <pt x="177" y="500" on="1"/>
        <pt x="177" y="231" on="1"/>
        <pt x="177" y="161" on="0"/>
        <pt x="224" y="94" on="0"/>
        <pt x="276" y="94" on="1"/>
        <pt x="334" y="94" on="0"/>
        <pt x="370" y="136" on="1"/>
        <pt x="370" y="500" on="1"/>
        <pt x="494" y="500" on="1"/>
      </contour>
    </TTGlyph>
    <TTGlyph name="uacute" xMin="53" yMin="-10" xMax="494" yMax="750">
      <component glyphName="u" x="0" y="0" flags="0x204"/>
      <component glyphName="acute" x="123" y="0" flags="0x4"/>
    </TTGlyph>
    <TTGlyph name="ucircumflex" xMin="53" yMin="-10" xMax="494" yMax="750">
      <component glyphName="u" x="0" y="0" flags="0x204"/>
      <component glyphName="circumflex" x="53" y="0" flags="0x4"/>
    </TTGlyph>
    <TTGlyph name="udieresis" xMin="53" yMin="-10" xMax="494" yMax="700">
      <component glyphName="u" x="0" y="0" flags="0x204"/>
      <component glyphName="dieresis" x="65" y="0" flags="0x4"/>
    </TTGlyph>
    <TTGlyph name="ugrave" xMin="53" yMin="-10" xMax="494" yMax="750">
      <component glyphName="u" x="0" y="0" flags="0x204"/>
      <component glyphName="grave" x="123" y="0" flags="0x4"/>
    </TTGlyph>
    <TTGlyph name="underscore" xMin="-1" yMin="-130" xMax="559" yMax="-36">
      <contour>
        <pt x="559" y="-130" on="1"/>
        <pt x="-1" y="-130" on="1"/>
        <pt x="-1" y="-36" on="1"/>
        <pt x="559" y="-36" on="1"/>
      </contour>
    </TTGlyph>
    <TTGlyph name="uni00AD" xMin="54" yMin="230" xMax="364" yMax="324">
      <contour>
        <pt x="364" y="230" on="1"/>
        <pt x="54" y="230" on="1"/>
        <pt x="54" y="324" on="1"/>
        <pt x="364" y="324" on="1"/>
      </contour>
    </TTGlyph>
    <TTGlyph name="uni00B2" xMin="17" yMin="320" xMax="276" yMax="706">
      <contour>
        <pt x="276" y="320" on="1"/>
        <pt x="17" y="320" on="1"/>
        <pt x="173" y="534" on="0"/>
        <pt x="173" y="590" on="1"/>
        <pt x="173" y="633" on="0"/>
        <pt x="137" y="633" on="1"/>
        <pt x="117" y="633" on="0"/>
        <pt x="86" y="614" on="0"/>
        <pt x="62" y="590" on="0"/>
        <pt x="48" y="567" on="0"/>
        <pt x="45" y="563" on="1"/>
        <pt x="33" y="650" on="1"/>
        <pt x="65" y="706" on="0"/>
        <pt x="154" y="706" on="1"/>
        <pt x="183" y="706" on="0"/>
        <pt x="224" y="690" on="0"/>
        <pt x="251" y="662" on="0"/>
        <pt x="263" y="626" on="0"/>
        <pt x="263" y="607" on="1"/>
        <pt x="263" y="540" on="0"/>
        <pt x="182" y="419" on="1"/>
        <pt x="276" y="419" on="1"/>
      </contour>
    </TTGlyph>
    <TTGlyph name="uni00B3" xMin="17" yMin="312" xMax="275" yMax="706">
      <contour>
        <pt x="124" y="312" on="1"/>
        <pt x="109" y="312" on="0"/>
        <pt x="74" y="318" on="0"/>
        <pt x="43" y="327" on="0"/>
        <pt x="20" y="337" on="0"/>
        <pt x="17" y="342" on="1"/>
        <pt x="41" y="432" on="1"/>
        <pt x="72" y="410" on="0"/>
        <pt x="117" y="410" on="1"/>
        <pt x="184" y="410" on="0"/>
        <pt x="184" y="432" on="1"/>
        <pt x="184" y="489" on="0"/>
        <pt x="140" y="489" on="1"/>
        <pt x="74" y="489" on="1"/>
        <pt x="81" y="561" on="1"/>
        <pt x="115" y="561" on="1"/>
        <pt x="131" y="561" on="0"/>
        <pt x="151" y="568" on="0"/>
        <pt x="162" y="579" on="0"/>
        <pt x="166" y="589" on="0"/>
        <pt x="166" y="592" on="1"/>
        <pt x="166" y="629" on="0"/>
        <pt x="103" y="629" on="1"/>
        <pt x="69" y="629" on="0"/>
        <pt x="56" y="616" on="1"/>
        <pt x="43" y="681" on="1"/>
        <pt x="55" y="692" on="0"/>
        <pt x="107" y="706" on="0"/>
        <pt x="131" y="706" on="1"/>
        <pt x="171" y="706" on="0"/>
        <pt x="222" y="684" on="0"/>
        <pt x="250" y="652" on="0"/>
        <pt x="260" y="615" on="0"/>
        <pt x="260" y="600" on="1"/>
        <pt x="260" y="571" on="0"/>
        <pt x="243" y="531" on="0"/>
        <pt x="240" y="530" on="1"/>
        <pt x="243" y="523" on="0"/>
        <pt x="255" y="506" on="0"/>
        <pt x="266" y="484" on="0"/>
        <pt x="275" y="457" on="0"/>
        <pt x="275" y="440" on="1"/>
        <pt x="275" y="410" on="0"/>
        <pt x="251" y="362" on="0"/>
        <pt x="209" y="329" on="0"/>
        <pt x="154" y="312" on="0"/>
      </contour>
    </TTGlyph>
    <TTGlyph name="uni00B5" xMin="69" yMin="-242" xMax="570" yMax="500">
      <contour>
        <pt x="570" y="92" on="1"/>
        <pt x="559" y="-10" on="1"/>
        <pt x="514" y="-10" on="1"/>
        <pt x="437" y="-10" on="0"/>
        <pt x="406" y="42" on="1"/>
        <pt x="384" y="21" on="0"/>
        <pt x="315" y="-8" on="0"/>
        <pt x="282" y="-8" on="1"/>
        <pt x="233" y="-8" on="0"/>
        <pt x="193" y="6" on="1"/>
        <pt x="193" y="-242" on="1"/>
        <pt x="69" y="-242" on="1"/>
        <pt x="69" y="500" on="1"/>
        <pt x="193" y="500" on="1"/>
        <pt x="193" y="231" on="1"/>
        <pt x="193" y="161" on="0"/>
        <pt x="240" y="94" on="0"/>
        <pt x="292" y="94" on="1"/>
        <pt x="350" y="94" on="0"/>
        <pt x="386" y="136" on="1"/>
        <pt x="386" y="500" on="1"/>
        <pt x="510" y="500" on="1"/>
        <pt x="510" y="172" on="1"/>
        <pt x="510" y="145" on="0"/>
        <pt x="513" y="113" on="0"/>
        <pt x="522" y="96" on="0"/>
        <pt x="540" y="92" on="0"/>
        <pt x="554" y="92" on="1"/>
      </contour>
    </TTGlyph>
    <TTGlyph name="uni00B9" xMin="28" yMin="320" xMax="163" yMax="698">
      <contour>
        <pt x="163" y="320" on="1"/>
        <pt x="67" y="320" on="1"/>
        <pt x="67" y="573" on="1"/>
        <pt x="28" y="565" on="1"/>
        <pt x="28" y="639" on="1"/>
        <pt x="47" y="639" on="0"/>
        <pt x="83" y="677" on="0"/>
        <pt x="87" y="698" on="1"/>
        <pt x="163" y="698" on="1"/>
      </contour>
    </TTGlyph>
    <TTGlyph name="uni0237" xMin="-2" yMin="-242" xMax="182" yMax="500">
      <contour>
        <pt x="54" y="-242" on="1"/>
        <pt x="9" y="-242" on="1"/>
        <pt x="-2" y="-140" on="1"/>
        <pt x="18" y="-140" on="0"/>
        <pt x="42" y="-137" on="0"/>
        <pt x="54" y="-122" on="0"/>
        <pt x="58" y="-90" on="0"/>
        <pt x="58" y="-60" on="1"/>
        <pt x="58" y="500" on="1"/>
        <pt x="182" y="500" on="1"/>
        <pt x="182" y="-111" on="1"/>
        <pt x="182" y="-169" on="0"/>
        <pt x="118" y="-242" on="0"/>
      </contour>
    </TTGlyph>
    <TTGlyph name="uni2070" xMin="29" yMin="312" xMax="370" yMax="706">
      <contour>
        <pt x="196" y="312" on="1"/>
        <pt x="158" y="312" on="0"/>
        <pt x="96" y="340" on="0"/>
        <pt x="53" y="391" on="0"/>
        <pt x="29" y="462" on="0"/>
        <pt x="29" y="504" on="1"/>
        <pt x="29" y="547" on="0"/>
        <pt x="56" y="621" on="0"/>
        <pt x="102" y="675" on="0"/>
        <pt x="166" y="706" on="0"/>
        <pt x="203" y="706" on="1"/>
        <pt x="239" y="706" on="0"/>
        <pt x="301" y="676" on="0"/>
        <pt x="345" y="623" on="0"/>
        <pt x="370" y="552" on="0"/>
        <pt x="370" y="511" on="1"/>
        <pt x="370" y="468" on="0"/>
        <pt x="346" y="395" on="0"/>
        <pt x="301" y="342" on="0"/>
        <pt x="236" y="312" on="0"/>
      </contour>
      <contour>
        <pt x="202" y="622" on="1"/>
        <pt x="172" y="622" on="0"/>
        <pt x="124" y="562" on="0"/>
        <pt x="124" y="504" on="1"/>
        <pt x="124" y="449" on="0"/>
        <pt x="165" y="399" on="0"/>
        <pt x="197" y="399" on="1"/>
        <pt x="276" y="399" on="0"/>
        <pt x="276" y="511" on="1"/>
        <pt x="276" y="566" on="0"/>
        <pt x="231" y="622" on="0"/>
      </contour>
    </TTGlyph>
    <TTGlyph name="uni2074" xMin="2" yMin="320" xMax="322" yMax="698">
      <contour>
        <pt x="322" y="423" on="1"/>
        <pt x="273" y="423" on="1"/>
        <pt x="273" y="320" on="1"/>
        <pt x="177" y="320" on="1"/>
        <pt x="177" y="423" on="1"/>
        <pt x="2" y="423" on="1"/>
        <pt x="189" y="698" on="1"/>
        <pt x="273" y="698" on="1"/>
        <pt x="273" y="494" on="1"/>
        <pt x="322" y="494" on="1"/>
      </contour>
      <contour>
        <pt x="177" y="494" on="1"/>
        <pt x="177" y="570" on="1"/>
        <pt x="123" y="494" on="1"/>
      </contour>
    </TTGlyph>
    <TTGlyph name="uni2075" xMin="24" yMin="314" xMax="278" yMax="698">
      <contour>
        <pt x="141" y="314" on="1"/>
        <pt x="132" y="314" on="0"/>
        <pt x="98" y="322" on="0"/>
        <pt x="61" y="334" on="0"/>
        <pt x="30" y="350" on="0"/>
        <pt x="24" y="358" on="1"/>
        <pt x="47" y="444" on="1"/>
        <pt x="68" y="405" on="0"/>
        <pt x="165" y="405" on="1"/>
        <pt x="179" y="405" on="0"/>
        <pt x="191" y="421" on="0"/>
        <pt x="191" y="444" on="1"/>
        <pt x="191" y="480" on="0"/>
        <pt x="123" y="480" on="1"/>
        <pt x="44" y="480" on="1"/>
        <pt x="71" y="698" on="1"/>
        <pt x="259" y="698" on="1"/>
        <pt x="249" y="599" on="1"/>
        <pt x="142" y="599" on="1"/>
        <pt x="135" y="556" on="1"/>
        <pt x="278" y="554" on="0"/>
        <pt x="278" y="441" on="1"/>
        <pt x="278" y="408" on="0"/>
        <pt x="257" y="360" on="0"/>
        <pt x="220" y="329" on="0"/>
        <pt x="170" y="314" on="0"/>
      </contour>
    </TTGlyph>
    <TTGlyph name="uni2076" xMin="29" yMin="312" xMax="297" yMax="698">
      <contour>
        <pt x="155" y="312" on="1"/>
        <pt x="98" y="312" on="0"/>
        <pt x="29" y="389" on="0"/>
        <pt x="29" y="468" on="1"/>
        <pt x="29" y="515" on="0"/>
        <pt x="67" y="598" on="0"/>
        <pt x="121" y="660" on="0"/>
        <pt x="181" y="697" on="0"/>
        <pt x="203" y="698" on="1"/>
        <pt x="267" y="661" on="1"/>
        <pt x="255" y="661" on="0"/>
        <pt x="209" y="627" on="0"/>
        <pt x="162" y="584" on="0"/>
        <pt x="127" y="545" on="0"/>
        <pt x="127" y="540" on="1"/>
        <pt x="141" y="548" on="0"/>
        <pt x="179" y="548" on="1"/>
        <pt x="230" y="548" on="0"/>
        <pt x="297" y="490" on="0"/>
        <pt x="297" y="439" on="1"/>
        <pt x="297" y="414" on="0"/>
        <pt x="276" y="368" on="0"/>
        <pt x="238" y="333" on="0"/>
        <pt x="186" y="312" on="0"/>
      </contour>
      <contour>
        <pt x="172" y="473" on="1"/>
        <pt x="145" y="473" on="0"/>
        <pt x="120" y="456" on="0"/>
        <pt x="120" y="431" on="1"/>
        <pt x="120" y="419" on="0"/>
        <pt x="151" y="400" on="0"/>
        <pt x="163" y="400" on="1"/>
        <pt x="182" y="400" on="0"/>
        <pt x="212" y="425" on="0"/>
        <pt x="212" y="445" on="1"/>
        <pt x="212" y="456" on="0"/>
        <pt x="186" y="473" on="0"/>
      </contour>
    </TTGlyph>
    <TTGlyph name="uni2077" xMin="28" yMin="320" xMax="300" yMax="698">
      <contour>
        <pt x="300" y="698" on="1"/>
        <pt x="140" y="320" on="1"/>
        <pt x="35" y="320" on="1"/>
        <pt x="155" y="599" on="1"/>
        <pt x="28" y="599" on="1"/>
        <pt x="28" y="698" on="1"/>
      </contour>
    </TTGlyph>
    <TTGlyph name="uni2078" xMin="29" yMin="312" xMax="313" yMax="706">
      <contour>
        <pt x="164" y="312" on="1"/>
        <pt x="98" y="312" on="0"/>
        <pt x="29" y="369" on="0"/>
        <pt x="29" y="417" on="1"/>
        <pt x="29" y="470" on="0"/>
        <pt x="71" y="524" on="1"/>
        <pt x="66" y="527" on="0"/>
        <pt x="59" y="545" on="0"/>
        <pt x="53" y="568" on="0"/>
        <pt x="50" y="595" on="0"/>
        <pt x="50" y="607" on="1"/>
        <pt x="50" y="706" on="0"/>
        <pt x="173" y="706" on="1"/>
        <pt x="292" y="706" on="0"/>
        <pt x="292" y="616" on="1"/>
        <pt x="292" y="607" on="0"/>
        <pt x="286" y="580" on="0"/>
        <pt x="278" y="554" on="0"/>
        <pt x="269" y="532" on="0"/>
        <pt x="266" y="528" on="1"/>
        <pt x="273" y="520" on="0"/>
        <pt x="290" y="498" on="0"/>
        <pt x="304" y="473" on="0"/>
        <pt x="313" y="447" on="0"/>
        <pt x="313" y="435" on="1"/>
        <pt x="313" y="411" on="0"/>
        <pt x="294" y="366" on="0"/>
        <pt x="256" y="332" on="0"/>
        <pt x="200" y="312" on="0"/>
      </contour>
      <contour>
        <pt x="171" y="640" on="1"/>
        <pt x="143" y="640" on="0"/>
        <pt x="131" y="611" on="0"/>
        <pt x="131" y="594" on="1"/>
        <pt x="131" y="553" on="0"/>
        <pt x="166" y="553" on="1"/>
        <pt x="205" y="553" on="0"/>
        <pt x="205" y="597" on="1"/>
        <pt x="205" y="604" on="0"/>
        <pt x="204" y="619" on="0"/>
        <pt x="198" y="632" on="0"/>
        <pt x="184" y="640" on="0"/>
      </contour>
      <contour>
        <pt x="114" y="430" on="1"/>
        <pt x="114" y="409" on="0"/>
        <pt x="143" y="381" on="0"/>
        <pt x="167" y="381" on="1"/>
        <pt x="197" y="381" on="0"/>
        <pt x="220" y="405" on="0"/>
        <pt x="220" y="429" on="1"/>
        <pt x="220" y="459" on="0"/>
        <pt x="192" y="494" on="0"/>
        <pt x="174" y="494" on="1"/>
        <pt x="165" y="494" on="0"/>
        <pt x="144" y="484" on="0"/>
        <pt x="126" y="467" on="0"/>
        <pt x="114" y="443" on="0"/>
      </contour>
    </TTGlyph>
    <TTGlyph name="uni2079" xMin="19" yMin="320" xMax="288" yMax="706">
      <contour>
        <pt x="161" y="706" on="1"/>
        <pt x="221" y="706" on="0"/>
        <pt x="288" y="625" on="0"/>
        <pt x="288" y="550" on="1"/>
        <pt x="288" y="511" on="0"/>
        <pt x="257" y="429" on="0"/>
        <pt x="206" y="363" on="0"/>
        <pt x="140" y="320" on="0"/>
        <pt x="106" y="320" on="1"/>
        <pt x="53" y="357" on="1"/>
        <pt x="68" y="357" on="0"/>
        <pt x="118" y="383" on="0"/>
        <pt x="166" y="422" on="0"/>
        <pt x="201" y="466" on="0"/>
        <pt x="201" y="483" on="1"/>
        <pt x="181" y="471" on="0"/>
        <pt x="142" y="471" on="1"/>
        <pt x="121" y="471" on="0"/>
        <pt x="78" y="486" on="0"/>
        <pt x="42" y="514" on="0"/>
        <pt x="19" y="552" on="0"/>
        <pt x="19" y="576" on="1"/>
        <pt x="19" y="602" on="0"/>
        <pt x="40" y="649" on="0"/>
        <pt x="78" y="685" on="0"/>
        <pt x="130" y="706" on="0"/>
      </contour>
      <contour>
        <pt x="150" y="545" on="1"/>
        <pt x="176" y="545" on="0"/>
        <pt x="202" y="561" on="0"/>
        <pt x="202" y="584" on="1"/>
        <pt x="202" y="622" on="0"/>
        <pt x="160" y="622" on="1"/>
        <pt x="140" y="622" on="0"/>
        <pt x="114" y="593" on="0"/>
        <pt x="114" y="578" on="1"/>
        <pt x="114" y="562" on="0"/>
        <pt x="135" y="545" on="0"/>
      </contour>
    </TTGlyph>
    <TTGlyph name="uni2080" xMin="42" yMin="-7" xMax="383" yMax="387">
      <component glyphName="uni2070" x="13" y="-319" flags="0x4"/>
    </TTGlyph>
    <TTGlyph name="uni2081" xMin="43" yMin="1" xMax="178" yMax="379">
      <component glyphName="uni00B9" x="15" y="-319" flags="0x4"/>
    </TTGlyph>
    <TTGlyph name="uni2082" xMin="28" yMin="1" xMax="287" yMax="387">
      <component glyphName="uni00B2" x="11" y="-319" flags="0x4"/>
    </TTGlyph>
    <TTGlyph name="uni2083" xMin="30" yMin="-7" xMax="288" yMax="387">
      <component glyphName="uni00B3" x="13" y="-319" flags="0x4"/>
    </TTGlyph>
    <TTGlyph name="uni2084" xMin="13" yMin="1" xMax="333" yMax="379">
      <component glyphName="uni2074" x="11" y="-319" flags="0x4"/>
    </TTGlyph>
    <TTGlyph name="uni2085" xMin="38" yMin="-5" xMax="292" yMax="379">
      <component glyphName="uni2075" x="14" y="-319" flags="0x4"/>
    </TTGlyph>
    <TTGlyph name="uni2086" xMin="42" yMin="-7" xMax="310" yMax="379">
      <component glyphName="uni2076" x="13" y="-319" flags="0x4"/>
    </TTGlyph>
    <TTGlyph name="uni2087" xMin="42" yMin="1" xMax="314" yMax="379">
      <component glyphName="uni2077" x="14" y="-319" flags="0x4"/>
    </TTGlyph>
    <TTGlyph name="uni2088" xMin="42" yMin="-7" xMax="326" yMax="387">
      <component glyphName="uni2078" x="13" y="-319" flags="0x4"/>
    </TTGlyph>
    <TTGlyph name="uni2089" xMin="30" yMin="1" xMax="299" yMax="387">
      <component glyphName="uni2079" x="11" y="-319" flags="0x4"/>
    </TTGlyph>
    <TTGlyph name="v" xMin="3" yMin="0" xMax="493" yMax="500">
      <contour>
        <pt x="493" y="500" on="1"/>
        <pt x="301" y="0" on="1"/>
        <pt x="195" y="0" on="1"/>
        <pt x="3" y="500" on="1"/>
        <pt x="125" y="500" on="1"/>
        <pt x="248" y="154" on="1"/>
        <pt x="371" y="500" on="1"/>
      </contour>
    </TTGlyph>
    <TTGlyph name="w" xMin="10" yMin="0" xMax="716" yMax="500">
      <contour>
        <pt x="716" y="500" on="1"/>
        <pt x="570" y="0" on="1"/>
        <pt x="466" y="0" on="1"/>
        <pt x="363" y="326" on="1"/>
        <pt x="260" y="0" on="1"/>
        <pt x="156" y="0" on="1"/>
        <pt x="10" y="500" on="1"/>
        <pt x="131" y="500" on="1"/>
        <pt x="217" y="151" on="1"/>
        <pt x="311" y="490" on="1"/>
        <pt x="415" y="490" on="1"/>
        <pt x="508" y="151" on="1"/>
        <pt x="595" y="500" on="1"/>
      </contour>
    </TTGlyph>
</ttFont>
